<mxfile host="app.diagrams.net" agent="Mozilla/5.0 (Windows NT 10.0; Win64; x64) AppleWebKit/537.36 (KHTML, like Gecko) Chrome/138.0.0.0 Safari/537.36" version="24.7.16">
  <diagram id="C5RBs43oDa-KdzZeNtuy" name="Page-1">
    <mxGraphModel dx="1434" dy="738" grid="1" gridSize="10" guides="1" tooltips="1" connect="1" arrows="1" fold="1" page="1" pageScale="1" pageWidth="827" pageHeight="1169" math="0" shadow="0">
      <root>
        <mxCell id="WIyWlLk6GJQsqaUBKTNV-0" />
        <mxCell id="WIyWlLk6GJQsqaUBKTNV-1" parent="WIyWlLk6GJQsqaUBKTNV-0" />
        <mxCell id="CtQenHn725b2G1ILmsrN-18" value="" style="shape=image;verticalLabelPosition=bottom;labelBackgroundColor=default;verticalAlign=top;aspect=fixed;imageAspect=0;image=data:image/svg+xml,PHN2ZyB4bWxuczp4bGluaz0iaHR0cDovL3d3dy53My5vcmcvMTk5OS94bGluayIgeG1sbnM9Imh0dHA6Ly93d3cudzMub3JnLzIwMDAvc3ZnIiBpZD0ibWluZC1zdmctY29uIiBzdHlsZT0ib3V0bGluZTogbm9uZTsgYmFja2dyb3VuZDogcmdiKDI1NSwgMjU1LCAyNTUpOyB0b3A6IDBweDsgbGVmdDogMHB4OyBkaXNwbGF5OiBibG9jazsgei1pbmRleDogLTE7IGZvbnQtc2l6ZTogMTJweDsiIGhlaWdodD0iMTYxNiIgd2lkdGg9IjE2ODEuNSIgdmVyc2lvbj0iMS4xIiB2aWV3Qm94PSIwIDAgMTY4MS41IDE2MTYiPjxkZWZzLz48ZyBpZD0ic3ZnYmFja2dyb3VuZGlkIj48ZGVmcy8+PHJlY3QgZmlsbD0iI2ZmZmZmZiIgaGVpZ2h0PSIxNjE2IiB3aWR0aD0iMTY4MS41Ii8+PC9nPjxnIHRyYW5zZm9ybT0ibWF0cml4KDEsMCwwLDEsMTM5LjUsOTY2LjEyNSkiIGNsYXNzPSJwby1taW5kLWNvbnRhaW5lciI+PGcgY2xhc3M9InBvLW1pbmQtbGluZS1jb250YWluZXIiPjxnIG9wYWNpdHk9IjEiPjxwYXRoIGZpbGw9Im5vbmUiIHN0cm9rZT0iIzAwMDAwMCIgc3Ryb2tlLXdpZHRoPSIyIiBzdHJva2UtbGluZWNhcD0iYnV0dCIgZD0iTTExMS41IDBMMTM1LjUgMEwxMzUuNSAtNTA4LjEyNUMxMzUuNSAtNTA4LjEyNSAxMzUuNSAtNTE2LjEyNSAxNDMuNSAtNTE2LjEyNUwxNjYuNSAtNTE2LjEyNSIvPjwvZz48ZyBvcGFjaXR5PSIxIj48cGF0aCBmaWxsPSJub25lIiBzdHJva2U9IiMwMDAwMDAiIHN0cm9rZS13aWR0aD0iMiIgc3Ryb2tlLWxpbmVjYXA9ImJ1dHQiIGQ9Ik0xMTEuNSAwTDEzNS41IDBMMTM1LjUgNTA4LjEyNUMxMzUuNSA1MDguMTI1IDEzNS41IDUxNi4xMjUgMTQzLjUgNTE2LjEyNUwxNjYuNSA1MTYuMTI1Ii8+PC9nPjxnIG9wYWNpdHk9IjEiPjxwYXRoIGZpbGw9Im5vbmUiIHN0cm9rZT0iIzAwMDAwMCIgc3Ryb2tlLXdpZHRoPSIyIiBzdHJva2UtbGluZWNhcD0iYnV0dCIgZD0iTTM0OS45IC01MTYuMTI1TDM2MS45IC01MTYuMTI1TDM2MS45IC0xMDkuNjI1QzM2MS45IC0xMDkuNjI1IDM2MS45IC0xMDMuNjI1IDM2Ny45IC0xMDMuNjI1TDM4Ny45IC0xMDMuNjI1Ii8+PC9nPjxnIG9wYWNpdHk9IjEiPjxwYXRoIGZpbGw9Im5vbmUiIHN0cm9rZT0iIzAwMDAwMCIgc3Ryb2tlLXdpZHRoPSIyIiBzdHJva2UtbGluZWNhcD0iYnV0dCIgZD0iTTY0Ny4wOTk5OTk5OTk5OTk5IC0xMDMuNjI1TDY1OS4wOTk5OTk5OTk5OTk5IC0xMDMuNjI1TDY1OS4wOTk5OTk5OTk5OTk5IC01OTIuNjI1QzY1OS4wOTk5OTk5OTk5OTk5IC01OTIuNjI1IDY1OS4wOTk5OTk5OTk5OTk5IC01OTguNjI1IDY2NS4wOTk5OTk5OTk5OTk5IC01OTguNjI1TDY4NS4wOTk5OTk5OTk5OTk5IC01OTguNjI1Ii8+PC9nPjxnIG9wYWNpdHk9IjEiPjxwYXRoIGZpbGw9Im5vbmUiIHN0cm9rZT0iIzAwMDAwMCIgc3Ryb2tlLXdpZHRoPSIyIiBzdHJva2UtbGluZWNhcD0iYnV0dCIgZD0iTTY0Ny4wOTk5OTk5OTk5OTk5IC0xMDMuNjI1TDY1OS4wOTk5OTk5OTk5OTk5IC0xMDMuNjI1TDY1OS4wOTk5OTk5OTk5OTk5IC01MTAuMTI1QzY1OS4wOTk5OTk5OTk5OTk5IC01MTAuMTI1IDY1OS4wOTk5OTk5OTk5OTk5IC01MTYuMTI1IDY2NS4wOTk5OTk5OTk5OTk5IC01MTYuMTI1TDY4NS4wOTk5OTk5OTk5OTk5IC01MTYuMTI1Ii8+PC9nPjxnIG9wYWNpdHk9IjEiPjxwYXRoIGZpbGw9Im5vbmUiIHN0cm9rZT0iIzAwMDAwMCIgc3Ryb2tlLXdpZHRoPSIyIiBzdHJva2UtbGluZWNhcD0iYnV0dCIgZD0iTTY0Ny4wOTk5OTk5OTk5OTk5IC0xMDMuNjI1TDY1OS4wOTk5OTk5OTk5OTk5IC0xMDMuNjI1TDY1OS4wOTk5OTk5OTk5OTk5IC00MDAuMTI1QzY1OS4wOTk5OTk5OTk5OTk5IC00MDAuMTI1IDY1OS4wOTk5OTk5OTk5OTk5IC00MDYuMTI1IDY2NS4wOTk5OTk5OTk5OTk5IC00MDYuMTI1TDY4NS4wOTk5OTk5OTk5OTk5IC00MDYuMTI1Ii8+PC9nPjxnIG9wYWNpdHk9IjEiPjxwYXRoIGZpbGw9Im5vbmUiIHN0cm9rZT0iIzAwMDAwMCIgc3Ryb2tlLXdpZHRoPSIyIiBzdHJva2UtbGluZWNhcD0iYnV0dCIgZD0iTTY0Ny4wOTk5OTk5OTk5OTk5IC0xMDMuNjI1TDY1OS4wOTk5OTk5OTk5OTk5IC0xMDMuNjI1TDY1OS4wOTk5OTk5OTk5OTk5IC0yNjIuNjI1QzY1OS4wOTk5OTk5OTk5OTk5IC0yNjIuNjI1IDY1OS4wOTk5OTk5OTk5OTk5IC0yNjguNjI1IDY2NS4wOTk5OTk5OTk5OTk5IC0yNjguNjI1TDY4NS4wOTk5OTk5OTk5OTk5IC0yNjguNjI1Ii8+PC9nPjxnIG9wYWNpdHk9IjEiPjxwYXRoIGZpbGw9Im5vbmUiIHN0cm9rZT0iIzAwMDAwMCIgc3Ryb2tlLXdpZHRoPSIyIiBzdHJva2UtbGluZWNhcD0iYnV0dCIgZD0iTTY0Ny4wOTk5OTk5OTk5OTk5IC0xMDMuNjI1TDY1OS4wOTk5OTk5OTk5OTk5IC0xMDMuNjI1TDY1OS4wOTk5OTk5OTk5OTk5IC0xMjUuMTI1QzY1OS4wOTk5OTk5OTk5OTk5IC0xMjUuMTI1IDY1OS4wOTk5OTk5OTk5OTk5IC0xMzEuMTI1IDY2NS4wOTk5OTk5OTk5OTk5IC0xMzEuMTI1TDY4NS4wOTk5OTk5OTk5OTk5IC0xMzEuMTI1Ii8+PC9nPjxnIG9wYWNpdHk9IjEiPjxwYXRoIGZpbGw9Im5vbmUiIHN0cm9rZT0iIzAwMDAwMCIgc3Ryb2tlLXdpZHRoPSIyIiBzdHJva2UtbGluZWNhcD0iYnV0dCIgZD0iTTY0Ny4wOTk5OTk5OTk5OTk5IC0xMDMuNjI1TDY1OS4wOTk5OTk5OTk5OTk5IC0xMDMuNjI1TDY1OS4wOTk5OTk5OTk5OTk5IC0yNy4xMjVDNjU5LjA5OTk5OTk5OTk5OTkgLTI3LjEyNSA2NTkuMDk5OTk5OTk5OTk5OSAtMjEuMTI1IDY2NS4wOTk5OTk5OTk5OTk5IC0yMS4xMjVMNjg1LjA5OTk5OTk5OTk5OTkgLTIxLjEyNSIvPjwvZz48ZyBvcGFjaXR5PSIxIj48cGF0aCBmaWxsPSJub25lIiBzdHJva2U9IiMwMDAwMDAiIHN0cm9rZS13aWR0aD0iMiIgc3Ryb2tlLWxpbmVjYXA9ImJ1dHQiIGQ9Ik02NDcuMDk5OTk5OTk5OTk5OSAtMTAzLjYyNUw2NTkuMDk5OTk5OTk5OTk5OSAtMTAzLjYyNUw2NTkuMDk5OTk5OTk5OTk5OSA4Mi44NzVDNjU5LjA5OTk5OTk5OTk5OTkgODIuODc1IDY1OS4wOTk5OTk5OTk5OTk5IDg4Ljg3NSA2NjUuMDk5OTk5OTk5OTk5OSA4OC44NzVMNjg1LjA5OTk5OTk5OTk5OTkgODguODc1Ii8+PC9nPjxnIG9wYWNpdHk9IjEiPjxwYXRoIGZpbGw9Im5vbmUiIHN0cm9rZT0iIzAwMDAwMCIgc3Ryb2tlLXdpZHRoPSIyIiBzdHJva2UtbGluZWNhcD0iYnV0dCIgZD0iTTY0Ny4wOTk5OTk5OTk5OTk5IC0xMDMuNjI1TDY1OS4wOTk5OTk5OTk5OTk5IC0xMDMuNjI1TDY1OS4wOTk5OTk5OTk5OTk5IDE5Mi44NzVDNjU5LjA5OTk5OTk5OTk5OTkgMTkyLjg3NSA2NTkuMDk5OTk5OTk5OTk5OSAxOTguODc1IDY2NS4wOTk5OTk5OTk5OTk5IDE5OC44NzVMNjg1LjA5OTk5OTk5OTk5OTkgMTk4Ljg3NSIvPjwvZz48ZyBvcGFjaXR5PSIxIj48cGF0aCBmaWxsPSJub25lIiBzdHJva2U9IiMwMDAwMDAiIHN0cm9rZS13aWR0aD0iMiIgc3Ryb2tlLWxpbmVjYXA9ImJ1dHQiIGQ9Ik02NDcuMDk5OTk5OTk5OTk5OSAtMTAzLjYyNUw2NTkuMDk5OTk5OTk5OTk5OSAtMTAzLjYyNUw2NTkuMDk5OTk5OTk5OTk5OSAzMDIuODc1QzY1OS4wOTk5OTk5OTk5OTk5IDMwMi44NzUgNjU5LjA5OTk5OTk5OTk5OTkgMzA4Ljg3NSA2NjUuMDk5OTk5OTk5OTk5OSAzMDguODc1TDY4NS4wOTk5OTk5OTk5OTk5IDMwOC44NzUiLz48L2c+PGcgb3BhY2l0eT0iMSI+PHBhdGggZmlsbD0ibm9uZSIgc3Ryb2tlPSIjMDAwMDAwIiBzdHJva2Utd2lkdGg9IjIiIHN0cm9rZS1saW5lY2FwPSJidXR0IiBkPSJNNjQ3LjA5OTk5OTk5OTk5OTkgLTEwMy42MjVMNjU5LjA5OTk5OTk5OTk5OTkgLTEwMy42MjVMNjU5LjA5OTk5OTk5OTk5OTkgMzg1LjM3NUM2NTkuMDk5OTk5OTk5OTk5OSAzODUuMzc1IDY1OS4wOTk5OTk5OTk5OTk5IDM5MS4zNzUgNjY1LjA5OTk5OTk5OTk5OTkgMzkxLjM3NUw2ODUuMDk5OTk5OTk5OTk5OSAzOTEuMzc1Ii8+PC9nPjxnIG9wYWNpdHk9IjEiPjxwYXRoIGZpbGw9Im5vbmUiIHN0cm9rZT0iIzAwMDAwMCIgc3Ryb2tlLXdpZHRoPSIyIiBzdHJva2UtbGluZWNhcD0iYnV0dCIgZD0iTTgxMi4zIC0yNjguNjI1TDgyNC4zIC0yNjguNjI1TDgyNC4zIC0zMTcuNjI1QzgyNC4zIC0zMTcuNjI1IDgyNC4zIC0zMjMuNjI1IDgzMC4zIC0zMjMuNjI1TDg1MC4zIC0zMjMuNjI1Ii8+PC9nPjxnIG9wYWNpdHk9IjEiPjxwYXRoIGZpbGw9Im5vbmUiIHN0cm9rZT0iIzAwMDAwMCIgc3Ryb2tlLXdpZHRoPSIyIiBzdHJva2UtbGluZWNhcD0iYnV0dCIgZD0iTTgxMi4zIC0yNjguNjI1TDgyNC4zIC0yNjguNjI1TDgyNC4zIC0yNjguNjI1QzgyNC4zIC0yNjguNjI1IDgyNC4zIC0yNjguNjI1IDgyNC4zIC0yNjguNjI1TDg1MC4zIC0yNjguNjI1Ii8+PC9nPjxnIG9wYWNpdHk9IjEiPjxwYXRoIGZpbGw9Im5vbmUiIHN0cm9rZT0iIzAwMDAwMCIgc3Ryb2tlLXdpZHRoPSIyIiBzdHJva2UtbGluZWNhcD0iYnV0dCIgZD0iTTgxMi4zIC0yNjguNjI1TDgyNC4zIC0yNjguNjI1TDgyNC4zIC0yMTkuNjI1QzgyNC4zIC0yMTkuNjI1IDgyNC4zIC0yMTMuNjI1IDgzMC4zIC0yMTMuNjI1TDg1MC4zIC0yMTMuNjI1Ii8+PC9nPjxnIG9wYWNpdHk9IjEiPjxwYXRoIGZpbGw9Im5vbmUiIHN0cm9rZT0iIzAwMDAwMCIgc3Ryb2tlLXdpZHRoPSIyIiBzdHJva2UtbGluZWNhcD0iYnV0dCIgZD0iTTgyNC4zIC0xMzEuMTI1TDgzNi4zIC0xMzEuMTI1TDgzNi4zIC0xNTIuNjI1QzgzNi4zIC0xNTIuNjI1IDgzNi4zIC0xNTguNjI1IDg0Mi4zIC0xNTguNjI1TDg2Mi4zIC0xNTguNjI1Ii8+PC9nPjxnIG9wYWNpdHk9IjEiPjxwYXRoIGZpbGw9Im5vbmUiIHN0cm9rZT0iIzAwMDAwMCIgc3Ryb2tlLXdpZHRoPSIyIiBzdHJva2UtbGluZWNhcD0iYnV0dCIgZD0iTTgyNC4zIC0xMzEuMTI1TDgzNi4zIC0xMzEuMTI1TDgzNi4zIC0xMDkuNjI1QzgzNi4zIC0xMDkuNjI1IDgzNi4zIC0xMDMuNjI1IDg0Mi4zIC0xMDMuNjI1TDg2Mi4zIC0xMDMuNjI1Ii8+PC9nPjxnIG9wYWNpdHk9IjEiPjxwYXRoIGZpbGw9Im5vbmUiIHN0cm9rZT0iIzAwMDAwMCIgc3Ryb2tlLXdpZHRoPSIyIiBzdHJva2UtbGluZWNhcD0iYnV0dCIgZD0iTTgxMi4zIC0yMS4xMjVMODI0LjMgLTIxLjEyNUw4MjQuMyAtNDIuNjI1QzgyNC4zIC00Mi42MjUgODI0LjMgLTQ4LjYyNSA4MzAuMyAtNDguNjI1TDg1MC4zIC00OC42MjUiLz48L2c+PGcgb3BhY2l0eT0iMSI+PHBhdGggZmlsbD0ibm9uZSIgc3Ryb2tlPSIjMDAwMDAwIiBzdHJva2Utd2lkdGg9IjIiIHN0cm9rZS1saW5lY2FwPSJidXR0IiBkPSJNODEyLjMgLTIxLjEyNUw4MjQuMyAtMjEuMTI1TDgyNC4zIDAuMzc1QzgyNC4zIDAuMzc1IDgyNC4zIDYuMzc1IDgzMC4zIDYuMzc1TDg1MC4zIDYuMzc1Ii8+PC9nPjxnIG9wYWNpdHk9IjEiPjxwYXRoIGZpbGw9Im5vbmUiIHN0cm9rZT0iIzAwMDAwMCIgc3Ryb2tlLXdpZHRoPSIyIiBzdHJva2UtbGluZWNhcD0iYnV0dCIgZD0iTTg5MC4zIDg4Ljg3NUw5MDIuMyA4OC44NzVMOTAyLjMgNjcuMzc1QzkwMi4zIDY3LjM3NSA5MDIuMyA2MS4zNzUgOTA4LjMgNjEuMzc1TDkyOC4zIDYxLjM3NSIvPjwvZz48ZyBvcGFjaXR5PSIxIj48cGF0aCBmaWxsPSJub25lIiBzdHJva2U9IiMwMDAwMDAiIHN0cm9rZS13aWR0aD0iMiIgc3Ryb2tlLWxpbmVjYXA9ImJ1dHQiIGQ9Ik04OTAuMyA4OC44NzVMOTAyLjMgODguODc1TDkwMi4zIDExMC4zNzVDOTAyLjMgMTEwLjM3NSA5MDIuMyAxMTYuMzc1IDkwOC4zIDExNi4zNzVMOTI4LjMgMTE2LjM3NSIvPjwvZz48ZyBvcGFjaXR5PSIxIj48cGF0aCBmaWxsPSJub25lIiBzdHJva2U9IiMwMDAwMDAiIHN0cm9rZS13aWR0aD0iMiIgc3Ryb2tlLWxpbmVjYXA9ImJ1dHQiIGQ9Ik04MTIuMyAxOTguODc1TDgyNC4zIDE5OC44NzVMODI0LjMgMTc3LjM3NUM4MjQuMyAxNzcuMzc1IDgyNC4zIDE3MS4zNzUgODMwLjMgMTcxLjM3NUw4NTAuMyAxNzEuMzc1Ii8+PC9nPjxnIG9wYWNpdHk9IjEiPjxwYXRoIGZpbGw9Im5vbmUiIHN0cm9rZT0iIzAwMDAwMCIgc3Ryb2tlLXdpZHRoPSIyIiBzdHJva2UtbGluZWNhcD0iYnV0dCIgZD0iTTgxMi4zIDE5OC44NzVMODI0LjMgMTk4Ljg3NUw4MjQuMyAyMjAuMzc1QzgyNC4zIDIyMC4zNzUgODI0LjMgMjI2LjM3NSA4MzAuMyAyMjYuMzc1TDg1MC4zIDIyNi4zNzUiLz48L2c+PGcgb3BhY2l0eT0iMSI+PHBhdGggZmlsbD0ibm9uZSIgc3Ryb2tlPSIjMDAwMDAwIiBzdHJva2Utd2lkdGg9IjIiIHN0cm9rZS1saW5lY2FwPSJidXR0IiBkPSJNODEyLjMgMzA4Ljg3NUw4MjQuMyAzMDguODc1TDgyNC4zIDI4Ny4zNzVDODI0LjMgMjg3LjM3NSA4MjQuMyAyODEuMzc1IDgzMC4zIDI4MS4zNzVMODUwLjMgMjgxLjM3NSIvPjwvZz48ZyBvcGFjaXR5PSIxIj48cGF0aCBmaWxsPSJub25lIiBzdHJva2U9IiMwMDAwMDAiIHN0cm9rZS13aWR0aD0iMiIgc3Ryb2tlLWxpbmVjYXA9ImJ1dHQiIGQ9Ik04MTIuMyAzMDguODc1TDgyNC4zIDMwOC44NzVMODI0LjMgMzMwLjM3NUM4MjQuMyAzMzAuMzc1IDgyNC4zIDMzNi4zNzUgODMwLjMgMzM2LjM3NUw4NTAuMyAzMzYuMzc1Ii8+PC9nPjxnIG9wYWNpdHk9IjEiPjxwYXRoIGZpbGw9Im5vbmUiIHN0cm9rZT0iIzAwMDAwMCIgc3Ryb2tlLXdpZHRoPSIyIiBzdHJva2UtbGluZWNhcD0iYnV0dCIgZD0iTTgzNi4zIDM5MS4zNzVMODQ4LjMgMzkxLjM3NUw4NDguMyAzOTEuMzc1Qzg0OC4zIDM5MS4zNzUgODQ4LjMgMzkxLjM3NSA4NDguMyAzOTEuMzc1TDg3NC4zIDM5MS4zNzUiLz48L2c+PGcgb3BhY2l0eT0iMSI+PHBhdGggZmlsbD0ibm9uZSIgc3Ryb2tlPSIjMDAwMDAwIiBzdHJva2Utd2lkdGg9IjIiIHN0cm9rZS1saW5lY2FwPSJidXR0IiBkPSJNMzM1LjkgNTE2LjEyNUwzNDcuOSA1MTYuMTI1TDM0Ny45IDQ1My4zNzVDMzQ3LjkgNDUzLjM3NSAzNDcuOSA0NDcuMzc1IDM1My45IDQ0Ny4zNzVMMzczLjkgNDQ3LjM3NSIvPjwvZz48ZyBvcGFjaXR5PSIxIj48cGF0aCBmaWxsPSJub25lIiBzdHJva2U9IiMwMDAwMDAiIHN0cm9rZS13aWR0aD0iMiIgc3Ryb2tlLWxpbmVjYXA9ImJ1dHQiIGQ9Ik0zMzUuOSA1MTYuMTI1TDM0Ny45IDUxNi4xMjVMMzQ3LjkgNTA4LjM3NUMzNDcuOSA1MDguMzc1IDM0Ny45IDUwMi4zNzUgMzUzLjkgNTAyLjM3NUwzNzMuOSA1MDIuMzc1Ii8+PC9nPjxnIG9wYWNpdHk9IjEiPjxwYXRoIGZpbGw9Im5vbmUiIHN0cm9rZT0iIzAwMDAwMCIgc3Ryb2tlLXdpZHRoPSIyIiBzdHJva2UtbGluZWNhcD0iYnV0dCIgZD0iTTMzNS45IDUxNi4xMjVMMzQ3LjkgNTE2LjEyNUwzNDcuOSA1NzguODc1QzM0Ny45IDU3OC44NzUgMzQ3LjkgNTg0Ljg3NSAzNTMuOSA1ODQuODc1TDM3My45IDU4NC44NzUiLz48L2c+PGcgb3BhY2l0eT0iMSI+PHBhdGggZmlsbD0ibm9uZSIgc3Ryb2tlPSIjMDAwMDAwIiBzdHJva2Utd2lkdGg9IjIiIHN0cm9rZS1saW5lY2FwPSJidXR0IiBkPSJNNTI1LjA5OTk5OTk5OTk5OTkgNTAyLjM3NUw1MzcuMDk5OTk5OTk5OTk5OSA1MDIuMzc1TDUzNy4wOTk5OTk5OTk5OTk5IDUwMi4zNzVDNTM3LjA5OTk5OTk5OTk5OTkgNTAyLjM3NSA1MzcuMDk5OTk5OTk5OTk5OSA1MDIuMzc1IDUzNy4wOTk5OTk5OTk5OTk5IDUwMi4zNzVMNTYzLjA5OTk5OTk5OTk5OTkgNTAyLjM3NSIvPjwvZz48ZyBvcGFjaXR5PSIxIj48cGF0aCBmaWxsPSJub25lIiBzdHJva2U9IiMwMDAwMDAiIHN0cm9rZS13aWR0aD0iMiIgc3Ryb2tlLWxpbmVjYXA9ImJ1dHQiIGQ9Ik01OTcuMDk5OTk5OTk5OTk5OSA1ODQuODc1TDYwOS4wOTk5OTk5OTk5OTk5IDU4NC44NzVMNjA5LjA5OTk5OTk5OTk5OTkgNTYzLjM3NUM2MDkuMDk5OTk5OTk5OTk5OSA1NjMuMzc1IDYwOS4wOTk5OTk5OTk5OTk5IDU1Ny4zNzUgNjE1LjA5OTk5OTk5OTk5OTkgNTU3LjM3NUw2MzUuMDk5OTk5OTk5OTk5OSA1NTcuMzc1Ii8+PC9nPjxnIG9wYWNpdHk9IjEiPjxwYXRoIGZpbGw9Im5vbmUiIHN0cm9rZT0iIzAwMDAwMCIgc3Ryb2tlLXdpZHRoPSIyIiBzdHJva2UtbGluZWNhcD0iYnV0dCIgZD0iTTU5Ny4wOTk5OTk5OTk5OTk5IDU4NC44NzVMNjA5LjA5OTk5OTk5OTk5OTkgNTg0Ljg3NUw2MDkuMDk5OTk5OTk5OTk5OSA2MDYuMzc1QzYwOS4wOTk5OTk5OTk5OTk5IDYwNi4zNzUgNjA5LjA5OTk5OTk5OTk5OTkgNjEyLjM3NSA2MTUuMDk5OTk5OTk5OTk5OSA2MTIuMzc1TDYzNS4wOTk5OTk5OTk5OTk5IDYxMi4zNzUiLz48L2c+PGcgb3BhY2l0eT0iMSI+PHBhdGggZmlsbD0ibm9uZSIgc3Ryb2tlPSIjMDAwMDAwIiBzdHJva2Utd2lkdGg9IjIiIHN0cm9rZS1saW5lY2FwPSJidXR0IiBkPSJNNzYyLjMgNjEyLjM3NUw3NzQuMyA2MTIuMzc1TDc3NC4zIDYxMi4zNzVDNzc0LjMgNjEyLjM3NSA3NzQuMyA2MTIuMzc1IDc3NC4zIDYxMi4zNzVMODAwLjMgNjEyLjM3NSIvPjwvZz48ZyBvcGFjaXR5PSIxIj48cGF0aCBmaWxsPSJub25lIiBzdHJva2U9IiMwMDAwMDAiIHN0cm9rZS13aWR0aD0iMiIgc3Ryb2tlLWxpbmVjYXA9ImJ1dHQiIGQ9Ik0zNDkuOSAtNTE2LjEyNUwzNjEuOSAtNTE2LjEyNUwzNjEuOSAtOTIyLjYyNUMzNjEuOSAtOTIyLjYyNSAzNjEuOSAtOTI4LjYyNSAzNjcuOSAtOTI4LjYyNUwzODcuOSAtOTI4LjYyNSIvPjwvZz48ZyBvcGFjaXR5PSIxIj48cGF0aCBmaWxsPSJub25lIiBzdHJva2U9IiMwMDAwMDAiIHN0cm9rZS13aWR0aD0iMiIgc3Ryb2tlLWxpbmVjYXA9ImJ1dHQiIGQ9Ik0zNDkuOSAtNTE2LjEyNUwzNjEuOSAtNTE2LjEyNUwzNjEuOSAtNzU3LjYyNUMzNjEuOSAtNzU3LjYyNSAzNjEuOSAtNzYzLjYyNSAzNjcuOSAtNzYzLjYyNUwzODcuOSAtNzYzLjYyNSIvPjwvZz48ZyBvcGFjaXR5PSIxIj48cGF0aCBmaWxsPSJub25lIiBzdHJva2U9IiMwMDAwMDAiIHN0cm9rZS13aWR0aD0iMiIgc3Ryb2tlLWxpbmVjYXA9ImJ1dHQiIGQ9Ik01NjMuMDk5OTk5OTk5OTk5OSAtNzYzLjYyNUw1NzUuMDk5OTk5OTk5OTk5OSAtNzYzLjYyNUw1NzUuMDk5OTk5OTk5OTk5OSAtODY3LjYyNUM1NzUuMDk5OTk5OTk5OTk5OSAtODY3LjYyNSA1NzUuMDk5OTk5OTk5OTk5OSAtODczLjYyNSA1ODEuMDk5OTk5OTk5OTk5OSAtODczLjYyNUw2MDEuMDk5OTk5OTk5OTk5OSAtODczLjYyNSIvPjwvZz48ZyBvcGFjaXR5PSIxIj48cGF0aCBmaWxsPSJub25lIiBzdHJva2U9IiMwMDAwMDAiIHN0cm9rZS13aWR0aD0iMiIgc3Ryb2tlLWxpbmVjYXA9ImJ1dHQiIGQ9Ik01NjMuMDk5OTk5OTk5OTk5OSAtNzYzLjYyNUw1NzUuMDk5OTk5OTk5OTk5OSAtNzYzLjYyNUw1NzUuMDk5OTk5OTk5OTk5OSAtODEyLjYyNUM1NzUuMDk5OTk5OTk5OTk5OSAtODEyLjYyNSA1NzUuMDk5OTk5OTk5OTk5OSAtODE4LjYyNSA1ODEuMDk5OTk5OTk5OTk5OSAtODE4LjYyNUw2MDEuMDk5OTk5OTk5OTk5OSAtODE4LjYyNSIvPjwvZz48ZyBvcGFjaXR5PSIxIj48cGF0aCBmaWxsPSJub25lIiBzdHJva2U9IiMwMDAwMDAiIHN0cm9rZS13aWR0aD0iMiIgc3Ryb2tlLWxpbmVjYXA9ImJ1dHQiIGQ9Ik01NjMuMDk5OTk5OTk5OTk5OSAtNzYzLjYyNUw1NzUuMDk5OTk5OTk5OTk5OSAtNzYzLjYyNUw1NzUuMDk5OTk5OTk5OTk5OSAtNzYzLjYyNUM1NzUuMDk5OTk5OTk5OTk5OSAtNzYzLjYyNSA1NzUuMDk5OTk5OTk5OTk5OSAtNzYzLjYyNSA1NzUuMDk5OTk5OTk5OTk5OSAtNzYzLjYyNUw2MDEuMDk5OTk5OTk5OTk5OSAtNzYzLjYyNSIvPjwvZz48ZyBvcGFjaXR5PSIxIj48cGF0aCBmaWxsPSJub25lIiBzdHJva2U9IiMwMDAwMDAiIHN0cm9rZS13aWR0aD0iMiIgc3Ryb2tlLWxpbmVjYXA9ImJ1dHQiIGQ9Ik01NjMuMDk5OTk5OTk5OTk5OSAtNzYzLjYyNUw1NzUuMDk5OTk5OTk5OTk5OSAtNzYzLjYyNUw1NzUuMDk5OTk5OTk5OTk5OSAtNzE0LjYyNUM1NzUuMDk5OTk5OTk5OTk5OSAtNzE0LjYyNSA1NzUuMDk5OTk5OTk5OTk5OSAtNzA4LjYyNSA1ODEuMDk5OTk5OTk5OTk5OSAtNzA4LjYyNUw2MDEuMDk5OTk5OTk5OTk5OSAtNzA4LjYyNSIvPjwvZz48ZyBvcGFjaXR5PSIxIj48cGF0aCBmaWxsPSJub25lIiBzdHJva2U9IiMwMDAwMDAiIHN0cm9rZS13aWR0aD0iMiIgc3Ryb2tlLWxpbmVjYXA9ImJ1dHQiIGQ9Ik01NjMuMDk5OTk5OTk5OTk5OSAtNzYzLjYyNUw1NzUuMDk5OTk5OTk5OTk5OSAtNzYzLjYyNUw1NzUuMDk5OTk5OTk5OTk5OSAtNjU5LjYyNUM1NzUuMDk5OTk5OTk5OTk5OSAtNjU5LjYyNSA1NzUuMDk5OTk5OTk5OTk5OSAtNjUzLjYyNSA1ODEuMDk5OTk5OTk5OTk5OSAtNjUzLjYyNUw2MDEuMDk5OTk5OTk5OTk5OSAtNjUzLjYyNSIvPjwvZz48ZyBvcGFjaXR5PSIxIj48cGF0aCBmaWxsPSJub25lIiBzdHJva2U9IiMwMDAwMDAiIHN0cm9rZS13aWR0aD0iMiIgc3Ryb2tlLWxpbmVjYXA9ImJ1dHQiIGQ9Ik03NTIuMyAtNzYzLjYyNUw3NjQuMyAtNzYzLjYyNUw3NjQuMyAtNzYzLjYyNUM3NjQuMyAtNzYzLjYyNSA3NjQuMyAtNzYzLjYyNSA3NjQuMyAtNzYzLjYyNUw3OTAuMyAtNzYzLjYyNSIvPjwvZz48ZyBvcGFjaXR5PSIxIj48cGF0aCBmaWxsPSJub25lIiBzdHJva2U9IiMwMDAwMDAiIHN0cm9rZS13aWR0aD0iMiIgc3Ryb2tlLWxpbmVjYXA9ImJ1dHQiIGQ9Ik03MjguMyAtNzA4LjYyNUw3NDAuMyAtNzA4LjYyNUw3NDAuMyAtNzA4LjYyNUM3NDAuMyAtNzA4LjYyNSA3NDAuMyAtNzA4LjYyNSA3NDAuMyAtNzA4LjYyNUw3NjYuMyAtNzA4LjYyNSIvPjwvZz48ZyBvcGFjaXR5PSIxIj48cGF0aCBmaWxsPSJub25lIiBzdHJva2U9IiMwMDAwMDAiIHN0cm9rZS13aWR0aD0iMiIgc3Ryb2tlLWxpbmVjYXA9ImJ1dHQiIGQ9Ik03MjguMyAtNjUzLjYyNUw3NDAuMyAtNjUzLjYyNUw3NDAuMyAtNjUzLjYyNUM3NDAuMyAtNjUzLjYyNSA3NDAuMyAtNjUzLjYyNSA3NDAuMyAtNjUzLjYyNUw3NjYuMyAtNjUzLjYyNSIvPjwvZz48ZyBvcGFjaXR5PSIxIj48cGF0aCBmaWxsPSJub25lIiBzdHJva2U9IiMwMDAwMDAiIHN0cm9rZS13aWR0aD0iMiIgc3Ryb2tlLWxpbmVjYXA9ImJ1dHQiIGQ9Ik04MzYuMyAtNTE2LjEyNUw4NDguMyAtNTE2LjEyNUw4NDguMyAtNTM3LjYyNUM4NDguMyAtNTM3LjYyNSA4NDguMyAtNTQzLjYyNSA4NTQuMyAtNTQzLjYyNUw4NzQuMyAtNTQzLjYyNSIvPjwvZz48ZyBvcGFjaXR5PSIxIj48cGF0aCBmaWxsPSJub25lIiBzdHJva2U9IiMwMDAwMDAiIHN0cm9rZS13aWR0aD0iMiIgc3Ryb2tlLWxpbmVjYXA9ImJ1dHQiIGQ9Ik04MzYuMyAtNTE2LjEyNUw4NDguMyAtNTE2LjEyNUw4NDguMyAtNDk0LjYyNUM4NDguMyAtNDk0LjYyNSA4NDguMyAtNDg4LjYyNSA4NTQuMyAtNDg4LjYyNUw4NzQuMyAtNDg4LjYyNSIvPjwvZz48ZyBvcGFjaXR5PSIxIj48cGF0aCBmaWxsPSJub25lIiBzdHJva2U9IiMwMDAwMDAiIHN0cm9rZS13aWR0aD0iMiIgc3Ryb2tlLWxpbmVjYXA9ImJ1dHQiIGQ9Ik04MzYuMyAtNDA2LjEyNUw4NDguMyAtNDA2LjEyNUw4NDguMyAtNDI3LjYyNUM4NDguMyAtNDI3LjYyNSA4NDguMyAtNDMzLjYyNSA4NTQuMyAtNDMzLjYyNUw4NzQuMyAtNDMzLjYyNSIvPjwvZz48ZyBvcGFjaXR5PSIxIj48cGF0aCBmaWxsPSJub25lIiBzdHJva2U9IiMwMDAwMDAiIHN0cm9rZS13aWR0aD0iMiIgc3Ryb2tlLWxpbmVjYXA9ImJ1dHQiIGQ9Ik04MzYuMyAtNDA2LjEyNUw4NDguMyAtNDA2LjEyNUw4NDguMyAtMzg0LjYyNUM4NDguMyAtMzg0LjYyNSA4NDguMyAtMzc4LjYyNSA4NTQuMyAtMzc4LjYyNUw4NzQuMyAtMzc4LjYyNSIvPjwvZz48ZyBvcGFjaXR5PSIxIj48cGF0aCBmaWxsPSJub25lIiBzdHJva2U9IiMwMDAwMDAiIHN0cm9rZS13aWR0aD0iMiIgc3Ryb2tlLWxpbmVjYXA9ImJ1dHQiIGQ9Ik01NjMuMDk5OTk5OTk5OTk5OSAtOTI4LjYyNUw1NzUuMDk5OTk5OTk5OTk5OSAtOTI4LjYyNUw1NzUuMDk5OTk5OTk5OTk5OSAtOTI4LjYyNUM1NzUuMDk5OTk5OTk5OTk5OSAtOTI4LjYyNSA1NzUuMDk5OTk5OTk5OTk5OSAtOTI4LjYyNSA1NzUuMDk5OTk5OTk5OTk5OSAtOTI4LjYyNUw2MDEuMDk5OTk5OTk5OTk5OSAtOTI4LjYyNSIvPjwvZz48ZyBvcGFjaXR5PSIxIj48cGF0aCBmaWxsPSJub25lIiBzdHJva2U9IiMwMDAwMDAiIHN0cm9rZS13aWR0aD0iMiIgc3Ryb2tlLWxpbmVjYXA9ImJ1dHQiIGQ9Ik03OTQuMyAtODE4LjYyNUw4MDYuMyAtODE4LjYyNUw4MDYuMyAtODE4LjYyNUM4MDYuMyAtODE4LjYyNSA4MDYuMyAtODE4LjYyNSA4MDYuMyAtODE4LjYyNUw4MzIuMyAtODE4LjYyNSIvPjwvZz48L2c+PGcgY2xhc3M9InBvLW1pbmQtZ2VuZXJhbGl6ZS1jb250YWluZXIiLz48ZyBjbGFzcz0icG8tbWluZC1hc3NvY2lhdGl2ZS1saW5lLWNvbnRhaW5lciIvPjxnIGNsYXNzPSJwby1taW5kLW5vZGUtY29udGFpbmVyIj48ZyBvcGFjaXR5PSIxIiB0cmFuc2Zvcm09Im1hdHJpeCgxLDAsMCwxLC0xMTEuNSwtMzApIiBpZD0idG9waWMtcm9vdCIgY2xhc3M9InBvLW1pbmQtdG9waWMiPjxwYXRoIGZpbGw9IiMwMDAwMDAiIHRyYW5zZm9ybT0ibWF0cml4KDEsMCwwLDEsMCwwKSIgY2xhc3M9InBvLW1pbmQtdG9waWMtc2hhcGUtZmlsbCIgZD0iTTMwLDAgTDE5MywwIEMxOTMsMCAyMjMsMCAyMjMsMzAgTDIyMywzMCBDMjIzLDMwIDIyMyw2MCAxOTMsNjAmIzEwOyAgICAgIEwzMCw2MCBDMzAsNjAgMCw2MCAwLDMwIEwwLDMwIEMwLDMwIDAsMCAzMCwwWiIvPjxwYXRoIHN0cm9rZS13aWR0aD0iMCIgZmlsbD0ibm9uZSIgdHJhbnNmb3JtPSJtYXRyaXgoMSwwLDAsMSwwLDApIiBjbGFzcz0icG8tbWluZC10b3BpYy1zaGFwZSIgZD0iTTMwLDAgTDE5MywwIEMxOTMsMCAyMjMsMCAyMjMsMzAgTDIyMywzMCBDMjIzLDMwIDIyMyw2MCAxOTMsNjAmIzEwOyAgICAgIEwzMCw2MCBDMzAsNjAgMCw2MCAwLDMwIEwwLDMwIEMwLDMwIDAsMCAzMCwwWiIvPjxnIHRyYW5zZm9ybT0ibWF0cml4KDEsMCwwLDEsNjAsMTYpIj48ZyB0cmFuc2Zvcm09Im1hdHJpeCgxLDAsMCwxLDAsMCkiIGRhdGEtb2Zmc2V0eD0iMCIgZGF0YS1oZWlnaHQ9IjI4IiBkYXRhLXdpZHRoPSIxMDMiPjxnPjx0ZXh0IHN0eWxlPSJmb250LWZhbWlseTog5b6u6L2v6ZuF6buRO2ZvbnQtc2l6ZTogMjBweDtmb250LXdlaWdodDogbm9ybWFsO2ZvbnQtc3R5bGU6IG5vcm1hbDtsaW5lLWhlaWdodDogMTQwJTttYXgtd2lkdGg6IDkwMHB4O292ZXJmbG93LXdyYXA6IGJyZWFrLXdvcmQ7d29yZC1icmVhazogYnJlYWstd29yZDt0ZXh0LXNpemUtYWRqdXN0OiAxMDAlO2NvbG9yOiByZ2IoMjU1LCAyNTUsIDI1NSk7IiBmaWxsPSJyZ2IoMjU1LCAyNTUsIDI1NSkiIGZvbnQtd2VpZ2h0PSJub3JtYWwiIGZvbnQtc2l6ZT0iMjBweCIgYWxpZ249InRvcCIgdGV4dC1hbmNob3I9InN0YXJ0Ij48dHNwYW4geT0iMjAiIHg9IjAiPjx0c3BhbiBkeD0iMCI+6YCa6K6v5b2V566h55CGPC90c3Bhbj48L3RzcGFuPjwvdGV4dD48L2c+PC9nPjwvZz48Zz48cmVjdCBzdHlsZT0iY3Vyc29yOiBldy1yZXNpemU7IiBmaWxsPSJub25lIiB5PSIwIiB4PSItMyIgaGVpZ2h0PSI2MCIgd2lkdGg9IjQiLz48cmVjdCBzdHlsZT0iY3Vyc29yOiBldy1yZXNpemU7IiBmaWxsPSJub25lIiB5PSIwIiB4PSIyMjQiIGhlaWdodD0iNjAiIHdpZHRoPSI0Ii8+PC9nPjwvZz48ZyBvcGFjaXR5PSIxIiB0cmFuc2Zvcm09Im1hdHJpeCgxLDAsMCwxLDE2Ni41LC01MzcuNjI1KSIgaWQ9InRvcGljLWMxYmFkMjViNGI2ZGI3ZGYiIGNsYXNzPSJwby1taW5kLXRvcGljIj48cGF0aCBmaWxsPSIjZmZmZmZmIiB0cmFuc2Zvcm09Im1hdHJpeCgxLDAsMCwxLDAuNSwwLjUpIiBjbGFzcz0icG8tbWluZC10b3BpYy1zaGFwZS1maWxsIiBkPSJNMjEsMCBMMTYxLjQsMCBDMTYxLjQsMCAxODIuNCwwIDE4Mi40LDIxIEwxODIuNCwyMSBDMTgyLjQsMjEgMTgyLjQsNDIgMTYxLjQsNDImIzEwOyAgICAgIEwyMSw0MiBDMjEsNDIgMCw0MiAwLDIxIEwwLDIxIEMwLDIxIDAsMCAyMSwwWiIvPjxwYXRoIHN0cm9rZT0iIzAwMDAwMCIgc3Ryb2tlLXdpZHRoPSIxIiBmaWxsPSJub25lIiB0cmFuc2Zvcm09Im1hdHJpeCgxLDAsMCwxLDAuNSwwLjUpIiBjbGFzcz0icG8tbWluZC10b3BpYy1zaGFwZSIgZD0iTTIxLDAgTDE2MS40LDAgQzE2MS40LDAgMTgyLjQsMCAxODIuNCwyMSBMMTgyLjQsMjEgQzE4Mi40LDIxIDE4Mi40LDQyIDE2MS40LDQyJiMxMDsgICAgICBMMjEsNDIgQzIxLDQyIDAsNDIgMCwyMSBMMCwyMSBDMCwyMSAwLDAgMjEsMFoiLz48ZyB0cmFuc2Zvcm09Im1hdHJpeCgxLDAsMCwxLDU1LjUsMTEuNSkiPjxnIHRyYW5zZm9ybT0ibWF0cml4KDEsMCwwLDEsMCwwKSIgZGF0YS1vZmZzZXR4PSIwIiBkYXRhLWhlaWdodD0iMjAiIGRhdGEtd2lkdGg9IjcyLjQiPjxnPjx0ZXh0IHN0eWxlPSJmb250LWZhbWlseTog5b6u6L2v6ZuF6buRO2ZvbnQtc2l6ZTogMTRweDtmb250LXdlaWdodDogbm9ybWFsO2ZvbnQtc3R5bGU6IG5vcm1hbDtsaW5lLWhlaWdodDogMTQwJTttYXgtd2lkdGg6IDg5NnB4O292ZXJmbG93LXdyYXA6IGJyZWFrLXdvcmQ7d29yZC1icmVhazogYnJlYWstd29yZDt0ZXh0LXNpemUtYWRqdXN0OiAxMDAlO2NvbG9yOiByZ2IoMCwgMCwgMCk7IiBmaWxsPSJyZ2IoMCwgMCwgMCkiIGZvbnQtd2VpZ2h0PSJub3JtYWwiIGZvbnQtc2l6ZT0iMTRweCIgYWxpZ249InRvcCIgdGV4dC1hbmNob3I9InN0YXJ0Ij48dHNwYW4geT0iMTMuOTk5OTk5OTk5OTk5OTk2IiB4PSIwIj48dHNwYW4gZHg9IjAiPumAmuiur+W9leeuoeeQhjwvdHNwYW4+PC90c3Bhbj48L3RleHQ+PC9nPjwvZz48L2c+PC9nPjxnIHRyYW5zZm9ybT0ibWF0cml4KDEsMCwwLDEsMzg3LjksLTk0MS42MjUpIiBpZD0idG9waWMtNWY0Zjk2Y2QtOTk1Yi00OTkwLTljMmUtYjQwZGZiMTU5OTNiIiBjbGFzcz0icG8tbWluZC10b3BpYyI+PHBhdGggZmlsbD0iI2YyZjJmMiIgdHJhbnNmb3JtPSJtYXRyaXgoMSwwLDAsMSwwLjUsMC41KSIgY2xhc3M9InBvLW1pbmQtdG9waWMtc2hhcGUtZmlsbCIgZD0iTTYsMCBMMTY4LjIsMCBDMTY4LjIsMCAxNzQuMiwwIDE3NC4yLDYgTDE3NC4yLDE5IEMxNzQuMiwxOSAxNzQuMiwyNSAxNjguMiwyNSYjMTA7ICAgICAgTDYsMjUgQzYsMjUgMCwyNSAwLDE5IEwwLDYgQzAsNiAwLDAgNiwwWiIvPjxwYXRoIHN0cm9rZT0iIzYxNjE2MSIgc3Ryb2tlLXdpZHRoPSIxIiBmaWxsPSJub25lIiB0cmFuc2Zvcm09Im1hdHJpeCgxLDAsMCwxLDAuNSwwLjUpIiBjbGFzcz0icG8tbWluZC10b3BpYy1zaGFwZSIgZD0iTTYsMCBMMTY4LjIsMCBDMTY4LjIsMCAxNzQuMiwwIDE3NC4yLDYgTDE3NC4yLDE5IEMxNzQuMiwxOSAxNzQuMiwyNSAxNjguMiwyNSYjMTA7ICAgICAgTDYsMjUgQzYsMjUgMCwyNSAwLDE5IEwwLDYgQzAsNiAwLDAgNiwwWiIvPjxnIHRyYW5zZm9ybT0ibWF0cml4KDEsMCwwLDEsNTAuNSw0LjUpIj48ZyB0cmFuc2Zvcm09Im1hdHJpeCgxLDAsMCwxLDAsMCkiIGRhdGEtb2Zmc2V0eD0iMCIgZGF0YS1oZWlnaHQ9IjE3IiBkYXRhLXdpZHRoPSI3NC4yIj48Zz48dGV4dCBzdHlsZT0iZm9udC1mYW1pbHk6IOW+rui9r+mbhem7kTtmb250LXNpemU6IDEycHg7Zm9udC13ZWlnaHQ6IG5vcm1hbDtmb250LXN0eWxlOiBub3JtYWw7bGluZS1oZWlnaHQ6IDE0MCU7bWF4LXdpZHRoOiA5MDBweDtvdmVyZmxvdy13cmFwOiBicmVhay13b3JkO3dvcmQtYnJlYWs6IGJyZWFrLXdvcmQ7dGV4dC1zaXplLWFkanVzdDogMTAwJTtjb2xvcjogcmdiKDAsIDAsIDApOyIgZmlsbD0icmdiKDAsIDAsIDApIiBmb250LXdlaWdodD0ibm9ybWFsIiBmb250LXNpemU9IjEycHgiIGFsaWduPSJ0b3AiIHRleHQtYW5jaG9yPSJzdGFydCI+PHRzcGFuIHk9IjExLjE1OTk5OTk5OTk5OTk5NyIgeD0iMCI+PHRzcGFuIGR4PSIwIj7pg6jpl6jmnYPpmZDmlbDph488L3RzcGFuPjwvdHNwYW4+PC90ZXh0PjwvZz48L2c+PC9nPjwvZz48ZyB0cmFuc2Zvcm09Im1hdHJpeCgxLDAsMCwxLDYwMS4wOTk5OTk5OTk5OTk5LC05NDEuNjI1KSIgaWQ9InRvcGljLTBhNThkZWE3LWM1ZGEtNGFmNi1iZGRhLTViZTZkMzY1MTdmOSIgY2xhc3M9InBvLW1pbmQtdG9waWMiPjxwYXRoIGZpbGw9IiNmMmYyZjIiIHRyYW5zZm9ybT0ibWF0cml4KDEsMCwwLDEsMC41LDAuNSkiIGNsYXNzPSJwby1taW5kLXRvcGljLXNoYXBlLWZpbGwiIGQ9Ik02LDAgTDIyNi4yLDAgQzIyNi4yLDAgMjMyLjIsMCAyMzIuMiw2IEwyMzIuMiwxOSBDMjMyLjIsMTkgMjMyLjIsMjUgMjI2LjIsMjUmIzEwOyAgICAgIEw2LDI1IEM2LDI1IDAsMjUgMCwxOSBMMCw2IEMwLDYgMCwwIDYsMFoiLz48cGF0aCBzdHJva2U9IiM2MTYxNjEiIHN0cm9rZS13aWR0aD0iMSIgZmlsbD0ibm9uZSIgdHJhbnNmb3JtPSJtYXRyaXgoMSwwLDAsMSwwLjUsMC41KSIgY2xhc3M9InBvLW1pbmQtdG9waWMtc2hhcGUiIGQ9Ik02LDAgTDIyNi4yLDAgQzIyNi4yLDAgMjMyLjIsMCAyMzIuMiw2IEwyMzIuMiwxOSBDMjMyLjIsMTkgMjMyLjIsMjUgMjI2LjIsMjUmIzEwOyAgICAgIEw2LDI1IEM2LDI1IDAsMjUgMCwxOSBMMCw2IEMwLDYgMCwwIDYsMFoiLz48ZyB0cmFuc2Zvcm09Im1hdHJpeCgxLDAsMCwxLDUwLjUsNC41KSI+PGcgdHJhbnNmb3JtPSJtYXRyaXgoMSwwLDAsMSwwLDApIiBkYXRhLW9mZnNldHg9IjAiIGRhdGEtaGVpZ2h0PSIxNyIgZGF0YS13aWR0aD0iMTMyLjIiPjxnPjx0ZXh0IHN0eWxlPSJmb250LWZhbWlseTog5b6u6L2v6ZuF6buRO2ZvbnQtc2l6ZTogMTJweDtmb250LXdlaWdodDogbm9ybWFsO2ZvbnQtc3R5bGU6IG5vcm1hbDtsaW5lLWhlaWdodDogMTQwJTttYXgtd2lkdGg6IDkwMHB4O292ZXJmbG93LXdyYXA6IGJyZWFrLXdvcmQ7d29yZC1icmVhazogYnJlYWstd29yZDt0ZXh0LXNpemUtYWRqdXN0OiAxMDAlO2NvbG9yOiByZ2IoMCwgMCwgMCk7IiBmaWxsPSJyZ2IoMCwgMCwgMCkiIGZvbnQtd2VpZ2h0PSJub3JtYWwiIGZvbnQtc2l6ZT0iMTJweCIgYWxpZ249InRvcCIgdGV4dC1hbmNob3I9InN0YXJ0Ij48dHNwYW4geT0iMTEuMTU5OTk5OTk5OTk5OTk3IiB4PSIwIj48dHNwYW4gZHg9IjAiPuaOpeWPo++8mi93ZnVzZXIvYWNjb3VudDwvdHNwYW4+PC90c3Bhbj48L3RleHQ+PC9nPjwvZz48L2c+PC9nPjxnIG9wYWNpdHk9IjEiIHRyYW5zZm9ybT0ibWF0cml4KDEsMCwwLDEsMzg3LjksLTc3Ni42MjUpIiBpZD0idG9waWMtYmI2MzZkZmUtOTY5MS00ZmZlLTg1YjgtZmU5NjU5MjM4Njg2IiBjbGFzcz0icG8tbWluZC10b3BpYyI+PHBhdGggZmlsbD0iI2YyZjJmMiIgdHJhbnNmb3JtPSJtYXRyaXgoMSwwLDAsMSwwLjUsMC41KSIgY2xhc3M9InBvLW1pbmQtdG9waWMtc2hhcGUtZmlsbCIgZD0iTTYsMCBMMTY4LjIsMCBDMTY4LjIsMCAxNzQuMiwwIDE3NC4yLDYgTDE3NC4yLDE5IEMxNzQuMiwxOSAxNzQuMiwyNSAxNjguMiwyNSYjMTA7ICAgICAgTDYsMjUgQzYsMjUgMCwyNSAwLDE5IEwwLDYgQzAsNiAwLDAgNiwwWiIvPjxwYXRoIHN0cm9rZT0iIzYxNjE2MSIgc3Ryb2tlLXdpZHRoPSIxIiBmaWxsPSJub25lIiB0cmFuc2Zvcm09Im1hdHJpeCgxLDAsMCwxLDAuNSwwLjUpIiBjbGFzcz0icG8tbWluZC10b3BpYy1zaGFwZSIgZD0iTTYsMCBMMTY4LjIsMCBDMTY4LjIsMCAxNzQuMiwwIDE3NC4yLDYgTDE3NC4yLDE5IEMxNzQuMiwxOSAxNzQuMiwyNSAxNjguMiwyNSYjMTA7ICAgICAgTDYsMjUgQzYsMjUgMCwyNSAwLDE5IEwwLDYgQzAsNiAwLDAgNiwwWiIvPjxnIHRyYW5zZm9ybT0ibWF0cml4KDEsMCwwLDEsNTAuNSw0LjUpIj48ZyB0cmFuc2Zvcm09Im1hdHJpeCgxLDAsMCwxLDAsMCkiIGRhdGEtb2Zmc2V0eD0iMCIgZGF0YS1oZWlnaHQ9IjE3IiBkYXRhLXdpZHRoPSI3NC4yIj48Zz48dGV4dCBzdHlsZT0iZm9udC1mYW1pbHk6IOW+rui9r+mbhem7kTtmb250LXNpemU6IDEycHg7Zm9udC13ZWlnaHQ6IG5vcm1hbDtmb250LXN0eWxlOiBub3JtYWw7bGluZS1oZWlnaHQ6IDE0MCU7bWF4LXdpZHRoOiA5MDBweDtvdmVyZmxvdy13cmFwOiBicmVhay13b3JkO3dvcmQtYnJlYWs6IGJyZWFrLXdvcmQ7dGV4dC1zaXplLWFkanVzdDogMTAwJTtjb2xvcjogcmdiKDAsIDAsIDApOyIgZmlsbD0icmdiKDAsIDAsIDApIiBmb250LXdlaWdodD0ibm9ybWFsIiBmb250LXNpemU9IjEycHgiIGFsaWduPSJ0b3AiIHRleHQtYW5jaG9yPSJzdGFydCI+PHRzcGFuIHk9IjExLjE1OTk5OTk5OTk5OTk5NyIgeD0iMCI+PHRzcGFuIGR4PSIwIj7ojrflj5bnu4Tnu4fmnrbmnoQ8L3RzcGFuPjwvdHNwYW4+PC90ZXh0PjwvZz48L2c+PC9nPjwvZz48ZyB0cmFuc2Zvcm09Im1hdHJpeCgxLDAsMCwxLDYwMS4wOTk5OTk5OTk5OTk5LC04ODYuNjI1KSIgaWQ9InRvcGljLTliNGEyOGFjLWM1YWUtNDk5MC1iZTNjLWE2NzVmOWQ1MzkwMSIgY2xhc3M9InBvLW1pbmQtdG9waWMiPjxwYXRoIGZpbGw9IiNmMmYyZjIiIHRyYW5zZm9ybT0ibWF0cml4KDEsMCwwLDEsMC41LDAuNSkiIGNsYXNzPSJwby1taW5kLXRvcGljLXNoYXBlLWZpbGwiIGQ9Ik02LDAgTDIxOC4yLDAgQzIxOC4yLDAgMjI0LjIsMCAyMjQuMiw2IEwyMjQuMiwxOSBDMjI0LjIsMTkgMjI0LjIsMjUgMjE4LjIsMjUmIzEwOyAgICAgIEw2LDI1IEM2LDI1IDAsMjUgMCwxOSBMMCw2IEMwLDYgMCwwIDYsMFoiLz48cGF0aCBzdHJva2U9IiM2MTYxNjEiIHN0cm9rZS13aWR0aD0iMSIgZmlsbD0ibm9uZSIgdHJhbnNmb3JtPSJtYXRyaXgoMSwwLDAsMSwwLjUsMC41KSIgY2xhc3M9InBvLW1pbmQtdG9waWMtc2hhcGUiIGQ9Ik02LDAgTDIxOC4yLDAgQzIxOC4yLDAgMjI0LjIsMCAyMjQuMiw2IEwyMjQuMiwxOSBDMjI0LjIsMTkgMjI0LjIsMjUgMjE4LjIsMjUmIzEwOyAgICAgIEw2LDI1IEM2LDI1IDAsMjUgMCwxOSBMMCw2IEMwLDYgMCwwIDYsMFoiLz48ZyB0cmFuc2Zvcm09Im1hdHJpeCgxLDAsMCwxLDUwLjUsNC41KSI+PGcgdHJhbnNmb3JtPSJtYXRyaXgoMSwwLDAsMSwwLDApIiBkYXRhLW9mZnNldHg9IjAiIGRhdGEtaGVpZ2h0PSIxNyIgZGF0YS13aWR0aD0iMTI0LjIiPjxnPjx0ZXh0IHN0eWxlPSJmb250LWZhbWlseTog5b6u6L2v6ZuF6buRO2ZvbnQtc2l6ZTogMTJweDtmb250LXdlaWdodDogbm9ybWFsO2ZvbnQtc3R5bGU6IG5vcm1hbDtsaW5lLWhlaWdodDogMTQwJTttYXgtd2lkdGg6IDkwMHB4O292ZXJmbG93LXdyYXA6IGJyZWFrLXdvcmQ7d29yZC1icmVhazogYnJlYWstd29yZDt0ZXh0LXNpemUtYWRqdXN0OiAxMDAlO2NvbG9yOiByZ2IoMCwgMCwgMCk7IiBmaWxsPSJyZ2IoMCwgMCwgMCkiIGZvbnQtd2VpZ2h0PSJub3JtYWwiIGZvbnQtc2l6ZT0iMTJweCIgYWxpZ249InRvcCIgdGV4dC1hbmNob3I9InN0YXJ0Ij48dHNwYW4geT0iMTEuMTU5OTk5OTk5OTk5OTk3IiB4PSIwIj48dHNwYW4gZHg9IjAiPuaOpeWPo++8mi9wYXJ0eS9sYXp5VHJlZTwvdHNwYW4+PC90c3Bhbj48L3RleHQ+PC9nPjwvZz48L2c+PC9nPjxnIHRyYW5zZm9ybT0ibWF0cml4KDEsMCwwLDEsNjAxLjA5OTk5OTk5OTk5OTksLTgzMS42MjUpIiBpZD0idG9waWMtMjIxMDg3OWItZjYzMC00ZmU3LTk3ZDItZjk3YWY4ODhlNDMwIiBjbGFzcz0icG8tbWluZC10b3BpYyI+PHBhdGggZmlsbD0iI2YyZjJmMiIgdHJhbnNmb3JtPSJtYXRyaXgoMSwwLDAsMSwwLjUsMC41KSIgY2xhc3M9InBvLW1pbmQtdG9waWMtc2hhcGUtZmlsbCIgZD0iTTYsMCBMMTg2LjIsMCBDMTg2LjIsMCAxOTIuMiwwIDE5Mi4yLDYgTDE5Mi4yLDE5IEMxOTIuMiwxOSAxOTIuMiwyNSAxODYuMiwyNSYjMTA7ICAgICAgTDYsMjUgQzYsMjUgMCwyNSAwLDE5IEwwLDYgQzAsNiAwLDAgNiwwWiIvPjxwYXRoIHN0cm9rZT0iIzYxNjE2MSIgc3Ryb2tlLXdpZHRoPSIxIiBmaWxsPSJub25lIiB0cmFuc2Zvcm09Im1hdHJpeCgxLDAsMCwxLDAuNSwwLjUpIiBjbGFzcz0icG8tbWluZC10b3BpYy1zaGFwZSIgZD0iTTYsMCBMMTg2LjIsMCBDMTg2LjIsMCAxOTIuMiwwIDE5Mi4yLDYgTDE5Mi4yLDE5IEMxOTIuMiwxOSAxOTIuMiwyNSAxODYuMiwyNSYjMTA7ICAgICAgTDYsMjUgQzYsMjUgMCwyNSAwLDE5IEwwLDYgQzAsNiAwLDAgNiwwWiIvPjxnIHRyYW5zZm9ybT0ibWF0cml4KDEsMCwwLDEsNTAuNSw0LjUpIj48ZyB0cmFuc2Zvcm09Im1hdHJpeCgxLDAsMCwxLDAsMCkiIGRhdGEtb2Zmc2V0eD0iMCIgZGF0YS1oZWlnaHQ9IjE3IiBkYXRhLXdpZHRoPSI5Mi4yIj48Zz48dGV4dCBzdHlsZT0iZm9udC1mYW1pbHk6IOW+rui9r+mbhem7kTtmb250LXNpemU6IDEycHg7Zm9udC13ZWlnaHQ6IG5vcm1hbDtmb250LXN0eWxlOiBub3JtYWw7bGluZS1oZWlnaHQ6IDE0MCU7bWF4LXdpZHRoOiA5MDBweDtvdmVyZmxvdy13cmFwOiBicmVhay13b3JkO3dvcmQtYnJlYWs6IGJyZWFrLXdvcmQ7dGV4dC1zaXplLWFkanVzdDogMTAwJTtjb2xvcjogcmdiKDAsIDAsIDApOyIgZmlsbD0icmdiKDAsIDAsIDApIiBmb250LXdlaWdodD0ibm9ybWFsIiBmb250LXNpemU9IjEycHgiIGFsaWduPSJ0b3AiIHRleHQtYW5jaG9yPSJzdGFydCI+PHRzcGFuIHk9IjExLjE1OTk5OTk5OTk5OTk5NyIgeD0iMCI+PHRzcGFuIGR4PSIwIj7mlrDlop4v5paw5aKe5a2Q6YOo6ZeoPC90c3Bhbj48L3RzcGFuPjwvdGV4dD48L2c+PC9nPjwvZz48L2c+PGcgdHJhbnNmb3JtPSJtYXRyaXgoMSwwLDAsMSw4MzIuMywtODMxLjYyNSkiIGlkPSJ0b3BpYy03MzIyYTA1NC1iOTU2LTRiZTEtOThjYy02NTlmYTQzMTA0OGUiIGNsYXNzPSJwby1taW5kLXRvcGljIj48cGF0aCBmaWxsPSIjZjJmMmYyIiB0cmFuc2Zvcm09Im1hdHJpeCgxLDAsMCwxLDAuNSwwLjUpIiBjbGFzcz0icG8tbWluZC10b3BpYy1zaGFwZS1maWxsIiBkPSJNNiwwIEwzODEuMiwwIEMzODEuMiwwIDM4Ny4yLDAgMzg3LjIsNiBMMzg3LjIsMTkgQzM4Ny4yLDE5IDM4Ny4yLDI1IDM4MS4yLDI1JiMxMDsgICAgICBMNiwyNSBDNiwyNSAwLDI1IDAsMTkgTDAsNiBDMCw2IDAsMCA2LDBaIi8+PHBhdGggc3Ryb2tlPSIjNjE2MTYxIiBzdHJva2Utd2lkdGg9IjEiIGZpbGw9Im5vbmUiIHRyYW5zZm9ybT0ibWF0cml4KDEsMCwwLDEsMC41LDAuNSkiIGNsYXNzPSJwby1taW5kLXRvcGljLXNoYXBlIiBkPSJNNiwwIEwzODEuMiwwIEMzODEuMiwwIDM4Ny4yLDAgMzg3LjIsNiBMMzg3LjIsMTkgQzM4Ny4yLDE5IDM4Ny4yLDI1IDM4MS4yLDI1JiMxMDsgICAgICBMNiwyNSBDNiwyNSAwLDI1IDAsMTkgTDAsNiBDMCw2IDAsMCA2LDBaIi8+PGcgdHJhbnNmb3JtPSJtYXRyaXgoMSwwLDAsMSw1MC41LDQuNSkiPjxnIHRyYW5zZm9ybT0ibWF0cml4KDEsMCwwLDEsMCwwKSIgZGF0YS1vZmZzZXR4PSIwIiBkYXRhLWhlaWdodD0iMTciIGRhdGEtd2lkdGg9IjI4Ny4yIj48Zz48dGV4dCBzdHlsZT0iZm9udC1mYW1pbHk6IOW+rui9r+mbhem7kTtmb250LXNpemU6IDEycHg7Zm9udC13ZWlnaHQ6IG5vcm1hbDtmb250LXN0eWxlOiBub3JtYWw7bGluZS1oZWlnaHQ6IDE0MCU7bWF4LXdpZHRoOiA5MDBweDtvdmVyZmxvdy13cmFwOiBicmVhay13b3JkO3dvcmQtYnJlYWs6IGJyZWFrLXdvcmQ7dGV4dC1zaXplLWFkanVzdDogMTAwJTtjb2xvcjogcmdiKDAsIDAsIDApOyIgZmlsbD0icmdiKDAsIDAsIDApIiBmb250LXdlaWdodD0ibm9ybWFsIiBmb250LXNpemU9IjEycHgiIGFsaWduPSJ0b3AiIHRleHQtYW5jaG9yPSJzdGFydCI+PHRzcGFuIHk9IjExLjE1OTk5OTk5OTk5OTk5NyIgeD0iMCI+PHRzcGFuIGR4PSIwIj51cmw6IC9wYXJ0eSwgbWV0aG9kOiBQT1NULCBkYXRhOiB7IHBhcmVudElkLCBuYW1lIH08L3RzcGFuPjwvdHNwYW4+PC90ZXh0PjwvZz48L2c+PC9nPjwvZz48ZyBvcGFjaXR5PSIxIiB0cmFuc2Zvcm09Im1hdHJpeCgxLDAsMCwxLDYwMS4wOTk5OTk5OTk5OTk5LC03NzYuNjI1KSIgaWQ9InRvcGljLTNkMTljZWY5LTIzNjktNGMxZC05ZWU3LTA0MzA5NTI1MGRmNCIgY2xhc3M9InBvLW1pbmQtdG9waWMiPjxwYXRoIGZpbGw9IiNmMmYyZjIiIHRyYW5zZm9ybT0ibWF0cml4KDEsMCwwLDEsMC41LDAuNSkiIGNsYXNzPSJwby1taW5kLXRvcGljLXNoYXBlLWZpbGwiIGQ9Ik02LDAgTDE0NC4yLDAgQzE0NC4yLDAgMTUwLjIsMCAxNTAuMiw2IEwxNTAuMiwxOSBDMTUwLjIsMTkgMTUwLjIsMjUgMTQ0LjIsMjUmIzEwOyAgICAgIEw2LDI1IEM2LDI1IDAsMjUgMCwxOSBMMCw2IEMwLDYgMCwwIDYsMFoiLz48cGF0aCBzdHJva2U9IiM2MTYxNjEiIHN0cm9rZS13aWR0aD0iMSIgZmlsbD0ibm9uZSIgdHJhbnNmb3JtPSJtYXRyaXgoMSwwLDAsMSwwLjUsMC41KSIgY2xhc3M9InBvLW1pbmQtdG9waWMtc2hhcGUiIGQ9Ik02LDAgTDE0NC4yLDAgQzE0NC4yLDAgMTUwLjIsMCAxNTAuMiw2IEwxNTAuMiwxOSBDMTUwLjIsMTkgMTUwLjIsMjUgMTQ0LjIsMjUmIzEwOyAgICAgIEw2LDI1IEM2LDI1IDAsMjUgMCwxOSBMMCw2IEMwLDYgMCwwIDYsMFoiLz48ZyB0cmFuc2Zvcm09Im1hdHJpeCgxLDAsMCwxLDUwLjUsNC41KSI+PGcgdHJhbnNmb3JtPSJtYXRyaXgoMSwwLDAsMSwwLDApIiBkYXRhLW9mZnNldHg9IjAiIGRhdGEtaGVpZ2h0PSIxNyIgZGF0YS13aWR0aD0iNTAuMiI+PGc+PHRleHQgc3R5bGU9ImZvbnQtZmFtaWx5OiDlvq7ova/pm4Xpu5E7Zm9udC1zaXplOiAxMnB4O2ZvbnQtd2VpZ2h0OiBub3JtYWw7Zm9udC1zdHlsZTogbm9ybWFsO2xpbmUtaGVpZ2h0OiAxNDAlO21heC13aWR0aDogOTAwcHg7b3ZlcmZsb3ctd3JhcDogYnJlYWstd29yZDt3b3JkLWJyZWFrOiBicmVhay13b3JkO3RleHQtc2l6ZS1hZGp1c3Q6IDEwMCU7Y29sb3I6IHJnYigwLCAwLCAwKTsiIGZpbGw9InJnYigwLCAwLCAwKSIgZm9udC13ZWlnaHQ9Im5vcm1hbCIgZm9udC1zaXplPSIxMnB4IiBhbGlnbj0idG9wIiB0ZXh0LWFuY2hvcj0ic3RhcnQiPjx0c3BhbiB5PSIxMS4xNTk5OTk5OTk5OTk5OTciIHg9IjAiPjx0c3BhbiBkeD0iMCI+5L+u5pS55ZCN56ewPC90c3Bhbj48L3RzcGFuPjwvdGV4dD48L2c+PC9nPjwvZz48L2c+PGcgb3BhY2l0eT0iMSIgdHJhbnNmb3JtPSJtYXRyaXgoMSwwLDAsMSw3OTAuMywtNzc2LjYyNSkiIGlkPSJ0b3BpYy1kOWZlMDMzZC00MWJjLTQwNzktYjExYS0yNzU5ODRjOGM1MzEiIGNsYXNzPSJwby1taW5kLXRvcGljIj48cGF0aCBmaWxsPSIjZjJmMmYyIiB0cmFuc2Zvcm09Im1hdHJpeCgxLDAsMCwxLDAuNSwwLjUpIiBjbGFzcz0icG8tbWluZC10b3BpYy1zaGFwZS1maWxsIiBkPSJNNiwwIEwzMzYuMiwwIEMzMzYuMiwwIDM0Mi4yLDAgMzQyLjIsNiBMMzQyLjIsMTkgQzM0Mi4yLDE5IDM0Mi4yLDI1IDMzNi4yLDI1JiMxMDsgICAgICBMNiwyNSBDNiwyNSAwLDI1IDAsMTkgTDAsNiBDMCw2IDAsMCA2LDBaIi8+PHBhdGggc3Ryb2tlPSIjNjE2MTYxIiBzdHJva2Utd2lkdGg9IjEiIGZpbGw9Im5vbmUiIHRyYW5zZm9ybT0ibWF0cml4KDEsMCwwLDEsMC41LDAuNSkiIGNsYXNzPSJwby1taW5kLXRvcGljLXNoYXBlIiBkPSJNNiwwIEwzMzYuMiwwIEMzMzYuMiwwIDM0Mi4yLDAgMzQyLjIsNiBMMzQyLjIsMTkgQzM0Mi4yLDE5IDM0Mi4yLDI1IDMzNi4yLDI1JiMxMDsgICAgICBMNiwyNSBDNiwyNSAwLDI1IDAsMTkgTDAsNiBDMCw2IDAsMCA2LDBaIi8+PGcgdHJhbnNmb3JtPSJtYXRyaXgoMSwwLDAsMSw1MC41LDQuNSkiPjxnIHRyYW5zZm9ybT0ibWF0cml4KDEsMCwwLDEsMCwwKSIgZGF0YS1vZmZzZXR4PSIwIiBkYXRhLWhlaWdodD0iMTciIGRhdGEtd2lkdGg9IjI0Mi4yIj48Zz48dGV4dCBzdHlsZT0iZm9udC1mYW1pbHk6IOW+rui9r+mbhem7kTtmb250LXNpemU6IDEycHg7Zm9udC13ZWlnaHQ6IG5vcm1hbDtmb250LXN0eWxlOiBub3JtYWw7bGluZS1oZWlnaHQ6IDE0MCU7bWF4LXdpZHRoOiA5MDBweDtvdmVyZmxvdy13cmFwOiBicmVhay13b3JkO3dvcmQtYnJlYWs6IGJyZWFrLXdvcmQ7dGV4dC1zaXplLWFkanVzdDogMTAwJTtjb2xvcjogcmdiKDAsIDAsIDApOyIgZmlsbD0icmdiKDAsIDAsIDApIiBmb250LXdlaWdodD0ibm9ybWFsIiBmb250LXNpemU9IjEycHgiIGFsaWduPSJ0b3AiIHRleHQtYW5jaG9yPSJzdGFydCI+PHRzcGFuIHk9IjExLjE1OTk5OTk5OTk5OTk5NyIgeD0iMCI+PHRzcGFuIGR4PSIwIj51cmw6IC9wYXJ0eSwgbWV0aG9kOiBQVVQsIGRhdGE6IHsgaWQsIG5hbWUgfTwvdHNwYW4+PC90c3Bhbj48L3RleHQ+PC9nPjwvZz48L2c+PC9nPjxnIG9wYWNpdHk9IjEiIHRyYW5zZm9ybT0ibWF0cml4KDEsMCwwLDEsNjAxLjA5OTk5OTk5OTk5OTksLTcyMS42MjUpIiBpZD0idG9waWMtYjJkZTRhMGEtN2YzYi00YzI2LWE5ZmQtNTI2ZWQ1MjI1MTQ2IiBjbGFzcz0icG8tbWluZC10b3BpYyI+PHBhdGggZmlsbD0iI2YyZjJmMiIgdHJhbnNmb3JtPSJtYXRyaXgoMSwwLDAsMSwwLjUsMC41KSIgY2xhc3M9InBvLW1pbmQtdG9waWMtc2hhcGUtZmlsbCIgZD0iTTYsMCBMMTIwLjIsMCBDMTIwLjIsMCAxMjYuMiwwIDEyNi4yLDYgTDEyNi4yLDE5IEMxMjYuMiwxOSAxMjYuMiwyNSAxMjAuMiwyNSYjMTA7ICAgICAgTDYsMjUgQzYsMjUgMCwyNSAwLDE5IEwwLDYgQzAsNiAwLDAgNiwwWiIvPjxwYXRoIHN0cm9rZT0iIzYxNjE2MSIgc3Ryb2tlLXdpZHRoPSIxIiBmaWxsPSJub25lIiB0cmFuc2Zvcm09Im1hdHJpeCgxLDAsMCwxLDAuNSwwLjUpIiBjbGFzcz0icG8tbWluZC10b3BpYy1zaGFwZSIgZD0iTTYsMCBMMTIwLjIsMCBDMTIwLjIsMCAxMjYuMiwwIDEyNi4yLDYgTDEyNi4yLDE5IEMxMjYuMiwxOSAxMjYuMiwyNSAxMjAuMiwyNSYjMTA7ICAgICAgTDYsMjUgQzYsMjUgMCwyNSAwLDE5IEwwLDYgQzAsNiAwLDAgNiwwWiIvPjxnIHRyYW5zZm9ybT0ibWF0cml4KDEsMCwwLDEsNTAuNSw0LjUpIj48ZyB0cmFuc2Zvcm09Im1hdHJpeCgxLDAsMCwxLDAsMCkiIGRhdGEtb2Zmc2V0eD0iMCIgZGF0YS1oZWlnaHQ9IjE3IiBkYXRhLXdpZHRoPSIyNi4yIj48Zz48dGV4dCBzdHlsZT0iZm9udC1mYW1pbHk6IOW+rui9r+mbhem7kTtmb250LXNpemU6IDEycHg7Zm9udC13ZWlnaHQ6IG5vcm1hbDtmb250LXN0eWxlOiBub3JtYWw7bGluZS1oZWlnaHQ6IDE0MCU7bWF4LXdpZHRoOiA5MDBweDtvdmVyZmxvdy13cmFwOiBicmVhay13b3JkO3dvcmQtYnJlYWs6IGJyZWFrLXdvcmQ7dGV4dC1zaXplLWFkanVzdDogMTAwJTtjb2xvcjogcmdiKDAsIDAsIDApOyIgZmlsbD0icmdiKDAsIDAsIDApIiBmb250LXdlaWdodD0ibm9ybWFsIiBmb250LXNpemU9IjEycHgiIGFsaWduPSJ0b3AiIHRleHQtYW5jaG9yPSJzdGFydCI+PHRzcGFuIHk9IjExLjE1OTk5OTk5OTk5OTk5NyIgeD0iMCI+PHRzcGFuIGR4PSIwIj7liKDpmaQ8L3RzcGFuPjwvdHNwYW4+PC90ZXh0PjwvZz48L2c+PC9nPjwvZz48ZyBvcGFjaXR5PSIxIiB0cmFuc2Zvcm09Im1hdHJpeCgxLDAsMCwxLDc2Ni4zLC03MjEuNjI1KSIgaWQ9InRvcGljLWNlMTRkOGU4LWVlOWUtNGFlNC1iZTcyLTlmMTFkN2Y0NWNiNiIgY2xhc3M9InBvLW1pbmQtdG9waWMiPjxwYXRoIGZpbGw9IiNmMmYyZjIiIHRyYW5zZm9ybT0ibWF0cml4KDEsMCwwLDEsMC41LDAuNSkiIGNsYXNzPSJwby1taW5kLXRvcGljLXNoYXBlLWZpbGwiIGQ9Ik02LDAgTDI4NC4yLDAgQzI4NC4yLDAgMjkwLjIsMCAyOTAuMiw2IEwyOTAuMiwxOSBDMjkwLjIsMTkgMjkwLjIsMjUgMjg0LjIsMjUmIzEwOyAgICAgIEw2LDI1IEM2LDI1IDAsMjUgMCwxOSBMMCw2IEMwLDYgMCwwIDYsMFoiLz48cGF0aCBzdHJva2U9IiM2MTYxNjEiIHN0cm9rZS13aWR0aD0iMSIgZmlsbD0ibm9uZSIgdHJhbnNmb3JtPSJtYXRyaXgoMSwwLDAsMSwwLjUsMC41KSIgY2xhc3M9InBvLW1pbmQtdG9waWMtc2hhcGUiIGQ9Ik02LDAgTDI4NC4yLDAgQzI4NC4yLDAgMjkwLjIsMCAyOTAuMiw2IEwyOTAuMiwxOSBDMjkwLjIsMTkgMjkwLjIsMjUgMjg0LjIsMjUmIzEwOyAgICAgIEw2LDI1IEM2LDI1IDAsMjUgMCwxOSBMMCw2IEMwLDYgMCwwIDYsMFoiLz48ZyB0cmFuc2Zvcm09Im1hdHJpeCgxLDAsMCwxLDUwLjUsNC41KSI+PGcgdHJhbnNmb3JtPSJtYXRyaXgoMSwwLDAsMSwwLDApIiBkYXRhLW9mZnNldHg9IjAiIGRhdGEtaGVpZ2h0PSIxNyIgZGF0YS13aWR0aD0iMTkwLjIiPjxnPjx0ZXh0IHN0eWxlPSJmb250LWZhbWlseTog5b6u6L2v6ZuF6buRO2ZvbnQtc2l6ZTogMTJweDtmb250LXdlaWdodDogbm9ybWFsO2ZvbnQtc3R5bGU6IG5vcm1hbDtsaW5lLWhlaWdodDogMTQwJTttYXgtd2lkdGg6IDkwMHB4O292ZXJmbG93LXdyYXA6IGJyZWFrLXdvcmQ7d29yZC1icmVhazogYnJlYWstd29yZDt0ZXh0LXNpemUtYWRqdXN0OiAxMDAlO2NvbG9yOiByZ2IoMCwgMCwgMCk7IiBmaWxsPSJyZ2IoMCwgMCwgMCkiIGZvbnQtd2VpZ2h0PSJub3JtYWwiIGZvbnQtc2l6ZT0iMTJweCIgYWxpZ249InRvcCIgdGV4dC1hbmNob3I9InN0YXJ0Ij48dHNwYW4geT0iMTEuMTU5OTk5OTk5OTk5OTk3IiB4PSIwIj48dHNwYW4gZHg9IjAiPnVybDogL3BhcnR5LyR7aWR9LCBtZXRob2Q6IERFTEVURTwvdHNwYW4+PC90c3Bhbj48L3RleHQ+PC9nPjwvZz48L2c+PC9nPjxnIG9wYWNpdHk9IjEiIHRyYW5zZm9ybT0ibWF0cml4KDEsMCwwLDEsNjAxLjA5OTk5OTk5OTk5OTksLTY2Ni42MjUpIiBpZD0idG9waWMtZjdkYjMwNzUtOTc4NS00YmE1LTgwNmQtZjg2Y2I5ZmQ5MGNkIiBjbGFzcz0icG8tbWluZC10b3BpYyI+PHBhdGggZmlsbD0iI2YyZjJmMiIgdHJhbnNmb3JtPSJtYXRyaXgoMSwwLDAsMSwwLjUsMC41KSIgY2xhc3M9InBvLW1pbmQtdG9waWMtc2hhcGUtZmlsbCIgZD0iTTYsMCBMMTIwLjIsMCBDMTIwLjIsMCAxMjYuMiwwIDEyNi4yLDYgTDEyNi4yLDE5IEMxMjYuMiwxOSAxMjYuMiwyNSAxMjAuMiwyNSYjMTA7ICAgICAgTDYsMjUgQzYsMjUgMCwyNSAwLDE5IEwwLDYgQzAsNiAwLDAgNiwwWiIvPjxwYXRoIHN0cm9rZT0iIzYxNjE2MSIgc3Ryb2tlLXdpZHRoPSIxIiBmaWxsPSJub25lIiB0cmFuc2Zvcm09Im1hdHJpeCgxLDAsMCwxLDAuNSwwLjUpIiBjbGFzcz0icG8tbWluZC10b3BpYy1zaGFwZSIgZD0iTTYsMCBMMTIwLjIsMCBDMTIwLjIsMCAxMjYuMiwwIDEyNi4yLDYgTDEyNi4yLDE5IEMxMjYuMiwxOSAxMjYuMiwyNSAxMjAuMiwyNSYjMTA7ICAgICAgTDYsMjUgQzYsMjUgMCwyNSAwLDE5IEwwLDYgQzAsNiAwLDAgNiwwWiIvPjxnIHRyYW5zZm9ybT0ibWF0cml4KDEsMCwwLDEsNTAuNSw0LjUpIj48ZyB0cmFuc2Zvcm09Im1hdHJpeCgxLDAsMCwxLDAsMCkiIGRhdGEtb2Zmc2V0eD0iMCIgZGF0YS1oZWlnaHQ9IjE3IiBkYXRhLXdpZHRoPSIyNi4yIj48Zz48dGV4dCBzdHlsZT0iZm9udC1mYW1pbHk6IOW+rui9r+mbhem7kTtmb250LXNpemU6IDEycHg7Zm9udC13ZWlnaHQ6IG5vcm1hbDtmb250LXN0eWxlOiBub3JtYWw7bGluZS1oZWlnaHQ6IDE0MCU7bWF4LXdpZHRoOiA5MDBweDtvdmVyZmxvdy13cmFwOiBicmVhay13b3JkO3dvcmQtYnJlYWs6IGJyZWFrLXdvcmQ7dGV4dC1zaXplLWFkanVzdDogMTAwJTtjb2xvcjogcmdiKDAsIDAsIDApOyIgZmlsbD0icmdiKDAsIDAsIDApIiBmb250LXdlaWdodD0ibm9ybWFsIiBmb250LXNpemU9IjEycHgiIGFsaWduPSJ0b3AiIHRleHQtYW5jaG9yPSJzdGFydCI+PHRzcGFuIHk9IjExLjE1OTk5OTk5OTk5OTk5NyIgeD0iMCI+PHRzcGFuIGR4PSIwIj7mi5bmi708L3RzcGFuPjwvdHNwYW4+PC90ZXh0PjwvZz48L2c+PC9nPjwvZz48ZyBvcGFjaXR5PSIxIiB0cmFuc2Zvcm09Im1hdHJpeCgxLDAsMCwxLDc2Ni4zLC02NjYuNjI1KSIgaWQ9InRvcGljLWVjMGU2OGE1LTg1YjgtNGEyNi1hNGQ0LWVlNTM1NWI1N2JmMCIgY2xhc3M9InBvLW1pbmQtdG9waWMiPjxwYXRoIGZpbGw9IiNmMmYyZjIiIHRyYW5zZm9ybT0ibWF0cml4KDEsMCwwLDEsMC41LDAuNSkiIGNsYXNzPSJwby1taW5kLXRvcGljLXNoYXBlLWZpbGwiIGQ9Ik02LDAgTDQ2NS4yLDAgQzQ2NS4yLDAgNDcxLjIsMCA0NzEuMiw2IEw0NzEuMiwxOSBDNDcxLjIsMTkgNDcxLjIsMjUgNDY1LjIsMjUmIzEwOyAgICAgIEw2LDI1IEM2LDI1IDAsMjUgMCwxOSBMMCw2IEMwLDYgMCwwIDYsMFoiLz48cGF0aCBzdHJva2U9IiM2MTYxNjEiIHN0cm9rZS13aWR0aD0iMSIgZmlsbD0ibm9uZSIgdHJhbnNmb3JtPSJtYXRyaXgoMSwwLDAsMSwwLjUsMC41KSIgY2xhc3M9InBvLW1pbmQtdG9waWMtc2hhcGUiIGQ9Ik02LDAgTDQ2NS4yLDAgQzQ2NS4yLDAgNDcxLjIsMCA0NzEuMiw2IEw0NzEuMiwxOSBDNDcxLjIsMTkgNDcxLjIsMjUgNDY1LjIsMjUmIzEwOyAgICAgIEw2LDI1IEM2LDI1IDAsMjUgMCwxOSBMMCw2IEMwLDYgMCwwIDYsMFoiLz48ZyB0cmFuc2Zvcm09Im1hdHJpeCgxLDAsMCwxLDUwLjUsNC41KSI+PGcgdHJhbnNmb3JtPSJtYXRyaXgoMSwwLDAsMSwwLDApIiBkYXRhLW9mZnNldHg9IjAiIGRhdGEtaGVpZ2h0PSIxNyIgZGF0YS13aWR0aD0iMzcxLjIiPjxnPjx0ZXh0IHN0eWxlPSJmb250LWZhbWlseTog5b6u6L2v6ZuF6buRO2ZvbnQtc2l6ZTogMTJweDtmb250LXdlaWdodDogbm9ybWFsO2ZvbnQtc3R5bGU6IG5vcm1hbDtsaW5lLWhlaWdodDogMTQwJTttYXgtd2lkdGg6IDkwMHB4O292ZXJmbG93LXdyYXA6IGJyZWFrLXdvcmQ7d29yZC1icmVhazogYnJlYWstd29yZDt0ZXh0LXNpemUtYWRqdXN0OiAxMDAlO2NvbG9yOiByZ2IoMCwgMCwgMCk7IiBmaWxsPSJyZ2IoMCwgMCwgMCkiIGZvbnQtd2VpZ2h0PSJub3JtYWwiIGZvbnQtc2l6ZT0iMTJweCIgYWxpZ249InRvcCIgdGV4dC1hbmNob3I9InN0YXJ0Ij48dHNwYW4geT0iMTEuMTU5OTk5OTk5OTk5OTk3IiB4PSIwIj48dHNwYW4gZHg9IjAiPnVybDogL3BhcnR5L21vdmUsIG1ldGhvZDogUFVULCBkYXRhOiB7IGlkLCBuYW1lLCBvcmRlciwgcGFyZW50SWQgfTwvdHNwYW4+PC90c3Bhbj48L3RleHQ+PC9nPjwvZz48L2c+PC9nPjxnIG9wYWNpdHk9IjEiIHRyYW5zZm9ybT0ibWF0cml4KDEsMCwwLDEsMzg3LjksLTExNi42MjUpIiBpZD0idG9waWMtODExOTQzOTItNTNjZC00NWI1LTgyNDctMTNiYjk2YzY0OTczIiBjbGFzcz0icG8tbWluZC10b3BpYyI+PHBhdGggZmlsbD0iI2YyZjJmMiIgdHJhbnNmb3JtPSJtYXRyaXgoMSwwLDAsMSwwLjUsMC41KSIgY2xhc3M9InBvLW1pbmQtdG9waWMtc2hhcGUtZmlsbCIgZD0iTTYsMCBMMjUyLjIsMCBDMjUyLjIsMCAyNTguMiwwIDI1OC4yLDYgTDI1OC4yLDE5IEMyNTguMiwxOSAyNTguMiwyNSAyNTIuMiwyNSYjMTA7ICAgICAgTDYsMjUgQzYsMjUgMCwyNSAwLDE5IEwwLDYgQzAsNiAwLDAgNiwwWiIvPjxwYXRoIHN0cm9rZT0iIzYxNjE2MSIgc3Ryb2tlLXdpZHRoPSIxIiBmaWxsPSJub25lIiB0cmFuc2Zvcm09Im1hdHJpeCgxLDAsMCwxLDAuNSwwLjUpIiBjbGFzcz0icG8tbWluZC10b3BpYy1zaGFwZSIgZD0iTTYsMCBMMjUyLjIsMCBDMjUyLjIsMCAyNTguMiwwIDI1OC4yLDYgTDI1OC4yLDE5IEMyNTguMiwxOSAyNTguMiwyNSAyNTIuMiwyNSYjMTA7ICAgICAgTDYsMjUgQzYsMjUgMCwyNSAwLDE5IEwwLDYgQzAsNiAwLDAgNiwwWiIvPjxnIHRyYW5zZm9ybT0ibWF0cml4KDEsMCwwLDEsNTAuNSw0LjUpIj48ZyB0cmFuc2Zvcm09Im1hdHJpeCgxLDAsMCwxLDAsMCkiIGRhdGEtb2Zmc2V0eD0iMCIgZGF0YS1oZWlnaHQ9IjE3IiBkYXRhLXdpZHRoPSIxNTguMiI+PGc+PHRleHQgc3R5bGU9ImZvbnQtZmFtaWx5OiDlvq7ova/pm4Xpu5E7Zm9udC1zaXplOiAxMnB4O2ZvbnQtd2VpZ2h0OiBub3JtYWw7Zm9udC1zdHlsZTogbm9ybWFsO2xpbmUtaGVpZ2h0OiAxNDAlO21heC13aWR0aDogOTAwcHg7b3ZlcmZsb3ctd3JhcDogYnJlYWstd29yZDt3b3JkLWJyZWFrOiBicmVhay13b3JkO3RleHQtc2l6ZS1hZGp1c3Q6IDEwMCU7Y29sb3I6IHJnYigwLCAwLCAwKTsiIGZpbGw9InJnYigwLCAwLCAwKSIgZm9udC13ZWlnaHQ9Im5vcm1hbCIgZm9udC1zaXplPSIxMnB4IiBhbGlnbj0idG9wIiB0ZXh0LWFuY2hvcj0ic3RhcnQiPjx0c3BhbiB5PSIxMS4xNTk5OTk5OTk5OTk5OTciIHg9IjAiPjx0c3BhbiBkeD0iMCI+5qC55o2u57uE57uH6I635Y+W6K+l57uE57uH5LiL55qE5ZGY5belPC90c3Bhbj48L3RzcGFuPjwvdGV4dD48L2c+PC9nPjwvZz48L2c+PGcgb3BhY2l0eT0iMSIgdHJhbnNmb3JtPSJtYXRyaXgoMSwwLDAsMSw2ODUuMDk5OTk5OTk5OTk5OSwtNjExLjYyNSkiIGlkPSJ0b3BpYy05OWNjNGNiMS1lMDljLTQ1YjQtYTQ5NC02YjM4MTQzOTM1YTIiIGNsYXNzPSJwby1taW5kLXRvcGljIj48cGF0aCBmaWxsPSIjZjJmMmYyIiB0cmFuc2Zvcm09Im1hdHJpeCgxLDAsMCwxLDAuNSwwLjUpIiBjbGFzcz0icG8tbWluZC10b3BpYy1zaGFwZS1maWxsIiBkPSJNNiwwIEwyNzkuMiwwIEMyNzkuMiwwIDI4NS4yLDAgMjg1LjIsNiBMMjg1LjIsMTkgQzI4NS4yLDE5IDI4NS4yLDI1IDI3OS4yLDI1JiMxMDsgICAgICBMNiwyNSBDNiwyNSAwLDI1IDAsMTkgTDAsNiBDMCw2IDAsMCA2LDBaIi8+PHBhdGggc3Ryb2tlPSIjNjE2MTYxIiBzdHJva2Utd2lkdGg9IjEiIGZpbGw9Im5vbmUiIHRyYW5zZm9ybT0ibWF0cml4KDEsMCwwLDEsMC41LDAuNSkiIGNsYXNzPSJwby1taW5kLXRvcGljLXNoYXBlIiBkPSJNNiwwIEwyNzkuMiwwIEMyNzkuMiwwIDI4NS4yLDAgMjg1LjIsNiBMMjg1LjIsMTkgQzI4NS4yLDE5IDI4NS4yLDI1IDI3OS4yLDI1JiMxMDsgICAgICBMNiwyNSBDNiwyNSAwLDI1IDAsMTkgTDAsNiBDMCw2IDAsMCA2LDBaIi8+PGcgdHJhbnNmb3JtPSJtYXRyaXgoMSwwLDAsMSw1MC41LDQuNSkiPjxnIHRyYW5zZm9ybT0ibWF0cml4KDEsMCwwLDEsMCwwKSIgZGF0YS1vZmZzZXR4PSIwIiBkYXRhLWhlaWdodD0iMTciIGRhdGEtd2lkdGg9IjE4NS4yIj48Zz48dGV4dCBzdHlsZT0iZm9udC1mYW1pbHk6IOW+rui9r+mbhem7kTtmb250LXNpemU6IDEycHg7Zm9udC13ZWlnaHQ6IG5vcm1hbDtmb250LXN0eWxlOiBub3JtYWw7bGluZS1oZWlnaHQ6IDE0MCU7bWF4LXdpZHRoOiA5MDBweDtvdmVyZmxvdy13cmFwOiBicmVhay13b3JkO3dvcmQtYnJlYWs6IGJyZWFrLXdvcmQ7dGV4dC1zaXplLWFkanVzdDogMTAwJTtjb2xvcjogcmdiKDAsIDAsIDApOyIgZmlsbD0icmdiKDAsIDAsIDApIiBmb250LXdlaWdodD0ibm9ybWFsIiBmb250LXNpemU9IjEycHgiIGFsaWduPSJ0b3AiIHRleHQtYW5jaG9yPSJzdGFydCI+PHRzcGFuIHk9IjExLjE1OTk5OTk5OTk5OTk5NyIgeD0iMCI+PHRzcGFuIGR4PSIwIj7mjqXlj6PvvJovd2Z1c2VyLyR7b3JnYW5pemF0aW9uSWR9PC90c3Bhbj48L3RzcGFuPjwvdGV4dD48L2c+PC9nPjwvZz48L2c+PGcgb3BhY2l0eT0iMSIgdHJhbnNmb3JtPSJtYXRyaXgoMSwwLDAsMSw2ODUuMDk5OTk5OTk5OTk5OSwtNTI5LjEyNSkiIGlkPSJ0b3BpYy1jNDAzNmI2My1iZmQ3LTQzNjktYWFlOS1kODBmYTY1NDQ3ODgiIGNsYXNzPSJwby1taW5kLXRvcGljIj48cGF0aCBmaWxsPSIjZjJmMmYyIiB0cmFuc2Zvcm09Im1hdHJpeCgxLDAsMCwxLDAuNSwwLjUpIiBjbGFzcz0icG8tbWluZC10b3BpYy1zaGFwZS1maWxsIiBkPSJNNiwwIEwxNDQuMiwwIEMxNDQuMiwwIDE1MC4yLDAgMTUwLjIsNiBMMTUwLjIsMTkgQzE1MC4yLDE5IDE1MC4yLDI1IDE0NC4yLDI1JiMxMDsgICAgICBMNiwyNSBDNiwyNSAwLDI1IDAsMTkgTDAsNiBDMCw2IDAsMCA2LDBaIi8+PHBhdGggc3Ryb2tlPSIjNjE2MTYxIiBzdHJva2Utd2lkdGg9IjEiIGZpbGw9Im5vbmUiIHRyYW5zZm9ybT0ibWF0cml4KDEsMCwwLDEsMC41LDAuNSkiIGNsYXNzPSJwby1taW5kLXRvcGljLXNoYXBlIiBkPSJNNiwwIEwxNDQuMiwwIEMxNDQuMiwwIDE1MC4yLDAgMTUwLjIsNiBMMTUwLjIsMTkgQzE1MC4yLDE5IDE1MC4yLDI1IDE0NC4yLDI1JiMxMDsgICAgICBMNiwyNSBDNiwyNSAwLDI1IDAsMTkgTDAsNiBDMCw2IDAsMCA2LDBaIi8+PGcgdHJhbnNmb3JtPSJtYXRyaXgoMSwwLDAsMSw1MC41LDQuNSkiPjxnIHRyYW5zZm9ybT0ibWF0cml4KDEsMCwwLDEsMCwwKSIgZGF0YS1vZmZzZXR4PSIwIiBkYXRhLWhlaWdodD0iMTciIGRhdGEtd2lkdGg9IjUwLjIiPjxnPjx0ZXh0IHN0eWxlPSJmb250LWZhbWlseTog5b6u6L2v6ZuF6buRO2ZvbnQtc2l6ZTogMTJweDtmb250LXdlaWdodDogbm9ybWFsO2ZvbnQtc3R5bGU6IG5vcm1hbDtsaW5lLWhlaWdodDogMTQwJTttYXgtd2lkdGg6IDkwMHB4O292ZXJmbG93LXdyYXA6IGJyZWFrLXdvcmQ7d29yZC1icmVhazogYnJlYWstd29yZDt0ZXh0LXNpemUtYWRqdXN0OiAxMDAlO2NvbG9yOiByZ2IoMCwgMCwgMCk7IiBmaWxsPSJyZ2IoMCwgMCwgMCkiIGZvbnQtd2VpZ2h0PSJub3JtYWwiIGZvbnQtc2l6ZT0iMTJweCIgYWxpZ249InRvcCIgdGV4dC1hbmNob3I9InN0YXJ0Ij48dHNwYW4geT0iMTEuMTU5OTk5OTk5OTk5OTk3IiB4PSIwIj48dHNwYW4gZHg9IjAiPuaJuemHj+aTjeS9nDwvdHNwYW4+PC90c3Bhbj48L3RleHQ+PC9nPjwvZz48L2c+PC9nPjxnIG9wYWNpdHk9IjEiIHRyYW5zZm9ybT0ibWF0cml4KDEsMCwwLDEsODc0LjMsLTU1Ni42MjUpIiBpZD0idG9waWMtNzMwYzRlZDAtNTBmNC00M2Q2LTg5ZTUtZGQ4OWE0Nzc0MjY3IiBjbGFzcz0icG8tbWluZC10b3BpYyI+PHBhdGggZmlsbD0iI2YyZjJmMiIgdHJhbnNmb3JtPSJtYXRyaXgoMSwwLDAsMSwwLjUsMC41KSIgY2xhc3M9InBvLW1pbmQtdG9waWMtc2hhcGUtZmlsbCIgZD0iTTYsMCBMMjg3LjIsMCBDMjg3LjIsMCAyOTMuMiwwIDI5My4yLDYgTDI5My4yLDE5IEMyOTMuMiwxOSAyOTMuMiwyNSAyODcuMiwyNSYjMTA7ICAgICAgTDYsMjUgQzYsMjUgMCwyNSAwLDE5IEwwLDYgQzAsNiAwLDAgNiwwWiIvPjxwYXRoIHN0cm9rZT0iIzYxNjE2MSIgc3Ryb2tlLXdpZHRoPSIxIiBmaWxsPSJub25lIiB0cmFuc2Zvcm09Im1hdHJpeCgxLDAsMCwxLDAuNSwwLjUpIiBjbGFzcz0icG8tbWluZC10b3BpYy1zaGFwZSIgZD0iTTYsMCBMMjg3LjIsMCBDMjg3LjIsMCAyOTMuMiwwIDI5My4yLDYgTDI5My4yLDE5IEMyOTMuMiwxOSAyOTMuMiwyNSAyODcuMiwyNSYjMTA7ICAgICAgTDYsMjUgQzYsMjUgMCwyNSAwLDE5IEwwLDYgQzAsNiAwLDAgNiwwWiIvPjxnIHRyYW5zZm9ybT0ibWF0cml4KDEsMCwwLDEsNTAuNSw0LjUpIj48ZyB0cmFuc2Zvcm09Im1hdHJpeCgxLDAsMCwxLDAsMCkiIGRhdGEtb2Zmc2V0eD0iMCIgZGF0YS1oZWlnaHQ9IjE3IiBkYXRhLXdpZHRoPSIxOTMuMiI+PGc+PHRleHQgc3R5bGU9ImZvbnQtZmFtaWx5OiDlvq7ova/pm4Xpu5E7Zm9udC1zaXplOiAxMnB4O2ZvbnQtd2VpZ2h0OiBub3JtYWw7Zm9udC1zdHlsZTogbm9ybWFsO2xpbmUtaGVpZ2h0OiAxNDAlO21heC13aWR0aDogOTAwcHg7b3ZlcmZsb3ctd3JhcDogYnJlYWstd29yZDt3b3JkLWJyZWFrOiBicmVhay13b3JkO3RleHQtc2l6ZS1hZGp1c3Q6IDEwMCU7Y29sb3I6IHJnYigwLCAwLCAwKTsiIGZpbGw9InJnYigwLCAwLCAwKSIgZm9udC13ZWlnaHQ9Im5vcm1hbCIgZm9udC1zaXplPSIxMnB4IiBhbGlnbj0idG9wIiB0ZXh0LWFuY2hvcj0ic3RhcnQiPjx0c3BhbiB5PSIxMS4xNTk5OTk5OTk5OTk5OTciIHg9IjAiPjx0c3BhbiBkeD0iMCI+5p2D6ZmQ77yaYnV0dG9uOnN5c3RlbTpvcmc6YWRkRW1wPC90c3Bhbj48L3RzcGFuPjwvdGV4dD48L2c+PC9nPjwvZz48L2c+PGcgb3BhY2l0eT0iMSIgdHJhbnNmb3JtPSJtYXRyaXgoMSwwLDAsMSw4NzQuMywtNTAxLjYyNSkiIGlkPSJ0b3BpYy0yYzk3NGY0Mi04ZWJlLTQ5NTItYWRjNC00MzYzYmFjY2MxN2QiIGNsYXNzPSJwby1taW5kLXRvcGljIj48cGF0aCBmaWxsPSIjZjJmMmYyIiB0cmFuc2Zvcm09Im1hdHJpeCgxLDAsMCwxLDAuNSwwLjUpIiBjbGFzcz0icG8tbWluZC10b3BpYy1zaGFwZS1maWxsIiBkPSJNNiwwIEwyNTkuMiwwIEMyNTkuMiwwIDI2NS4yLDAgMjY1LjIsNiBMMjY1LjIsMTkgQzI2NS4yLDE5IDI2NS4yLDI1IDI1OS4yLDI1JiMxMDsgICAgICBMNiwyNSBDNiwyNSAwLDI1IDAsMTkgTDAsNiBDMCw2IDAsMCA2LDBaIi8+PHBhdGggc3Ryb2tlPSIjNjE2MTYxIiBzdHJva2Utd2lkdGg9IjEiIGZpbGw9Im5vbmUiIHRyYW5zZm9ybT0ibWF0cml4KDEsMCwwLDEsMC41LDAuNSkiIGNsYXNzPSJwby1taW5kLXRvcGljLXNoYXBlIiBkPSJNNiwwIEwyNTkuMiwwIEMyNTkuMiwwIDI2NS4yLDAgMjY1LjIsNiBMMjY1LjIsMTkgQzI2NS4yLDE5IDI2NS4yLDI1IDI1OS4yLDI1JiMxMDsgICAgICBMNiwyNSBDNiwyNSAwLDI1IDAsMTkgTDAsNiBDMCw2IDAsMCA2LDBaIi8+PGcgdHJhbnNmb3JtPSJtYXRyaXgoMSwwLDAsMSw1MC41LDQuNSkiPjxnIHRyYW5zZm9ybT0ibWF0cml4KDEsMCwwLDEsMCwwKSIgZGF0YS1vZmZzZXR4PSIwIiBkYXRhLWhlaWdodD0iMTciIGRhdGEtd2lkdGg9IjE2NS4yIj48Zz48dGV4dCBzdHlsZT0iZm9udC1mYW1pbHk6IOW+rui9r+mbhem7kTtmb250LXNpemU6IDEycHg7Zm9udC13ZWlnaHQ6IG5vcm1hbDtmb250LXN0eWxlOiBub3JtYWw7bGluZS1oZWlnaHQ6IDE0MCU7bWF4LXdpZHRoOiA5MDBweDtvdmVyZmxvdy13cmFwOiBicmVhay13b3JkO3dvcmQtYnJlYWs6IGJyZWFrLXdvcmQ7dGV4dC1zaXplLWFkanVzdDogMTAwJTtjb2xvcjogcmdiKDAsIDAsIDApOyIgZmlsbD0icmdiKDAsIDAsIDApIiBmb250LXdlaWdodD0ibm9ybWFsIiBmb250LXNpemU9IjEycHgiIGFsaWduPSJ0b3AiIHRleHQtYW5jaG9yPSJzdGFydCI+PHRzcGFuIHk9IjExLjE1OTk5OTk5OTk5OTk5NyIgeD0iMCI+PHRzcGFuIGR4PSIwIj7mjqXlj6PvvJovd2Z1c2VyL2JhdGNoT3BlcmF0ZTwvdHNwYW4+PC90c3Bhbj48L3RleHQ+PC9nPjwvZz48L2c+PC9nPjxnIG9wYWNpdHk9IjEiIHRyYW5zZm9ybT0ibWF0cml4KDEsMCwwLDEsNjg1LjA5OTk5OTk5OTk5OTksLTQxOS4xMjUpIiBpZD0idG9waWMtOWJlMzVhNDUtZmY2YS00ZDEyLThlMjMtNzU4ZTVlMjM5ODY2IiBjbGFzcz0icG8tbWluZC10b3BpYyI+PHBhdGggZmlsbD0iI2YyZjJmMiIgdHJhbnNmb3JtPSJtYXRyaXgoMSwwLDAsMSwwLjUsMC41KSIgY2xhc3M9InBvLW1pbmQtdG9waWMtc2hhcGUtZmlsbCIgZD0iTTYsMCBMMTQ0LjIsMCBDMTQ0LjIsMCAxNTAuMiwwIDE1MC4yLDYgTDE1MC4yLDE5IEMxNTAuMiwxOSAxNTAuMiwyNSAxNDQuMiwyNSYjMTA7ICAgICAgTDYsMjUgQzYsMjUgMCwyNSAwLDE5IEwwLDYgQzAsNiAwLDAgNiwwWiIvPjxwYXRoIHN0cm9rZT0iIzYxNjE2MSIgc3Ryb2tlLXdpZHRoPSIxIiBmaWxsPSJub25lIiB0cmFuc2Zvcm09Im1hdHJpeCgxLDAsMCwxLDAuNSwwLjUpIiBjbGFzcz0icG8tbWluZC10b3BpYy1zaGFwZSIgZD0iTTYsMCBMMTQ0LjIsMCBDMTQ0LjIsMCAxNTAuMiwwIDE1MC4yLDYgTDE1MC4yLDE5IEMxNTAuMiwxOSAxNTAuMiwyNSAxNDQuMiwyNSYjMTA7ICAgICAgTDYsMjUgQzYsMjUgMCwyNSAwLDE5IEwwLDYgQzAsNiAwLDAgNiwwWiIvPjxnIHRyYW5zZm9ybT0ibWF0cml4KDEsMCwwLDEsNTAuNSw0LjUpIj48ZyB0cmFuc2Zvcm09Im1hdHJpeCgxLDAsMCwxLDAsMCkiIGRhdGEtb2Zmc2V0eD0iMCIgZGF0YS1oZWlnaHQ9IjE3IiBkYXRhLXdpZHRoPSI1MC4yIj48Zz48dGV4dCBzdHlsZT0iZm9udC1mYW1pbHk6IOW+rui9r+mbhem7kTtmb250LXNpemU6IDEycHg7Zm9udC13ZWlnaHQ6IG5vcm1hbDtmb250LXN0eWxlOiBub3JtYWw7bGluZS1oZWlnaHQ6IDE0MCU7bWF4LXdpZHRoOiA5MDBweDtvdmVyZmxvdy13cmFwOiBicmVhay13b3JkO3dvcmQtYnJlYWs6IGJyZWFrLXdvcmQ7dGV4dC1zaXplLWFkanVzdDogMTAwJTtjb2xvcjogcmdiKDAsIDAsIDApOyIgZmlsbD0icmdiKDAsIDAsIDApIiBmb250LXdlaWdodD0ibm9ybWFsIiBmb250LXNpemU9IjEycHgiIGFsaWduPSJ0b3AiIHRleHQtYW5jaG9yPSJzdGFydCI+PHRzcGFuIHk9IjExLjE1OTk5OTk5OTk5OTk5NyIgeD0iMCI+PHRzcGFuIGR4PSIwIj7lvq7kv6Hnu5Hlrpo8L3RzcGFuPjwvdHNwYW4+PC90ZXh0PjwvZz48L2c+PC9nPjwvZz48ZyBvcGFjaXR5PSIxIiB0cmFuc2Zvcm09Im1hdHJpeCgxLDAsMCwxLDg3NC4zLC00NDYuNjI1KSIgaWQ9InRvcGljLTg4ZGQ5YjNmLWFmZjMtNDA4Ny1hMDE4LTgxODc5NTcwY2I2NiIgY2xhc3M9InBvLW1pbmQtdG9waWMiPjxwYXRoIGZpbGw9IiNmMmYyZjIiIHRyYW5zZm9ybT0ibWF0cml4KDEsMCwwLDEsMC41LDAuNSkiIGNsYXNzPSJwby1taW5kLXRvcGljLXNoYXBlLWZpbGwiIGQ9Ik02LDAgTDQzMy4yLDAgQzQzMy4yLDAgNDM5LjIsMCA0MzkuMiw2IEw0MzkuMiwxOSBDNDM5LjIsMTkgNDM5LjIsMjUgNDMzLjIsMjUmIzEwOyAgICAgIEw2LDI1IEM2LDI1IDAsMjUgMCwxOSBMMCw2IEMwLDYgMCwwIDYsMFoiLz48cGF0aCBzdHJva2U9IiM2MTYxNjEiIHN0cm9rZS13aWR0aD0iMSIgZmlsbD0ibm9uZSIgdHJhbnNmb3JtPSJtYXRyaXgoMSwwLDAsMSwwLjUsMC41KSIgY2xhc3M9InBvLW1pbmQtdG9waWMtc2hhcGUiIGQ9Ik02LDAgTDQzMy4yLDAgQzQzMy4yLDAgNDM5LjIsMCA0MzkuMiw2IEw0MzkuMiwxOSBDNDM5LjIsMTkgNDM5LjIsMjUgNDMzLjIsMjUmIzEwOyAgICAgIEw2LDI1IEM2LDI1IDAsMjUgMCwxOSBMMCw2IEMwLDYgMCwwIDYsMFoiLz48ZyB0cmFuc2Zvcm09Im1hdHJpeCgxLDAsMCwxLDUwLjUsNC41KSI+PGcgdHJhbnNmb3JtPSJtYXRyaXgoMSwwLDAsMSwwLDApIiBkYXRhLW9mZnNldHg9IjAiIGRhdGEtaGVpZ2h0PSIxNyIgZGF0YS13aWR0aD0iMzM5LjIiPjxnPjx0ZXh0IHN0eWxlPSJmb250LWZhbWlseTog5b6u6L2v6ZuF6buRO2ZvbnQtc2l6ZTogMTJweDtmb250LXdlaWdodDogbm9ybWFsO2ZvbnQtc3R5bGU6IG5vcm1hbDtsaW5lLWhlaWdodDogMTQwJTttYXgtd2lkdGg6IDkwMHB4O292ZXJmbG93LXdyYXA6IGJyZWFrLXdvcmQ7d29yZC1icmVhazogYnJlYWstd29yZDt0ZXh0LXNpemUtYWRqdXN0OiAxMDAlO2NvbG9yOiByZ2IoMCwgMCwgMCk7IiBmaWxsPSJyZ2IoMCwgMCwgMCkiIGZvbnQtd2VpZ2h0PSJub3JtYWwiIGZvbnQtc2l6ZT0iMTJweCIgYWxpZ249InRvcCIgdGV4dC1hbmNob3I9InN0YXJ0Ij48dHNwYW4geT0iMTEuMTU5OTk5OTk5OTk5OTk3IiB4PSIwIj48dHNwYW4gZHg9IjAiPuadg+mZkO+8mumAmui/h+aOpeWPoy9pbml0IOiOt+WPluaYr+WQpuS8geW+ruWvueaOpeW8gOWFsyB3ZWNvbVN3aXRjaOW8gOWQrzwvdHNwYW4+PC90c3Bhbj48L3RleHQ+PC9nPjwvZz48L2c+PC9nPjxnIG9wYWNpdHk9IjEiIHRyYW5zZm9ybT0ibWF0cml4KDEsMCwwLDEsODc0LjMsLTM5MS42MjUpIiBpZD0idG9waWMtZmQzNDIyZjAtZjRlNS00ZTFjLThlOGYtOWM4YzBlZWRiNmNiIiBjbGFzcz0icG8tbWluZC10b3BpYyI+PHBhdGggZmlsbD0iI2YyZjJmMiIgdHJhbnNmb3JtPSJtYXRyaXgoMSwwLDAsMSwwLjUsMC41KSIgY2xhc3M9InBvLW1pbmQtdG9waWMtc2hhcGUtZmlsbCIgZD0iTTYsMCBMMzA2LjIsMCBDMzA2LjIsMCAzMTIuMiwwIDMxMi4yLDYgTDMxMi4yLDE5IEMzMTIuMiwxOSAzMTIuMiwyNSAzMDYuMiwyNSYjMTA7ICAgICAgTDYsMjUgQzYsMjUgMCwyNSAwLDE5IEwwLDYgQzAsNiAwLDAgNiwwWiIvPjxwYXRoIHN0cm9rZT0iIzYxNjE2MSIgc3Ryb2tlLXdpZHRoPSIxIiBmaWxsPSJub25lIiB0cmFuc2Zvcm09Im1hdHJpeCgxLDAsMCwxLDAuNSwwLjUpIiBjbGFzcz0icG8tbWluZC10b3BpYy1zaGFwZSIgZD0iTTYsMCBMMzA2LjIsMCBDMzA2LjIsMCAzMTIuMiwwIDMxMi4yLDYgTDMxMi4yLDE5IEMzMTIuMiwxOSAzMTIuMiwyNSAzMDYuMiwyNSYjMTA7ICAgICAgTDYsMjUgQzYsMjUgMCwyNSAwLDE5IEwwLDYgQzAsNiAwLDAgNiwwWiIvPjxnIHRyYW5zZm9ybT0ibWF0cml4KDEsMCwwLDEsNTAuNSw0LjUpIj48ZyB0cmFuc2Zvcm09Im1hdHJpeCgxLDAsMCwxLDAsMCkiIGRhdGEtb2Zmc2V0eD0iMCIgZGF0YS1oZWlnaHQ9IjE3IiBkYXRhLXdpZHRoPSIyMTIuMiI+PGc+PHRleHQgc3R5bGU9ImZvbnQtZmFtaWx5OiDlvq7ova/pm4Xpu5E7Zm9udC1zaXplOiAxMnB4O2ZvbnQtd2VpZ2h0OiBub3JtYWw7Zm9udC1zdHlsZTogbm9ybWFsO2xpbmUtaGVpZ2h0OiAxNDAlO21heC13aWR0aDogOTAwcHg7b3ZlcmZsb3ctd3JhcDogYnJlYWstd29yZDt3b3JkLWJyZWFrOiBicmVhay13b3JkO3RleHQtc2l6ZS1hZGp1c3Q6IDEwMCU7Y29sb3I6IHJnYigwLCAwLCAwKTsiIGZpbGw9InJnYigwLCAwLCAwKSIgZm9udC13ZWlnaHQ9Im5vcm1hbCIgZm9udC1zaXplPSIxMnB4IiBhbGlnbj0idG9wIiB0ZXh0LWFuY2hvcj0ic3RhcnQiPjx0c3BhbiB5PSIxMS4xNTk5OTk5OTk5OTk5OTciIHg9IjAiPjx0c3BhbiBkeD0iMCI+6YCa6L+HL3dmdXNlci93eEJpbmQvdXJsIOiOt+WPlue7keWumuWcsOWdgDwvdHNwYW4+PC90c3Bhbj48L3RleHQ+PC9nPjwvZz48L2c+PC9nPjxnIG9wYWNpdHk9IjEiIHRyYW5zZm9ybT0ibWF0cml4KDEsMCwwLDEsNjg1LjA5OTk5OTk5OTk5OTksLTI4MS42MjUpIiBpZD0idG9waWMtZjljNmUxYzUtNTdlZC00ZDJjLTgyMWMtNDIxMTNkMDRmZjQ0IiBjbGFzcz0icG8tbWluZC10b3BpYyI+PHBhdGggZmlsbD0iI2YyZjJmMiIgdHJhbnNmb3JtPSJtYXRyaXgoMSwwLDAsMSwwLjUsMC41KSIgY2xhc3M9InBvLW1pbmQtdG9waWMtc2hhcGUtZmlsbCIgZD0iTTYsMCBMMTIwLjIsMCBDMTIwLjIsMCAxMjYuMiwwIDEyNi4yLDYgTDEyNi4yLDE5IEMxMjYuMiwxOSAxMjYuMiwyNSAxMjAuMiwyNSYjMTA7ICAgICAgTDYsMjUgQzYsMjUgMCwyNSAwLDE5IEwwLDYgQzAsNiAwLDAgNiwwWiIvPjxwYXRoIHN0cm9rZT0iIzYxNjE2MSIgc3Ryb2tlLXdpZHRoPSIxIiBmaWxsPSJub25lIiB0cmFuc2Zvcm09Im1hdHJpeCgxLDAsMCwxLDAuNSwwLjUpIiBjbGFzcz0icG8tbWluZC10b3BpYy1zaGFwZSIgZD0iTTYsMCBMMTIwLjIsMCBDMTIwLjIsMCAxMjYuMiwwIDEyNi4yLDYgTDEyNi4yLDE5IEMxMjYuMiwxOSAxMjYuMiwyNSAxMjAuMiwyNSYjMTA7ICAgICAgTDYsMjUgQzYsMjUgMCwyNSAwLDE5IEwwLDYgQzAsNiAwLDAgNiwwWiIvPjxnIHRyYW5zZm9ybT0ibWF0cml4KDEsMCwwLDEsNTAuNSw0LjUpIj48ZyB0cmFuc2Zvcm09Im1hdHJpeCgxLDAsMCwxLDAsMCkiIGRhdGEtb2Zmc2V0eD0iMCIgZGF0YS1oZWlnaHQ9IjE3IiBkYXRhLXdpZHRoPSIyNi4yIj48Zz48dGV4dCBzdHlsZT0iZm9udC1mYW1pbHk6IOW+rui9r+mbhem7kTtmb250LXNpemU6IDEycHg7Zm9udC13ZWlnaHQ6IG5vcm1hbDtmb250LXN0eWxlOiBub3JtYWw7bGluZS1oZWlnaHQ6IDE0MCU7bWF4LXdpZHRoOiA5MDBweDtvdmVyZmxvdy13cmFwOiBicmVhay13b3JkO3dvcmQtYnJlYWs6IGJyZWFrLXdvcmQ7dGV4dC1zaXplLWFkanVzdDogMTAwJTtjb2xvcjogcmdiKDAsIDAsIDApOyIgZmlsbD0icmdiKDAsIDAsIDApIiBmb250LXdlaWdodD0ibm9ybWFsIiBmb250LXNpemU9IjEycHgiIGFsaWduPSJ0b3AiIHRleHQtYW5jaG9yPSJzdGFydCI+PHRzcGFuIHk9IjExLjE1OTk5OTk5OTk5OTk5NyIgeD0iMCI+PHRzcGFuIGR4PSIwIj7lkIzmraU8L3RzcGFuPjwvdHNwYW4+PC90ZXh0PjwvZz48L2c+PC9nPjwvZz48ZyBvcGFjaXR5PSIxIiB0cmFuc2Zvcm09Im1hdHJpeCgxLDAsMCwxLDg1MC4zLC0zMzYuNjI1KSIgaWQ9InRvcGljLTM1ZThjOTQzLTFjNzMtNGY1MC1hNzU1LTA2MzNhZWMxYzg0NSIgY2xhc3M9InBvLW1pbmQtdG9waWMiPjxwYXRoIGZpbGw9IiNmMmYyZjIiIHRyYW5zZm9ybT0ibWF0cml4KDEsMCwwLDEsMC41LDAuNSkiIGNsYXNzPSJwby1taW5kLXRvcGljLXNoYXBlLWZpbGwiIGQ9Ik02LDAgTDI5MC4yLDAgQzI5MC4yLDAgMjk2LjIsMCAyOTYuMiw2IEwyOTYuMiwxOSBDMjk2LjIsMTkgMjk2LjIsMjUgMjkwLjIsMjUmIzEwOyAgICAgIEw2LDI1IEM2LDI1IDAsMjUgMCwxOSBMMCw2IEMwLDYgMCwwIDYsMFoiLz48cGF0aCBzdHJva2U9IiM2MTYxNjEiIHN0cm9rZS13aWR0aD0iMSIgZmlsbD0ibm9uZSIgdHJhbnNmb3JtPSJtYXRyaXgoMSwwLDAsMSwwLjUsMC41KSIgY2xhc3M9InBvLW1pbmQtdG9waWMtc2hhcGUiIGQ9Ik02LDAgTDI5MC4yLDAgQzI5MC4yLDAgMjk2LjIsMCAyOTYuMiw2IEwyOTYuMiwxOSBDMjk2LjIsMTkgMjk2LjIsMjUgMjkwLjIsMjUmIzEwOyAgICAgIEw2LDI1IEM2LDI1IDAsMjUgMCwxOSBMMCw2IEMwLDYgMCwwIDYsMFoiLz48ZyB0cmFuc2Zvcm09Im1hdHJpeCgxLDAsMCwxLDUwLjUsNC41KSI+PGcgdHJhbnNmb3JtPSJtYXRyaXgoMSwwLDAsMSwwLDApIiBkYXRhLW9mZnNldHg9IjAiIGRhdGEtaGVpZ2h0PSIxNyIgZGF0YS13aWR0aD0iMTk2LjIiPjxnPjx0ZXh0IHN0eWxlPSJmb250LWZhbWlseTog5b6u6L2v6ZuF6buRO2ZvbnQtc2l6ZTogMTJweDtmb250LXdlaWdodDogbm9ybWFsO2ZvbnQtc3R5bGU6IG5vcm1hbDtsaW5lLWhlaWdodDogMTQwJTttYXgtd2lkdGg6IDkwMHB4O292ZXJmbG93LXdyYXA6IGJyZWFrLXdvcmQ7d29yZC1icmVhazogYnJlYWstd29yZDt0ZXh0LXNpemUtYWRqdXN0OiAxMDAlO2NvbG9yOiByZ2IoMCwgMCwgMCk7IiBmaWxsPSJyZ2IoMCwgMCwgMCkiIGZvbnQtd2VpZ2h0PSJub3JtYWwiIGZvbnQtc2l6ZT0iMTJweCIgYWxpZ249InRvcCIgdGV4dC1hbmNob3I9InN0YXJ0Ij48dHNwYW4geT0iMTEuMTU5OTk5OTk5OTk5OTk3IiB4PSIwIj48dHNwYW4gZHg9IjAiPuadg+mZkO+8mmJ1dHRvbjpzeXN0ZW06b3JnOnN5bmNFbXA8L3RzcGFuPjwvdHNwYW4+PC90ZXh0PjwvZz48L2c+PC9nPjwvZz48ZyBvcGFjaXR5PSIxIiB0cmFuc2Zvcm09Im1hdHJpeCgxLDAsMCwxLDg1MC4zLC0yODEuNjI1KSIgaWQ9InRvcGljLTk4NDZkYWJjLTU2NDEtNDliYS05ZWM5LTZkZDUwODNkMDE2OCIgY2xhc3M9InBvLW1pbmQtdG9waWMiPjxwYXRoIGZpbGw9IiNmMmYyZjIiIHRyYW5zZm9ybT0ibWF0cml4KDEsMCwwLDEsMC41LDAuNSkiIGNsYXNzPSJwby1taW5kLXRvcGljLXNoYXBlLWZpbGwiIGQ9Ik02LDAgTDQxMC4yLDAgQzQxMC4yLDAgNDE2LjIsMCA0MTYuMiw2IEw0MTYuMiwxOSBDNDE2LjIsMTkgNDE2LjIsMjUgNDEwLjIsMjUmIzEwOyAgICAgIEw2LDI1IEM2LDI1IDAsMjUgMCwxOSBMMCw2IEMwLDYgMCwwIDYsMFoiLz48cGF0aCBzdHJva2U9IiM2MTYxNjEiIHN0cm9rZS13aWR0aD0iMSIgZmlsbD0ibm9uZSIgdHJhbnNmb3JtPSJtYXRyaXgoMSwwLDAsMSwwLjUsMC41KSIgY2xhc3M9InBvLW1pbmQtdG9waWMtc2hhcGUiIGQ9Ik02LDAgTDQxMC4yLDAgQzQxMC4yLDAgNDE2LjIsMCA0MTYuMiw2IEw0MTYuMiwxOSBDNDE2LjIsMTkgNDE2LjIsMjUgNDEwLjIsMjUmIzEwOyAgICAgIEw2LDI1IEM2LDI1IDAsMjUgMCwxOSBMMCw2IEMwLDYgMCwwIDYsMFoiLz48ZyB0cmFuc2Zvcm09Im1hdHJpeCgxLDAsMCwxLDUwLjUsNC41KSI+PGcgdHJhbnNmb3JtPSJtYXRyaXgoMSwwLDAsMSwwLDApIiBkYXRhLW9mZnNldHg9IjAiIGRhdGEtaGVpZ2h0PSIxNyIgZGF0YS13aWR0aD0iMzE2LjIiPjxnPjx0ZXh0IHN0eWxlPSJmb250LWZhbWlseTog5b6u6L2v6ZuF6buRO2ZvbnQtc2l6ZTogMTJweDtmb250LXdlaWdodDogbm9ybWFsO2ZvbnQtc3R5bGU6IG5vcm1hbDtsaW5lLWhlaWdodDogMTQwJTttYXgtd2lkdGg6IDkwMHB4O292ZXJmbG93LXdyYXA6IGJyZWFrLXdvcmQ7d29yZC1icmVhazogYnJlYWstd29yZDt0ZXh0LXNpemUtYWRqdXN0OiAxMDAlO2NvbG9yOiByZ2IoMCwgMCwgMCk7IiBmaWxsPSJyZ2IoMCwgMCwgMCkiIGZvbnQtd2VpZ2h0PSJub3JtYWwiIGZvbnQtc2l6ZT0iMTJweCIgYWxpZ249InRvcCIgdGV4dC1hbmNob3I9InN0YXJ0Ij48dHNwYW4geT0iMTEuMTU5OTk5OTk5OTk5OTk3IiB4PSIwIj48dHNwYW4gZHg9IjAiPumAmui/hy9hc3luY1Rhc2svYXN5bmNJbmZvL1VTRVJfU1lOQ+iOt+WPluacgOaWsOabtOaWsOaVsOaNrjwvdHNwYW4+PC90c3Bhbj48L3RleHQ+PC9nPjwvZz48L2c+PC9nPjxnIG9wYWNpdHk9IjEiIHRyYW5zZm9ybT0ibWF0cml4KDEsMCwwLDEsODUwLjMsLTIyNi42MjUpIiBpZD0idG9waWMtYTgyNDA1NmMtZjU4MS00NzIzLTg3MDQtNjA4NjhjZmZlNDlmIiBjbGFzcz0icG8tbWluZC10b3BpYyI+PHBhdGggZmlsbD0iI2YyZjJmMiIgdHJhbnNmb3JtPSJtYXRyaXgoMSwwLDAsMSwwLjUsMC41KSIgY2xhc3M9InBvLW1pbmQtdG9waWMtc2hhcGUtZmlsbCIgZD0iTTYsMCBMMzMyLjIsMCBDMzMyLjIsMCAzMzguMiwwIDMzOC4yLDYgTDMzOC4yLDE5IEMzMzguMiwxOSAzMzguMiwyNSAzMzIuMiwyNSYjMTA7ICAgICAgTDYsMjUgQzYsMjUgMCwyNSAwLDE5IEwwLDYgQzAsNiAwLDAgNiwwWiIvPjxwYXRoIHN0cm9rZT0iIzYxNjE2MSIgc3Ryb2tlLXdpZHRoPSIxIiBmaWxsPSJub25lIiB0cmFuc2Zvcm09Im1hdHJpeCgxLDAsMCwxLDAuNSwwLjUpIiBjbGFzcz0icG8tbWluZC10b3BpYy1zaGFwZSIgZD0iTTYsMCBMMzMyLjIsMCBDMzMyLjIsMCAzMzguMiwwIDMzOC4yLDYgTDMzOC4yLDE5IEMzMzguMiwxOSAzMzguMiwyNSAzMzIuMiwyNSYjMTA7ICAgICAgTDYsMjUgQzYsMjUgMCwyNSAwLDE5IEwwLDYgQzAsNiAwLDAgNiwwWiIvPjxnIHRyYW5zZm9ybT0ibWF0cml4KDEsMCwwLDEsNTAuNSw0LjUpIj48ZyB0cmFuc2Zvcm09Im1hdHJpeCgxLDAsMCwxLDAsMCkiIGRhdGEtb2Zmc2V0eD0iMCIgZGF0YS1oZWlnaHQ9IjE3IiBkYXRhLXdpZHRoPSIyMzguMiI+PGc+PHRleHQgc3R5bGU9ImZvbnQtZmFtaWx5OiDlvq7ova/pm4Xpu5E7Zm9udC1zaXplOiAxMnB4O2ZvbnQtd2VpZ2h0OiBub3JtYWw7Zm9udC1zdHlsZTogbm9ybWFsO2xpbmUtaGVpZ2h0OiAxNDAlO21heC13aWR0aDogOTAwcHg7b3ZlcmZsb3ctd3JhcDogYnJlYWstd29yZDt3b3JkLWJyZWFrOiBicmVhay13b3JkO3RleHQtc2l6ZS1hZGp1c3Q6IDEwMCU7Y29sb3I6IHJnYigwLCAwLCAwKTsiIGZpbGw9InJnYigwLCAwLCAwKSIgZm9udC13ZWlnaHQ9Im5vcm1hbCIgZm9udC1zaXplPSIxMnB4IiBhbGlnbj0idG9wIiB0ZXh0LWFuY2hvcj0ic3RhcnQiPjx0c3BhbiB5PSIxMS4xNTk5OTk5OTk5OTk5OTciIHg9IjAiPjx0c3BhbiBkeD0iMCI+6YCa6L+HL2FzeW5jVGFzay9zeW5jL1VTRVJfU1lOQ+abtOaWsOaVsOaNrjwvdHNwYW4+PC90c3Bhbj48L3RleHQ+PC9nPjwvZz48L2c+PC9nPjxnIG9wYWNpdHk9IjEiIHRyYW5zZm9ybT0ibWF0cml4KDEsMCwwLDEsNjg1LjA5OTk5OTk5OTk5OTksLTE0NC4xMjUpIiBpZD0idG9waWMtZTQzNGYyZjYtNzljYi00ZWZhLTgyZjAtMDcwZjA5YTJlYTBiIiBjbGFzcz0icG8tbWluZC10b3BpYyI+PHBhdGggZmlsbD0iI2YyZjJmMiIgdHJhbnNmb3JtPSJtYXRyaXgoMSwwLDAsMSwwLjUsMC41KSIgY2xhc3M9InBvLW1pbmQtdG9waWMtc2hhcGUtZmlsbCIgZD0iTTYsMCBMMTMyLjIsMCBDMTMyLjIsMCAxMzguMiwwIDEzOC4yLDYgTDEzOC4yLDE5IEMxMzguMiwxOSAxMzguMiwyNSAxMzIuMiwyNSYjMTA7ICAgICAgTDYsMjUgQzYsMjUgMCwyNSAwLDE5IEwwLDYgQzAsNiAwLDAgNiwwWiIvPjxwYXRoIHN0cm9rZT0iIzYxNjE2MSIgc3Ryb2tlLXdpZHRoPSIxIiBmaWxsPSJub25lIiB0cmFuc2Zvcm09Im1hdHJpeCgxLDAsMCwxLDAuNSwwLjUpIiBjbGFzcz0icG8tbWluZC10b3BpYy1zaGFwZSIgZD0iTTYsMCBMMTMyLjIsMCBDMTMyLjIsMCAxMzguMiwwIDEzOC4yLDYgTDEzOC4yLDE5IEMxMzguMiwxOSAxMzguMiwyNSAxMzIuMiwyNSYjMTA7ICAgICAgTDYsMjUgQzYsMjUgMCwyNSAwLDE5IEwwLDYgQzAsNiAwLDAgNiwwWiIvPjxnIHRyYW5zZm9ybT0ibWF0cml4KDEsMCwwLDEsNTAuNSw0LjUpIj48ZyB0cmFuc2Zvcm09Im1hdHJpeCgxLDAsMCwxLDAsMCkiIGRhdGEtb2Zmc2V0eD0iMCIgZGF0YS1oZWlnaHQ9IjE3IiBkYXRhLXdpZHRoPSIzOC4yIj48Zz48dGV4dCBzdHlsZT0iZm9udC1mYW1pbHk6IOW+rui9r+mbhem7kTtmb250LXNpemU6IDEycHg7Zm9udC13ZWlnaHQ6IG5vcm1hbDtmb250LXN0eWxlOiBub3JtYWw7bGluZS1oZWlnaHQ6IDE0MCU7bWF4LXdpZHRoOiA5MDBweDtvdmVyZmxvdy13cmFwOiBicmVhay13b3JkO3dvcmQtYnJlYWs6IGJyZWFrLXdvcmQ7dGV4dC1zaXplLWFkanVzdDogMTAwJTtjb2xvcjogcmdiKDAsIDAsIDApOyIgZmlsbD0icmdiKDAsIDAsIDApIiBmb250LXdlaWdodD0ibm9ybWFsIiBmb250LXNpemU9IjEycHgiIGFsaWduPSJ0b3AiIHRleHQtYW5jaG9yPSJzdGFydCI+PHRzcGFuIHk9IjExLjE1OTk5OTk5OTk5OTk5NyIgeD0iMCI+PHRzcGFuIGR4PSIwIj7liJfmjqfliLY8L3RzcGFuPjwvdHNwYW4+PC90ZXh0PjwvZz48L2c+PC9nPjwvZz48ZyBvcGFjaXR5PSIxIiB0cmFuc2Zvcm09Im1hdHJpeCgxLDAsMCwxLDg2Mi4zLC0xNzEuNjI1KSIgaWQ9InRvcGljLWRkY2NlZDQwLTU1ODgtNGM3NS05MDQ3LWZkZDgzMmE5MDQwYSIgY2xhc3M9InBvLW1pbmQtdG9waWMiPjxwYXRoIGZpbGw9IiNmMmYyZjIiIHRyYW5zZm9ybT0ibWF0cml4KDEsMCwwLDEsMC41LDAuNSkiIGNsYXNzPSJwby1taW5kLXRvcGljLXNoYXBlLWZpbGwiIGQ9Ik02LDAgTDI3Ny4yLDAgQzI3Ny4yLDAgMjgzLjIsMCAyODMuMiw2IEwyODMuMiwxOSBDMjgzLjIsMTkgMjgzLjIsMjUgMjc3LjIsMjUmIzEwOyAgICAgIEw2LDI1IEM2LDI1IDAsMjUgMCwxOSBMMCw2IEMwLDYgMCwwIDYsMFoiLz48cGF0aCBzdHJva2U9IiM2MTYxNjEiIHN0cm9rZS13aWR0aD0iMSIgZmlsbD0ibm9uZSIgdHJhbnNmb3JtPSJtYXRyaXgoMSwwLDAsMSwwLjUsMC41KSIgY2xhc3M9InBvLW1pbmQtdG9waWMtc2hhcGUiIGQ9Ik02LDAgTDI3Ny4yLDAgQzI3Ny4yLDAgMjgzLjIsMCAyODMuMiw2IEwyODMuMiwxOSBDMjgzLjIsMTkgMjgzLjIsMjUgMjc3LjIsMjUmIzEwOyAgICAgIEw2LDI1IEM2LDI1IDAsMjUgMCwxOSBMMCw2IEMwLDYgMCwwIDYsMFoiLz48ZyB0cmFuc2Zvcm09Im1hdHJpeCgxLDAsMCwxLDUwLjUsNC41KSI+PGcgdHJhbnNmb3JtPSJtYXRyaXgoMSwwLDAsMSwwLDApIiBkYXRhLW9mZnNldHg9IjAiIGRhdGEtaGVpZ2h0PSIxNyIgZGF0YS13aWR0aD0iMTgzLjIiPjxnPjx0ZXh0IHN0eWxlPSJmb250LWZhbWlseTog5b6u6L2v6ZuF6buRO2ZvbnQtc2l6ZTogMTJweDtmb250LXdlaWdodDogbm9ybWFsO2ZvbnQtc3R5bGU6IG5vcm1hbDtsaW5lLWhlaWdodDogMTQwJTttYXgtd2lkdGg6IDkwMHB4O292ZXJmbG93LXdyYXA6IGJyZWFrLXdvcmQ7d29yZC1icmVhazogYnJlYWstd29yZDt0ZXh0LXNpemUtYWRqdXN0OiAxMDAlO2NvbG9yOiByZ2IoMCwgMCwgMCk7IiBmaWxsPSJyZ2IoMCwgMCwgMCkiIGZvbnQtd2VpZ2h0PSJub3JtYWwiIGZvbnQtc2l6ZT0iMTJweCIgYWxpZ249InRvcCIgdGV4dC1hbmNob3I9InN0YXJ0Ij48dHNwYW4geT0iMTEuMTU5OTk5OTk5OTk5OTk3IiB4PSIwIj48dHNwYW4gZHg9IjAiPuiOt+WPluWIl++8mi9jb2x1bW5JbmZvLyR7cGFyYW1zfTwvdHNwYW4+PC90c3Bhbj48L3RleHQ+PC9nPjwvZz48L2c+PC9nPjxnIG9wYWNpdHk9IjEiIHRyYW5zZm9ybT0ibWF0cml4KDEsMCwwLDEsODYyLjMsLTExNi42MjUpIiBpZD0idG9waWMtOTA3OTk2MDYtNjZmOC00YWM2LTg0ZTUtMTUyMjA0YmQxN2E2IiBjbGFzcz0icG8tbWluZC10b3BpYyI+PHBhdGggZmlsbD0iI2YyZjJmMiIgdHJhbnNmb3JtPSJtYXRyaXgoMSwwLDAsMSwwLjUsMC41KSIgY2xhc3M9InBvLW1pbmQtdG9waWMtc2hhcGUtZmlsbCIgZD0iTTYsMCBMMjE1LjIsMCBDMjE1LjIsMCAyMjEuMiwwIDIyMS4yLDYgTDIyMS4yLDE5IEMyMjEuMiwxOSAyMjEuMiwyNSAyMTUuMiwyNSYjMTA7ICAgICAgTDYsMjUgQzYsMjUgMCwyNSAwLDE5IEwwLDYgQzAsNiAwLDAgNiwwWiIvPjxwYXRoIHN0cm9rZT0iIzYxNjE2MSIgc3Ryb2tlLXdpZHRoPSIxIiBmaWxsPSJub25lIiB0cmFuc2Zvcm09Im1hdHJpeCgxLDAsMCwxLDAuNSwwLjUpIiBjbGFzcz0icG8tbWluZC10b3BpYy1zaGFwZSIgZD0iTTYsMCBMMjE1LjIsMCBDMjE1LjIsMCAyMjEuMiwwIDIyMS4yLDYgTDIyMS4yLDE5IEMyMjEuMiwxOSAyMjEuMiwyNSAyMTUuMiwyNSYjMTA7ICAgICAgTDYsMjUgQzYsMjUgMCwyNSAwLDE5IEwwLDYgQzAsNiAwLDAgNiwwWiIvPjxnIHRyYW5zZm9ybT0ibWF0cml4KDEsMCwwLDEsNTAuNSw0LjUpIj48ZyB0cmFuc2Zvcm09Im1hdHJpeCgxLDAsMCwxLDAsMCkiIGRhdGEtb2Zmc2V0eD0iMCIgZGF0YS1oZWlnaHQ9IjE3IiBkYXRhLXdpZHRoPSIxMjEuMiI+PGc+PHRleHQgc3R5bGU9ImZvbnQtZmFtaWx5OiDlvq7ova/pm4Xpu5E7Zm9udC1zaXplOiAxMnB4O2ZvbnQtd2VpZ2h0OiBub3JtYWw7Zm9udC1zdHlsZTogbm9ybWFsO2xpbmUtaGVpZ2h0OiAxNDAlO21heC13aWR0aDogOTAwcHg7b3ZlcmZsb3ctd3JhcDogYnJlYWstd29yZDt3b3JkLWJyZWFrOiBicmVhay13b3JkO3RleHQtc2l6ZS1hZGp1c3Q6IDEwMCU7Y29sb3I6IHJnYigwLCAwLCAwKTsiIGZpbGw9InJnYigwLCAwLCAwKSIgZm9udC13ZWlnaHQ9Im5vcm1hbCIgZm9udC1zaXplPSIxMnB4IiBhbGlnbj0idG9wIiB0ZXh0LWFuY2hvcj0ic3RhcnQiPjx0c3BhbiB5PSIxMS4xNTk5OTk5OTk5OTk5OTciIHg9IjAiPjx0c3BhbiBkeD0iMCI+5L+u5pS55YiX77yaL2NvbHVtbkluZm88L3RzcGFuPjwvdHNwYW4+PC90ZXh0PjwvZz48L2c+PC9nPjwvZz48ZyBvcGFjaXR5PSIxIiB0cmFuc2Zvcm09Im1hdHJpeCgxLDAsMCwxLDY4NS4wOTk5OTk5OTk5OTk5LC0zNC4xMjUpIiBpZD0idG9waWMtODM5NDI0YzMtMWE2Mi00ZDkwLTkzM2MtZjI5ZGYwY2U5YTBhIiBjbGFzcz0icG8tbWluZC10b3BpYyI+PHBhdGggZmlsbD0iI2YyZjJmMiIgdHJhbnNmb3JtPSJtYXRyaXgoMSwwLDAsMSwwLjUsMC41KSIgY2xhc3M9InBvLW1pbmQtdG9waWMtc2hhcGUtZmlsbCIgZD0iTTYsMCBMMTIwLjIsMCBDMTIwLjIsMCAxMjYuMiwwIDEyNi4yLDYgTDEyNi4yLDE5IEMxMjYuMiwxOSAxMjYuMiwyNSAxMjAuMiwyNSYjMTA7ICAgICAgTDYsMjUgQzYsMjUgMCwyNSAwLDE5IEwwLDYgQzAsNiAwLDAgNiwwWiIvPjxwYXRoIHN0cm9rZT0iIzYxNjE2MSIgc3Ryb2tlLXdpZHRoPSIxIiBmaWxsPSJub25lIiB0cmFuc2Zvcm09Im1hdHJpeCgxLDAsMCwxLDAuNSwwLjUpIiBjbGFzcz0icG8tbWluZC10b3BpYy1zaGFwZSIgZD0iTTYsMCBMMTIwLjIsMCBDMTIwLjIsMCAxMjYuMiwwIDEyNi4yLDYgTDEyNi4yLDE5IEMxMjYuMiwxOSAxMjYuMiwyNSAxMjAuMiwyNSYjMTA7ICAgICAgTDYsMjUgQzYsMjUgMCwyNSAwLDE5IEwwLDYgQzAsNiAwLDAgNiwwWiIvPjxnIHRyYW5zZm9ybT0ibWF0cml4KDEsMCwwLDEsNTAuNSw0LjUpIj48ZyB0cmFuc2Zvcm09Im1hdHJpeCgxLDAsMCwxLDAsMCkiIGRhdGEtb2Zmc2V0eD0iMCIgZGF0YS1oZWlnaHQ9IjE3IiBkYXRhLXdpZHRoPSIyNi4yIj48Zz48dGV4dCBzdHlsZT0iZm9udC1mYW1pbHk6IOW+rui9r+mbhem7kTtmb250LXNpemU6IDEycHg7Zm9udC13ZWlnaHQ6IG5vcm1hbDtmb250LXN0eWxlOiBub3JtYWw7bGluZS1oZWlnaHQ6IDE0MCU7bWF4LXdpZHRoOiA5MDBweDtvdmVyZmxvdy13cmFwOiBicmVhay13b3JkO3dvcmQtYnJlYWs6IGJyZWFrLXdvcmQ7dGV4dC1zaXplLWFkanVzdDogMTAwJTtjb2xvcjogcmdiKDAsIDAsIDApOyIgZmlsbD0icmdiKDAsIDAsIDApIiBmb250LXdlaWdodD0ibm9ybWFsIiBmb250LXNpemU9IjEycHgiIGFsaWduPSJ0b3AiIHRleHQtYW5jaG9yPSJzdGFydCI+PHRzcGFuIHk9IjExLjE1OTk5OTk5OTk5OTk5NyIgeD0iMCI+PHRzcGFuIGR4PSIwIj7nvJbovpE8L3RzcGFuPjwvdHNwYW4+PC90ZXh0PjwvZz48L2c+PC9nPjwvZz48ZyBvcGFjaXR5PSIxIiB0cmFuc2Zvcm09Im1hdHJpeCgxLDAsMCwxLDg1MC4zLC02MS42MjUpIiBpZD0idG9waWMtNzBiMmUxNmUtYzE0Ny00YmI4LWIyNTAtZmQ0NTc5NjUyZTRmIiBjbGFzcz0icG8tbWluZC10b3BpYyI+PHBhdGggZmlsbD0iI2YyZjJmMiIgdHJhbnNmb3JtPSJtYXRyaXgoMSwwLDAsMSwwLjUsMC41KSIgY2xhc3M9InBvLW1pbmQtdG9waWMtc2hhcGUtZmlsbCIgZD0iTTYsMCBMMjg3LjIsMCBDMjg3LjIsMCAyOTMuMiwwIDI5My4yLDYgTDI5My4yLDE5IEMyOTMuMiwxOSAyOTMuMiwyNSAyODcuMiwyNSYjMTA7ICAgICAgTDYsMjUgQzYsMjUgMCwyNSAwLDE5IEwwLDYgQzAsNiAwLDAgNiwwWiIvPjxwYXRoIHN0cm9rZT0iIzYxNjE2MSIgc3Ryb2tlLXdpZHRoPSIxIiBmaWxsPSJub25lIiB0cmFuc2Zvcm09Im1hdHJpeCgxLDAsMCwxLDAuNSwwLjUpIiBjbGFzcz0icG8tbWluZC10b3BpYy1zaGFwZSIgZD0iTTYsMCBMMjg3LjIsMCBDMjg3LjIsMCAyOTMuMiwwIDI5My4yLDYgTDI5My4yLDE5IEMyOTMuMiwxOSAyOTMuMiwyNSAyODcuMiwyNSYjMTA7ICAgICAgTDYsMjUgQzYsMjUgMCwyNSAwLDE5IEwwLDYgQzAsNiAwLDAgNiwwWiIvPjxnIHRyYW5zZm9ybT0ibWF0cml4KDEsMCwwLDEsNTAuNSw0LjUpIj48ZyB0cmFuc2Zvcm09Im1hdHJpeCgxLDAsMCwxLDAsMCkiIGRhdGEtb2Zmc2V0eD0iMCIgZGF0YS1oZWlnaHQ9IjE3IiBkYXRhLXdpZHRoPSIxOTMuMiI+PGc+PHRleHQgc3R5bGU9ImZvbnQtZmFtaWx5OiDlvq7ova/pm4Xpu5E7Zm9udC1zaXplOiAxMnB4O2ZvbnQtd2VpZ2h0OiBub3JtYWw7Zm9udC1zdHlsZTogbm9ybWFsO2xpbmUtaGVpZ2h0OiAxNDAlO21heC13aWR0aDogOTAwcHg7b3ZlcmZsb3ctd3JhcDogYnJlYWstd29yZDt3b3JkLWJyZWFrOiBicmVhay13b3JkO3RleHQtc2l6ZS1hZGp1c3Q6IDEwMCU7Y29sb3I6IHJnYigwLCAwLCAwKTsiIGZpbGw9InJnYigwLCAwLCAwKSIgZm9udC13ZWlnaHQ9Im5vcm1hbCIgZm9udC1zaXplPSIxMnB4IiBhbGlnbj0idG9wIiB0ZXh0LWFuY2hvcj0ic3RhcnQiPjx0c3BhbiB5PSIxMS4xNTk5OTk5OTk5OTk5OTciIHg9IjAiPjx0c3BhbiBkeD0iMCI+5p2D6ZmQ77yaYnV0dG9uOnN5c3RlbTpvcmc6ZWRpdEVtcDwvdHNwYW4+PC90c3Bhbj48L3RleHQ+PC9nPjwvZz48L2c+PC9nPjxnIG9wYWNpdHk9IjEiIHRyYW5zZm9ybT0ibWF0cml4KDEsMCwwLDEsODUwLjMsLTYuNjI1KSIgaWQ9InRvcGljLTljODEzMzMzLWIyMTYtNDhlOC05NGI1LWEyMjlkZmRlNzMwZSIgY2xhc3M9InBvLW1pbmQtdG9waWMiPjxwYXRoIGZpbGw9IiNmMmYyZjIiIHRyYW5zZm9ybT0ibWF0cml4KDEsMCwwLDEsMC41LDAuNSkiIGNsYXNzPSJwby1taW5kLXRvcGljLXNoYXBlLWZpbGwiIGQ9Ik02LDAgTDI4NS4yLDAgQzI4NS4yLDAgMjkxLjIsMCAyOTEuMiw2IEwyOTEuMiwxOSBDMjkxLjIsMTkgMjkxLjIsMjUgMjg1LjIsMjUmIzEwOyAgICAgIEw2LDI1IEM2LDI1IDAsMjUgMCwxOSBMMCw2IEMwLDYgMCwwIDYsMFoiLz48cGF0aCBzdHJva2U9IiM2MTYxNjEiIHN0cm9rZS13aWR0aD0iMSIgZmlsbD0ibm9uZSIgdHJhbnNmb3JtPSJtYXRyaXgoMSwwLDAsMSwwLjUsMC41KSIgY2xhc3M9InBvLW1pbmQtdG9waWMtc2hhcGUiIGQ9Ik02LDAgTDI4NS4yLDAgQzI4NS4yLDAgMjkxLjIsMCAyOTEuMiw2IEwyOTEuMiwxOSBDMjkxLjIsMTkgMjkxLjIsMjUgMjg1LjIsMjUmIzEwOyAgICAgIEw2LDI1IEM2LDI1IDAsMjUgMCwxOSBMMCw2IEMwLDYgMCwwIDYsMFoiLz48ZyB0cmFuc2Zvcm09Im1hdHJpeCgxLDAsMCwxLDUwLjUsNC41KSI+PGcgdHJhbnNmb3JtPSJtYXRyaXgoMSwwLDAsMSwwLDApIiBkYXRhLW9mZnNldHg9IjAiIGRhdGEtaGVpZ2h0PSIxNyIgZGF0YS13aWR0aD0iMTkxLjIiPjxnPjx0ZXh0IHN0eWxlPSJmb250LWZhbWlseTog5b6u6L2v6ZuF6buRO2ZvbnQtc2l6ZTogMTJweDtmb250LXdlaWdodDogbm9ybWFsO2ZvbnQtc3R5bGU6IG5vcm1hbDtsaW5lLWhlaWdodDogMTQwJTttYXgtd2lkdGg6IDkwMHB4O292ZXJmbG93LXdyYXA6IGJyZWFrLXdvcmQ7d29yZC1icmVhazogYnJlYWstd29yZDt0ZXh0LXNpemUtYWRqdXN0OiAxMDAlO2NvbG9yOiByZ2IoMCwgMCwgMCk7IiBmaWxsPSJyZ2IoMCwgMCwgMCkiIGZvbnQtd2VpZ2h0PSJub3JtYWwiIGZvbnQtc2l6ZT0iMTJweCIgYWxpZ249InRvcCIgdGV4dC1hbmNob3I9InN0YXJ0Ij48dHNwYW4geT0iMTEuMTU5OTk5OTk5OTk5OTk3IiB4PSIwIj48dHNwYW4gZHg9IjAiPuaOpeWPo++8mih1cmw6IC93ZnVzZXIsIG1ldGhvZDogUFVUKTwvdHNwYW4+PC90c3Bhbj48L3RleHQ+PC9nPjwvZz48L2c+PC9nPjxnIG9wYWNpdHk9IjEiIHRyYW5zZm9ybT0ibWF0cml4KDEsMCwwLDEsNjg1LjA5OTk5OTk5OTk5OTksNzUuODc1KSIgaWQ9InRvcGljLTNmOWIwMWRmLWMyMWEtNGU2OS04ZDZmLTRlYTZlOWU1ZmYwOSIgY2xhc3M9InBvLW1pbmQtdG9waWMiPjxwYXRoIGZpbGw9IiNmMmYyZjIiIHRyYW5zZm9ybT0ibWF0cml4KDEsMCwwLDEsMC41LDAuNSkiIGNsYXNzPSJwby1taW5kLXRvcGljLXNoYXBlLWZpbGwiIGQ9Ik02LDAgTDE5OC4yLDAgQzE5OC4yLDAgMjA0LjIsMCAyMDQuMiw2IEwyMDQuMiwxOSBDMjA0LjIsMTkgMjA0LjIsMjUgMTk4LjIsMjUmIzEwOyAgICAgIEw2LDI1IEM2LDI1IDAsMjUgMCwxOSBMMCw2IEMwLDYgMCwwIDYsMFoiLz48cGF0aCBzdHJva2U9IiM2MTYxNjEiIHN0cm9rZS13aWR0aD0iMSIgZmlsbD0ibm9uZSIgdHJhbnNmb3JtPSJtYXRyaXgoMSwwLDAsMSwwLjUsMC41KSIgY2xhc3M9InBvLW1pbmQtdG9waWMtc2hhcGUiIGQ9Ik02LDAgTDE5OC4yLDAgQzE5OC4yLDAgMjA0LjIsMCAyMDQuMiw2IEwyMDQuMiwxOSBDMjA0LjIsMTkgMjA0LjIsMjUgMTk4LjIsMjUmIzEwOyAgICAgIEw2LDI1IEM2LDI1IDAsMjUgMCwxOSBMMCw2IEMwLDYgMCwwIDYsMFoiLz48ZyB0cmFuc2Zvcm09Im1hdHJpeCgxLDAsMCwxLDUwLjUsNC41KSI+PGcgdHJhbnNmb3JtPSJtYXRyaXgoMSwwLDAsMSwwLDApIiBkYXRhLW9mZnNldHg9IjAiIGRhdGEtaGVpZ2h0PSIxNyIgZGF0YS13aWR0aD0iMTA0LjIiPjxnPjx0ZXh0IHN0eWxlPSJmb250LWZhbWlseTog5b6u6L2v6ZuF6buRO2ZvbnQtc2l6ZTogMTJweDtmb250LXdlaWdodDogbm9ybWFsO2ZvbnQtc3R5bGU6IG5vcm1hbDtsaW5lLWhlaWdodDogMTQwJTttYXgtd2lkdGg6IDkwMHB4O292ZXJmbG93LXdyYXA6IGJyZWFrLXdvcmQ7d29yZC1icmVhazogYnJlYWstd29yZDt0ZXh0LXNpemUtYWRqdXN0OiAxMDAlO2NvbG9yOiByZ2IoMCwgMCwgMCk7IiBmaWxsPSJyZ2IoMCwgMCwgMCkiIGZvbnQtd2VpZ2h0PSJub3JtYWwiIGZvbnQtc2l6ZT0iMTJweCIgYWxpZ249InRvcCIgdGV4dC1hbmNob3I9InN0YXJ0Ij48dHNwYW4geT0iMTEuMTU5OTk5OTk5OTk5OTk3IiB4PSIwIj48dHNwYW4gZHg9IjAiPuWFs+mXreezu+e7ny/lvIDlkK/ns7vnu588L3RzcGFuPjwvdHNwYW4+PC90ZXh0PjwvZz48L2c+PC9nPjwvZz48ZyBvcGFjaXR5PSIxIiB0cmFuc2Zvcm09Im1hdHJpeCgxLDAsMCwxLDkyOC4zLDQ4LjM3NSkiIGlkPSJ0b3BpYy1lYzMyNTFkMS0xMTRmLTRkZWQtYjhkYi0yN2U2NjZlNjJkNTkiIGNsYXNzPSJwby1taW5kLXRvcGljIj48cGF0aCBmaWxsPSIjZjJmMmYyIiB0cmFuc2Zvcm09Im1hdHJpeCgxLDAsMCwxLDAuNSwwLjUpIiBjbGFzcz0icG8tbWluZC10b3BpYy1zaGFwZS1maWxsIiBkPSJNNiwwIEwzMDAuMiwwIEMzMDAuMiwwIDMwNi4yLDAgMzA2LjIsNiBMMzA2LjIsMTkgQzMwNi4yLDE5IDMwNi4yLDI1IDMwMC4yLDI1JiMxMDsgICAgICBMNiwyNSBDNiwyNSAwLDI1IDAsMTkgTDAsNiBDMCw2IDAsMCA2LDBaIi8+PHBhdGggc3Ryb2tlPSIjNjE2MTYxIiBzdHJva2Utd2lkdGg9IjEiIGZpbGw9Im5vbmUiIHRyYW5zZm9ybT0ibWF0cml4KDEsMCwwLDEsMC41LDAuNSkiIGNsYXNzPSJwby1taW5kLXRvcGljLXNoYXBlIiBkPSJNNiwwIEwzMDAuMiwwIEMzMDAuMiwwIDMwNi4yLDAgMzA2LjIsNiBMMzA2LjIsMTkgQzMwNi4yLDE5IDMwNi4yLDI1IDMwMC4yLDI1JiMxMDsgICAgICBMNiwyNSBDNiwyNSAwLDI1IDAsMTkgTDAsNiBDMCw2IDAsMCA2LDBaIi8+PGcgdHJhbnNmb3JtPSJtYXRyaXgoMSwwLDAsMSw1MC41LDQuNSkiPjxnIHRyYW5zZm9ybT0ibWF0cml4KDEsMCwwLDEsMCwwKSIgZGF0YS1vZmZzZXR4PSIwIiBkYXRhLWhlaWdodD0iMTciIGRhdGEtd2lkdGg9IjIwNi4yIj48Zz48dGV4dCBzdHlsZT0iZm9udC1mYW1pbHk6IOW+rui9r+mbhem7kTtmb250LXNpemU6IDEycHg7Zm9udC13ZWlnaHQ6IG5vcm1hbDtmb250LXN0eWxlOiBub3JtYWw7bGluZS1oZWlnaHQ6IDE0MCU7bWF4LXdpZHRoOiA5MDBweDtvdmVyZmxvdy13cmFwOiBicmVhay13b3JkO3dvcmQtYnJlYWs6IGJyZWFrLXdvcmQ7dGV4dC1zaXplLWFkanVzdDogMTAwJTtjb2xvcjogcmdiKDAsIDAsIDApOyIgZmlsbD0icmdiKDAsIDAsIDApIiBmb250LXdlaWdodD0ibm9ybWFsIiBmb250LXNpemU9IjEycHgiIGFsaWduPSJ0b3AiIHRleHQtYW5jaG9yPSJzdGFydCI+PHRzcGFuIHk9IjExLjE1OTk5OTk5OTk5OTk5NyIgeD0iMCI+PHRzcGFuIGR4PSIwIj7mnYPpmZDvvJpidXR0b246c3lzdGVtOm9yZzpvcGVuQ2xvc2U8L3RzcGFuPjwvdHNwYW4+PC90ZXh0PjwvZz48L2c+PC9nPjwvZz48ZyBvcGFjaXR5PSIxIiB0cmFuc2Zvcm09Im1hdHJpeCgxLDAsMCwxLDkyOC4zLDEwMy4zNzUpIiBpZD0idG9waWMtMzQyOGU0ZDUtNjQ1My00MTk0LWJkYWEtYTA1YzE1MDE4YTQxIiBjbGFzcz0icG8tbWluZC10b3BpYyI+PHBhdGggZmlsbD0iI2YyZjJmMiIgdHJhbnNmb3JtPSJtYXRyaXgoMSwwLDAsMSwwLjUsMC41KSIgY2xhc3M9InBvLW1pbmQtdG9waWMtc2hhcGUtZmlsbCIgZD0iTTYsMCBMMzI4LjIsMCBDMzI4LjIsMCAzMzQuMiwwIDMzNC4yLDYgTDMzNC4yLDE5IEMzMzQuMiwxOSAzMzQuMiwyNSAzMjguMiwyNSYjMTA7ICAgICAgTDYsMjUgQzYsMjUgMCwyNSAwLDE5IEwwLDYgQzAsNiAwLDAgNiwwWiIvPjxwYXRoIHN0cm9rZT0iIzYxNjE2MSIgc3Ryb2tlLXdpZHRoPSIxIiBmaWxsPSJub25lIiB0cmFuc2Zvcm09Im1hdHJpeCgxLDAsMCwxLDAuNSwwLjUpIiBjbGFzcz0icG8tbWluZC10b3BpYy1zaGFwZSIgZD0iTTYsMCBMMzI4LjIsMCBDMzI4LjIsMCAzMzQuMiwwIDMzNC4yLDYgTDMzNC4yLDE5IEMzMzQuMiwxOSAzMzQuMiwyNSAzMjguMiwyNSYjMTA7ICAgICAgTDYsMjUgQzYsMjUgMCwyNSAwLDE5IEwwLDYgQzAsNiAwLDAgNiwwWiIvPjxnIHRyYW5zZm9ybT0ibWF0cml4KDEsMCwwLDEsNTAuNSw0LjUpIj48ZyB0cmFuc2Zvcm09Im1hdHJpeCgxLDAsMCwxLDAsMCkiIGRhdGEtb2Zmc2V0eD0iMCIgZGF0YS1oZWlnaHQ9IjE3IiBkYXRhLXdpZHRoPSIyMzQuMiI+PGc+PHRleHQgc3R5bGU9ImZvbnQtZmFtaWx5OiDlvq7ova/pm4Xpu5E7Zm9udC1zaXplOiAxMnB4O2ZvbnQtd2VpZ2h0OiBub3JtYWw7Zm9udC1zdHlsZTogbm9ybWFsO2xpbmUtaGVpZ2h0OiAxNDAlO21heC13aWR0aDogOTAwcHg7b3ZlcmZsb3ctd3JhcDogYnJlYWstd29yZDt3b3JkLWJyZWFrOiBicmVhay13b3JkO3RleHQtc2l6ZS1hZGp1c3Q6IDEwMCU7Y29sb3I6IHJnYigwLCAwLCAwKTsiIGZpbGw9InJnYigwLCAwLCAwKSIgZm9udC13ZWlnaHQ9Im5vcm1hbCIgZm9udC1zaXplPSIxMnB4IiBhbGlnbj0idG9wIiB0ZXh0LWFuY2hvcj0ic3RhcnQiPjx0c3BhbiB5PSIxMS4xNTk5OTk5OTk5OTk5OTciIHg9IjAiPjx0c3BhbiBkeD0iMCI+5o6l5Y+j77yaKHVybDogL3dmdXNlci9zd2l0Y2gsIG1ldGhvZDogUFVUKTwvdHNwYW4+PC90c3Bhbj48L3RleHQ+PC9nPjwvZz48L2c+PC9nPjxnIG9wYWNpdHk9IjEiIHRyYW5zZm9ybT0ibWF0cml4KDEsMCwwLDEsNjg1LjA5OTk5OTk5OTk5OTksMTg1Ljg3NSkiIGlkPSJ0b3BpYy1iNGUyYzk1ZC1kYzlkLTQ5NDAtYTZlYS03NWFjM2UxZWUxNWUiIGNsYXNzPSJwby1taW5kLXRvcGljIj48cGF0aCBmaWxsPSIjZjJmMmYyIiB0cmFuc2Zvcm09Im1hdHJpeCgxLDAsMCwxLDAuNSwwLjUpIiBjbGFzcz0icG8tbWluZC10b3BpYy1zaGFwZS1maWxsIiBkPSJNNiwwIEwxMjAuMiwwIEMxMjAuMiwwIDEyNi4yLDAgMTI2LjIsNiBMMTI2LjIsMTkgQzEyNi4yLDE5IDEyNi4yLDI1IDEyMC4yLDI1JiMxMDsgICAgICBMNiwyNSBDNiwyNSAwLDI1IDAsMTkgTDAsNiBDMCw2IDAsMCA2LDBaIi8+PHBhdGggc3Ryb2tlPSIjNjE2MTYxIiBzdHJva2Utd2lkdGg9IjEiIGZpbGw9Im5vbmUiIHRyYW5zZm9ybT0ibWF0cml4KDEsMCwwLDEsMC41LDAuNSkiIGNsYXNzPSJwby1taW5kLXRvcGljLXNoYXBlIiBkPSJNNiwwIEwxMjAuMiwwIEMxMjAuMiwwIDEyNi4yLDAgMTI2LjIsNiBMMTI2LjIsMTkgQzEyNi4yLDE5IDEyNi4yLDI1IDEyMC4yLDI1JiMxMDsgICAgICBMNiwyNSBDNiwyNSAwLDI1IDAsMTkgTDAsNiBDMCw2IDAsMCA2LDBaIi8+PGcgdHJhbnNmb3JtPSJtYXRyaXgoMSwwLDAsMSw1MC41LDQuNSkiPjxnIHRyYW5zZm9ybT0ibWF0cml4KDEsMCwwLDEsMCwwKSIgZGF0YS1vZmZzZXR4PSIwIiBkYXRhLWhlaWdodD0iMTciIGRhdGEtd2lkdGg9IjI2LjIiPjxnPjx0ZXh0IHN0eWxlPSJmb250LWZhbWlseTog5b6u6L2v6ZuF6buRO2ZvbnQtc2l6ZTogMTJweDtmb250LXdlaWdodDogbm9ybWFsO2ZvbnQtc3R5bGU6IG5vcm1hbDtsaW5lLWhlaWdodDogMTQwJTttYXgtd2lkdGg6IDkwMHB4O292ZXJmbG93LXdyYXA6IGJyZWFrLXdvcmQ7d29yZC1icmVhazogYnJlYWstd29yZDt0ZXh0LXNpemUtYWRqdXN0OiAxMDAlO2NvbG9yOiByZ2IoMCwgMCwgMCk7IiBmaWxsPSJyZ2IoMCwgMCwgMCkiIGZvbnQtd2VpZ2h0PSJub3JtYWwiIGZvbnQtc2l6ZT0iMTJweCIgYWxpZ249InRvcCIgdGV4dC1hbmNob3I9InN0YXJ0Ij48dHNwYW4geT0iMTEuMTU5OTk5OTk5OTk5OTk3IiB4PSIwIj48dHNwYW4gZHg9IjAiPuWIoOmZpDwvdHNwYW4+PC90c3Bhbj48L3RleHQ+PC9nPjwvZz48L2c+PC9nPjxnIG9wYWNpdHk9IjEiIHRyYW5zZm9ybT0ibWF0cml4KDEsMCwwLDEsODUwLjMsMTU4LjM3NSkiIGlkPSJ0b3BpYy1jNGRkODM3Ni00MDI4LTQ1NmUtODVhNy00NDQ4Yjk0ZDVlNDEiIGNsYXNzPSJwby1taW5kLXRvcGljIj48cGF0aCBmaWxsPSIjZjJmMmYyIiB0cmFuc2Zvcm09Im1hdHJpeCgxLDAsMCwxLDAuNSwwLjUpIiBjbGFzcz0icG8tbWluZC10b3BpYy1zaGFwZS1maWxsIiBkPSJNNiwwIEwzMDEuMiwwIEMzMDEuMiwwIDMwNy4yLDAgMzA3LjIsNiBMMzA3LjIsMTkgQzMwNy4yLDE5IDMwNy4yLDI1IDMwMS4yLDI1JiMxMDsgICAgICBMNiwyNSBDNiwyNSAwLDI1IDAsMTkgTDAsNiBDMCw2IDAsMCA2LDBaIi8+PHBhdGggc3Ryb2tlPSIjNjE2MTYxIiBzdHJva2Utd2lkdGg9IjEiIGZpbGw9Im5vbmUiIHRyYW5zZm9ybT0ibWF0cml4KDEsMCwwLDEsMC41LDAuNSkiIGNsYXNzPSJwby1taW5kLXRvcGljLXNoYXBlIiBkPSJNNiwwIEwzMDEuMiwwIEMzMDEuMiwwIDMwNy4yLDAgMzA3LjIsNiBMMzA3LjIsMTkgQzMwNy4yLDE5IDMwNy4yLDI1IDMwMS4yLDI1JiMxMDsgICAgICBMNiwyNSBDNiwyNSAwLDI1IDAsMTkgTDAsNiBDMCw2IDAsMCA2LDBaIi8+PGcgdHJhbnNmb3JtPSJtYXRyaXgoMSwwLDAsMSw1MC41LDQuNSkiPjxnIHRyYW5zZm9ybT0ibWF0cml4KDEsMCwwLDEsMCwwKSIgZGF0YS1vZmZzZXR4PSIwIiBkYXRhLWhlaWdodD0iMTciIGRhdGEtd2lkdGg9IjIwNy4yIj48Zz48dGV4dCBzdHlsZT0iZm9udC1mYW1pbHk6IOW+rui9r+mbhem7kTtmb250LXNpemU6IDEycHg7Zm9udC13ZWlnaHQ6IG5vcm1hbDtmb250LXN0eWxlOiBub3JtYWw7bGluZS1oZWlnaHQ6IDE0MCU7bWF4LXdpZHRoOiA5MDBweDtvdmVyZmxvdy13cmFwOiBicmVhay13b3JkO3dvcmQtYnJlYWs6IGJyZWFrLXdvcmQ7dGV4dC1zaXplLWFkanVzdDogMTAwJTtjb2xvcjogcmdiKDAsIDAsIDApOyIgZmlsbD0icmdiKDAsIDAsIDApIiBmb250LXdlaWdodD0ibm9ybWFsIiBmb250LXNpemU9IjEycHgiIGFsaWduPSJ0b3AiIHRleHQtYW5jaG9yPSJzdGFydCI+PHRzcGFuIHk9IjExLjE1OTk5OTk5OTk5OTk5NyIgeD0iMCI+PHRzcGFuIGR4PSIwIj7mnYPpmZDvvJpidXR0b246c3lzdGVtOm9yZzpkZWxldGVFbXA8L3RzcGFuPjwvdHNwYW4+PC90ZXh0PjwvZz48L2c+PC9nPjwvZz48ZyBvcGFjaXR5PSIxIiB0cmFuc2Zvcm09Im1hdHJpeCgxLDAsMCwxLDg1MC4zLDIxMy4zNzUpIiBpZD0idG9waWMtNGEzMmIyMjYtZDBkYi00YmU1LTlmY2MtMzMyYjhiYmVjNDVlIiBjbGFzcz0icG8tbWluZC10b3BpYyI+PHBhdGggZmlsbD0iI2YyZjJmMiIgdHJhbnNmb3JtPSJtYXRyaXgoMSwwLDAsMSwwLjUsMC41KSIgY2xhc3M9InBvLW1pbmQtdG9waWMtc2hhcGUtZmlsbCIgZD0iTTYsMCBMMzM2LjIsMCBDMzM2LjIsMCAzNDIuMiwwIDM0Mi4yLDYgTDM0Mi4yLDE5IEMzNDIuMiwxOSAzNDIuMiwyNSAzMzYuMiwyNSYjMTA7ICAgICAgTDYsMjUgQzYsMjUgMCwyNSAwLDE5IEwwLDYgQzAsNiAwLDAgNiwwWiIvPjxwYXRoIHN0cm9rZT0iIzYxNjE2MSIgc3Ryb2tlLXdpZHRoPSIxIiBmaWxsPSJub25lIiB0cmFuc2Zvcm09Im1hdHJpeCgxLDAsMCwxLDAuNSwwLjUpIiBjbGFzcz0icG8tbWluZC10b3BpYy1zaGFwZSIgZD0iTTYsMCBMMzM2LjIsMCBDMzM2LjIsMCAzNDIuMiwwIDM0Mi4yLDYgTDM0Mi4yLDE5IEMzNDIuMiwxOSAzNDIuMiwyNSAzMzYuMiwyNSYjMTA7ICAgICAgTDYsMjUgQzYsMjUgMCwyNSAwLDE5IEwwLDYgQzAsNiAwLDAgNiwwWiIvPjxnIHRyYW5zZm9ybT0ibWF0cml4KDEsMCwwLDEsNTAuNSw0LjUpIj48ZyB0cmFuc2Zvcm09Im1hdHJpeCgxLDAsMCwxLDAsMCkiIGRhdGEtb2Zmc2V0eD0iMCIgZGF0YS1oZWlnaHQ9IjE3IiBkYXRhLXdpZHRoPSIyNDIuMiI+PGc+PHRleHQgc3R5bGU9ImZvbnQtZmFtaWx5OiDlvq7ova/pm4Xpu5E7Zm9udC1zaXplOiAxMnB4O2ZvbnQtd2VpZ2h0OiBub3JtYWw7Zm9udC1zdHlsZTogbm9ybWFsO2xpbmUtaGVpZ2h0OiAxNDAlO21heC13aWR0aDogOTAwcHg7b3ZlcmZsb3ctd3JhcDogYnJlYWstd29yZDt3b3JkLWJyZWFrOiBicmVhay13b3JkO3RleHQtc2l6ZS1hZGp1c3Q6IDEwMCU7Y29sb3I6IHJnYigwLCAwLCAwKTsiIGZpbGw9InJnYigwLCAwLCAwKSIgZm9udC13ZWlnaHQ9Im5vcm1hbCIgZm9udC1zaXplPSIxMnB4IiBhbGlnbj0idG9wIiB0ZXh0LWFuY2hvcj0ic3RhcnQiPjx0c3BhbiB5PSIxMS4xNTk5OTk5OTk5OTk5OTciIHg9IjAiPjx0c3BhbiBkeD0iMCI+5o6l5Y+j77yaKHVybDogL3dmdXNlci8ke2lkfSwgbWV0aG9kOiBERUxFVEUpPC90c3Bhbj48L3RzcGFuPjwvdGV4dD48L2c+PC9nPjwvZz48L2c+PGcgb3BhY2l0eT0iMSIgdHJhbnNmb3JtPSJtYXRyaXgoMSwwLDAsMSw2ODUuMDk5OTk5OTk5OTk5OSwyOTUuODc1KSIgaWQ9InRvcGljLTJlOGM3M2ZhLWFiZDItNGMyMi05YjE5LWI4YWE0MzYzNDI1YSIgY2xhc3M9InBvLW1pbmQtdG9waWMiPjxwYXRoIGZpbGw9IiNmMmYyZjIiIHRyYW5zZm9ybT0ibWF0cml4KDEsMCwwLDEsMC41LDAuNSkiIGNsYXNzPSJwby1taW5kLXRvcGljLXNoYXBlLWZpbGwiIGQ9Ik02LDAgTDEyMC4yLDAgQzEyMC4yLDAgMTI2LjIsMCAxMjYuMiw2IEwxMjYuMiwxOSBDMTI2LjIsMTkgMTI2LjIsMjUgMTIwLjIsMjUmIzEwOyAgICAgIEw2LDI1IEM2LDI1IDAsMjUgMCwxOSBMMCw2IEMwLDYgMCwwIDYsMFoiLz48cGF0aCBzdHJva2U9IiM2MTYxNjEiIHN0cm9rZS13aWR0aD0iMSIgZmlsbD0ibm9uZSIgdHJhbnNmb3JtPSJtYXRyaXgoMSwwLDAsMSwwLjUsMC41KSIgY2xhc3M9InBvLW1pbmQtdG9waWMtc2hhcGUiIGQ9Ik02LDAgTDEyMC4yLDAgQzEyMC4yLDAgMTI2LjIsMCAxMjYuMiw2IEwxMjYuMiwxOSBDMTI2LjIsMTkgMTI2LjIsMjUgMTIwLjIsMjUmIzEwOyAgICAgIEw2LDI1IEM2LDI1IDAsMjUgMCwxOSBMMCw2IEMwLDYgMCwwIDYsMFoiLz48ZyB0cmFuc2Zvcm09Im1hdHJpeCgxLDAsMCwxLDUwLjUsNC41KSI+PGcgdHJhbnNmb3JtPSJtYXRyaXgoMSwwLDAsMSwwLDApIiBkYXRhLW9mZnNldHg9IjAiIGRhdGEtaGVpZ2h0PSIxNyIgZGF0YS13aWR0aD0iMjYuMiI+PGc+PHRleHQgc3R5bGU9ImZvbnQtZmFtaWx5OiDlvq7ova/pm4Xpu5E7Zm9udC1zaXplOiAxMnB4O2ZvbnQtd2VpZ2h0OiBub3JtYWw7Zm9udC1zdHlsZTogbm9ybWFsO2xpbmUtaGVpZ2h0OiAxNDAlO21heC13aWR0aDogOTAwcHg7b3ZlcmZsb3ctd3JhcDogYnJlYWstd29yZDt3b3JkLWJyZWFrOiBicmVhay13b3JkO3RleHQtc2l6ZS1hZGp1c3Q6IDEwMCU7Y29sb3I6IHJnYigwLCAwLCAwKTsiIGZpbGw9InJnYigwLCAwLCAwKSIgZm9udC13ZWlnaHQ9Im5vcm1hbCIgZm9udC1zaXplPSIxMnB4IiBhbGlnbj0idG9wIiB0ZXh0LWFuY2hvcj0ic3RhcnQiPjx0c3BhbiB5PSIxMS4xNTk5OTk5OTk5OTk5OTciIHg9IjAiPjx0c3BhbiBkeD0iMCI+6Kej57uRPC90c3Bhbj48L3RzcGFuPjwvdGV4dD48L2c+PC9nPjwvZz48L2c+PGcgb3BhY2l0eT0iMSIgdHJhbnNmb3JtPSJtYXRyaXgoMSwwLDAsMSw4NTAuMywyNjguMzc1KSIgaWQ9InRvcGljLWM3YTdiYjc2LTQwMDAtNDEwNy04MzUwLWViYzVmYmUyNTQxMCIgY2xhc3M9InBvLW1pbmQtdG9waWMiPjxwYXRoIGZpbGw9IiNmMmYyZjIiIHRyYW5zZm9ybT0ibWF0cml4KDEsMCwwLDEsMC41LDAuNSkiIGNsYXNzPSJwby1taW5kLXRvcGljLXNoYXBlLWZpbGwiIGQ9Ik02LDAgTDI2Ny4yLDAgQzI2Ny4yLDAgMjczLjIsMCAyNzMuMiw2IEwyNzMuMiwxOSBDMjczLjIsMTkgMjczLjIsMjUgMjY3LjIsMjUmIzEwOyAgICAgIEw2LDI1IEM2LDI1IDAsMjUgMCwxOSBMMCw2IEMwLDYgMCwwIDYsMFoiLz48cGF0aCBzdHJva2U9IiM2MTYxNjEiIHN0cm9rZS13aWR0aD0iMSIgZmlsbD0ibm9uZSIgdHJhbnNmb3JtPSJtYXRyaXgoMSwwLDAsMSwwLjUsMC41KSIgY2xhc3M9InBvLW1pbmQtdG9waWMtc2hhcGUiIGQ9Ik02LDAgTDI2Ny4yLDAgQzI2Ny4yLDAgMjczLjIsMCAyNzMuMiw2IEwyNzMuMiwxOSBDMjczLjIsMTkgMjczLjIsMjUgMjY3LjIsMjUmIzEwOyAgICAgIEw2LDI1IEM2LDI1IDAsMjUgMCwxOSBMMCw2IEMwLDYgMCwwIDYsMFoiLz48ZyB0cmFuc2Zvcm09Im1hdHJpeCgxLDAsMCwxLDUwLjUsNC41KSI+PGcgdHJhbnNmb3JtPSJtYXRyaXgoMSwwLDAsMSwwLDApIiBkYXRhLW9mZnNldHg9IjAiIGRhdGEtaGVpZ2h0PSIxNyIgZGF0YS13aWR0aD0iMTczLjIiPjxnPjx0ZXh0IHN0eWxlPSJmb250LWZhbWlseTog5b6u6L2v6ZuF6buRO2ZvbnQtc2l6ZTogMTJweDtmb250LXdlaWdodDogbm9ybWFsO2ZvbnQtc3R5bGU6IG5vcm1hbDtsaW5lLWhlaWdodDogMTQwJTttYXgtd2lkdGg6IDkwMHB4O292ZXJmbG93LXdyYXA6IGJyZWFrLXdvcmQ7d29yZC1icmVhazogYnJlYWstd29yZDt0ZXh0LXNpemUtYWRqdXN0OiAxMDAlO2NvbG9yOiByZ2IoMCwgMCwgMCk7IiBmaWxsPSJyZ2IoMCwgMCwgMCkiIGZvbnQtd2VpZ2h0PSJub3JtYWwiIGZvbnQtc2l6ZT0iMTJweCIgYWxpZ249InRvcCIgdGV4dC1hbmNob3I9InN0YXJ0Ij48dHNwYW4geT0iMTEuMTU5OTk5OTk5OTk5OTk3IiB4PSIwIj48dHNwYW4gZHg9IjAiPuadg+mZkO+8muagueaNruaVsOaNrnd4SW5mb+aYr+WQpuacieWAvDwvdHNwYW4+PC90c3Bhbj48L3RleHQ+PC9nPjwvZz48L2c+PC9nPjxnIG9wYWNpdHk9IjEiIHRyYW5zZm9ybT0ibWF0cml4KDEsMCwwLDEsODUwLjMsMzIzLjM3NSkiIGlkPSJ0b3BpYy1lOWJkZWU3MS02ZWYxLTRiOWQtYmU4Zi02YzRhZjJjOTVkM2IiIGNsYXNzPSJwby1taW5kLXRvcGljIj48cGF0aCBmaWxsPSIjZjJmMmYyIiB0cmFuc2Zvcm09Im1hdHJpeCgxLDAsMCwxLDAuNSwwLjUpIiBjbGFzcz0icG8tbWluZC10b3BpYy1zaGFwZS1maWxsIiBkPSJNNiwwIEwyODYuMiwwIEMyODYuMiwwIDI5Mi4yLDAgMjkyLjIsNiBMMjkyLjIsMTkgQzI5Mi4yLDE5IDI5Mi4yLDI1IDI4Ni4yLDI1JiMxMDsgICAgICBMNiwyNSBDNiwyNSAwLDI1IDAsMTkgTDAsNiBDMCw2IDAsMCA2LDBaIi8+PHBhdGggc3Ryb2tlPSIjNjE2MTYxIiBzdHJva2Utd2lkdGg9IjEiIGZpbGw9Im5vbmUiIHRyYW5zZm9ybT0ibWF0cml4KDEsMCwwLDEsMC41LDAuNSkiIGNsYXNzPSJwby1taW5kLXRvcGljLXNoYXBlIiBkPSJNNiwwIEwyODYuMiwwIEMyODYuMiwwIDI5Mi4yLDAgMjkyLjIsNiBMMjkyLjIsMTkgQzI5Mi4yLDE5IDI5Mi4yLDI1IDI4Ni4yLDI1JiMxMDsgICAgICBMNiwyNSBDNiwyNSAwLDI1IDAsMTkgTDAsNiBDMCw2IDAsMCA2LDBaIi8+PGcgdHJhbnNmb3JtPSJtYXRyaXgoMSwwLDAsMSw1MC41LDQuNSkiPjxnIHRyYW5zZm9ybT0ibWF0cml4KDEsMCwwLDEsMCwwKSIgZGF0YS1vZmZzZXR4PSIwIiBkYXRhLWhlaWdodD0iMTciIGRhdGEtd2lkdGg9IjE5Mi4yIj48Zz48dGV4dCBzdHlsZT0iZm9udC1mYW1pbHk6IOW+rui9r+mbhem7kTtmb250LXNpemU6IDEycHg7Zm9udC13ZWlnaHQ6IG5vcm1hbDtmb250LXN0eWxlOiBub3JtYWw7bGluZS1oZWlnaHQ6IDE0MCU7bWF4LXdpZHRoOiA5MDBweDtvdmVyZmxvdy13cmFwOiBicmVhay13b3JkO3dvcmQtYnJlYWs6IGJyZWFrLXdvcmQ7dGV4dC1zaXplLWFkanVzdDogMTAwJTtjb2xvcjogcmdiKDAsIDAsIDApOyIgZmlsbD0icmdiKDAsIDAsIDApIiBmb250LXdlaWdodD0ibm9ybWFsIiBmb250LXNpemU9IjEycHgiIGFsaWduPSJ0b3AiIHRleHQtYW5jaG9yPSJzdGFydCI+PHRzcGFuIHk9IjExLjE1OTk5OTk5OTk5OTk5NyIgeD0iMCI+PHRzcGFuIGR4PSIwIj7mjqXlj6ModXJsOiAvd2Z1c2VyL3d4QmluZC91bmJpbmQpPC90c3Bhbj48L3RzcGFuPjwvdGV4dD48L2c+PC9nPjwvZz48L2c+PGcgb3BhY2l0eT0iMSIgdHJhbnNmb3JtPSJtYXRyaXgoMSwwLDAsMSw2ODUuMDk5OTk5OTk5OTk5OSwzNzguMzc1KSIgaWQ9InRvcGljLWU2ZTg1YjgyLTI2MzQtNGU2ZS1iMDBkLWIzMDYyNGMzNTY3NSIgY2xhc3M9InBvLW1pbmQtdG9waWMiPjxwYXRoIGZpbGw9IiNmMmYyZjIiIHRyYW5zZm9ybT0ibWF0cml4KDEsMCwwLDEsMC41LDAuNSkiIGNsYXNzPSJwby1taW5kLXRvcGljLXNoYXBlLWZpbGwiIGQ9Ik02LDAgTDE0NC4yLDAgQzE0NC4yLDAgMTUwLjIsMCAxNTAuMiw2IEwxNTAuMiwxOSBDMTUwLjIsMTkgMTUwLjIsMjUgMTQ0LjIsMjUmIzEwOyAgICAgIEw2LDI1IEM2LDI1IDAsMjUgMCwxOSBMMCw2IEMwLDYgMCwwIDYsMFoiLz48cGF0aCBzdHJva2U9IiM2MTYxNjEiIHN0cm9rZS13aWR0aD0iMSIgZmlsbD0ibm9uZSIgdHJhbnNmb3JtPSJtYXRyaXgoMSwwLDAsMSwwLjUsMC41KSIgY2xhc3M9InBvLW1pbmQtdG9waWMtc2hhcGUiIGQ9Ik02LDAgTDE0NC4yLDAgQzE0NC4yLDAgMTUwLjIsMCAxNTAuMiw2IEwxNTAuMiwxOSBDMTUwLjIsMTkgMTUwLjIsMjUgMTQ0LjIsMjUmIzEwOyAgICAgIEw2LDI1IEM2LDI1IDAsMjUgMCwxOSBMMCw2IEMwLDYgMCwwIDYsMFoiLz48ZyB0cmFuc2Zvcm09Im1hdHJpeCgxLDAsMCwxLDUwLjUsNC41KSI+PGcgdHJhbnNmb3JtPSJtYXRyaXgoMSwwLDAsMSwwLDApIiBkYXRhLW9mZnNldHg9IjAiIGRhdGEtaGVpZ2h0PSIxNyIgZGF0YS13aWR0aD0iNTAuMiI+PGc+PHRleHQgc3R5bGU9ImZvbnQtZmFtaWx5OiDlvq7ova/pm4Xpu5E7Zm9udC1zaXplOiAxMnB4O2ZvbnQtd2VpZ2h0OiBub3JtYWw7Zm9udC1zdHlsZTogbm9ybWFsO2xpbmUtaGVpZ2h0OiAxNDAlO21heC13aWR0aDogOTAwcHg7b3ZlcmZsb3ctd3JhcDogYnJlYWstd29yZDt3b3JkLWJyZWFrOiBicmVhay13b3JkO3RleHQtc2l6ZS1hZGp1c3Q6IDEwMCU7Y29sb3I6IHJnYigwLCAwLCAwKTsiIGZpbGw9InJnYigwLCAwLCAwKSIgZm9udC13ZWlnaHQ9Im5vcm1hbCIgZm9udC1zaXplPSIxMnB4IiBhbGlnbj0idG9wIiB0ZXh0LWFuY2hvcj0ic3RhcnQiPjx0c3BhbiB5PSIxMS4xNTk5OTk5OTk5OTk5OTciIHg9IjAiPjx0c3BhbiBkeD0iMCI+6YeN572u5a+G56CBPC90c3Bhbj48L3RzcGFuPjwvdGV4dD48L2c+PC9nPjwvZz48L2c+PGcgb3BhY2l0eT0iMSIgdHJhbnNmb3JtPSJtYXRyaXgoMSwwLDAsMSw4NzQuMywzNzguMzc1KSIgaWQ9InRvcGljLWUxMWEyZTVjLTUwZmQtNDQ0MS05Zjc5LTRiNTZlNjA5YjUzNSIgY2xhc3M9InBvLW1pbmQtdG9waWMiPjxwYXRoIGZpbGw9IiNmMmYyZjIiIHRyYW5zZm9ybT0ibWF0cml4KDEsMCwwLDEsMC41LDAuNSkiIGNsYXNzPSJwby1taW5kLXRvcGljLXNoYXBlLWZpbGwiIGQ9Ik02LDAgTDYzNi4yLDAgQzYzNi4yLDAgNjQyLjIsMCA2NDIuMiw2IEw2NDIuMiwxOSBDNjQyLjIsMTkgNjQyLjIsMjUgNjM2LjIsMjUmIzEwOyAgICAgIEw2LDI1IEM2LDI1IDAsMjUgMCwxOSBMMCw2IEMwLDYgMCwwIDYsMFoiLz48cGF0aCBzdHJva2U9IiM2MTYxNjEiIHN0cm9rZS13aWR0aD0iMSIgZmlsbD0ibm9uZSIgdHJhbnNmb3JtPSJtYXRyaXgoMSwwLDAsMSwwLjUsMC41KSIgY2xhc3M9InBvLW1pbmQtdG9waWMtc2hhcGUiIGQ9Ik02LDAgTDYzNi4yLDAgQzYzNi4yLDAgNjQyLjIsMCA2NDIuMiw2IEw2NDIuMiwxOSBDNjQyLjIsMTkgNjQyLjIsMjUgNjM2LjIsMjUmIzEwOyAgICAgIEw2LDI1IEM2LDI1IDAsMjUgMCwxOSBMMCw2IEMwLDYgMCwwIDYsMFoiLz48ZyB0cmFuc2Zvcm09Im1hdHJpeCgxLDAsMCwxLDUwLjUsNC41KSI+PGcgdHJhbnNmb3JtPSJtYXRyaXgoMSwwLDAsMSwwLDApIiBkYXRhLW9mZnNldHg9IjAiIGRhdGEtaGVpZ2h0PSIxNyIgZGF0YS13aWR0aD0iNTQyLjIiPjxnPjx0ZXh0IHN0eWxlPSJmb250LWZhbWlseTog5b6u6L2v6ZuF6buRO2ZvbnQtc2l6ZTogMTJweDtmb250LXdlaWdodDogbm9ybWFsO2ZvbnQtc3R5bGU6IG5vcm1hbDtsaW5lLWhlaWdodDogMTQwJTttYXgtd2lkdGg6IDkwMHB4O292ZXJmbG93LXdyYXA6IGJyZWFrLXdvcmQ7d29yZC1icmVhazogYnJlYWstd29yZDt0ZXh0LXNpemUtYWRqdXN0OiAxMDAlO2NvbG9yOiByZ2IoMCwgMCwgMCk7IiBmaWxsPSJyZ2IoMCwgMCwgMCkiIGZvbnQtd2VpZ2h0PSJub3JtYWwiIGZvbnQtc2l6ZT0iMTJweCIgYWxpZ249InRvcCIgdGV4dC1hbmNob3I9InN0YXJ0Ij48dHNwYW4geT0iMTEuMTU5OTk5OTk5OTk5OTk3IiB4PSIwIj48dHNwYW4gZHg9IjAiPuadg+mZkO+8muagueaNruWRmOW3pXVzZXJUeXBlPT09U1VQRVJfQURNSU4rc3lzU3RhdHVzPT09QUNUSVZF77yIdXNlclR5cGXvvJovaW5pdCDmjqXlj6Pojrflj5bvvIk8L3RzcGFuPjwvdHNwYW4+PC90ZXh0PjwvZz48L2c+PC9nPjwvZz48ZyBvcGFjaXR5PSIxIiB0cmFuc2Zvcm09Im1hdHJpeCgxLDAsMCwxLDE2Ni41LDQ5NC42MjUpIiBpZD0idG9waWMtMjJjNzQ0ZWYtNjM5MC00MzRkLTkxODUtZTYxMjQyYzI0MmM5IiBjbGFzcz0icG8tbWluZC10b3BpYyI+PHBhdGggZmlsbD0iI2ZmZmZmZiIgdHJhbnNmb3JtPSJtYXRyaXgoMSwwLDAsMSwwLjUsMC41KSIgY2xhc3M9InBvLW1pbmQtdG9waWMtc2hhcGUtZmlsbCIgZD0iTTIxLDAgTDE0Ny40LDAgQzE0Ny40LDAgMTY4LjQsMCAxNjguNCwyMSBMMTY4LjQsMjEgQzE2OC40LDIxIDE2OC40LDQyIDE0Ny40LDQyJiMxMDsgICAgICBMMjEsNDIgQzIxLDQyIDAsNDIgMCwyMSBMMCwyMSBDMCwyMSAwLDAgMjEsMFoiLz48cGF0aCBzdHJva2U9IiMwMDAwMDAiIHN0cm9rZS13aWR0aD0iMSIgZmlsbD0ibm9uZSIgdHJhbnNmb3JtPSJtYXRyaXgoMSwwLDAsMSwwLjUsMC41KSIgY2xhc3M9InBvLW1pbmQtdG9waWMtc2hhcGUiIGQ9Ik0yMSwwIEwxNDcuNCwwIEMxNDcuNCwwIDE2OC40LDAgMTY4LjQsMjEgTDE2OC40LDIxIEMxNjguNCwyMSAxNjguNCw0MiAxNDcuNCw0MiYjMTA7ICAgICAgTDIxLDQyIEMyMSw0MiAwLDQyIDAsMjEgTDAsMjEgQzAsMjEgMCwwIDIxLDBaIi8+PGcgdHJhbnNmb3JtPSJtYXRyaXgoMSwwLDAsMSw1NS41LDExLjUpIj48ZyB0cmFuc2Zvcm09Im1hdHJpeCgxLDAsMCwxLDAsMCkiIGRhdGEtb2Zmc2V0eD0iMCIgZGF0YS1oZWlnaHQ9IjIwIiBkYXRhLXdpZHRoPSI1OC40Ij48Zz48dGV4dCBzdHlsZT0iZm9udC1mYW1pbHk6IOW+rui9r+mbhem7kTtmb250LXNpemU6IDE0cHg7Zm9udC13ZWlnaHQ6IG5vcm1hbDtmb250LXN0eWxlOiBub3JtYWw7bGluZS1oZWlnaHQ6IDE0MCU7bWF4LXdpZHRoOiA4OTZweDtvdmVyZmxvdy13cmFwOiBicmVhay13b3JkO3dvcmQtYnJlYWs6IGJyZWFrLXdvcmQ7dGV4dC1zaXplLWFkanVzdDogMTAwJTtjb2xvcjogcmdiKDAsIDAsIDApOyIgZmlsbD0icmdiKDAsIDAsIDApIiBmb250LXdlaWdodD0ibm9ybWFsIiBmb250LXNpemU9IjE0cHgiIGFsaWduPSJ0b3AiIHRleHQtYW5jaG9yPSJzdGFydCI+PHRzcGFuIHk9IjEzLjk5OTk5OTk5OTk5OTk5NiIgeD0iMCI+PHRzcGFuIGR4PSIwIj7kvIHkuJrkupLogZQ8L3RzcGFuPjwvdHNwYW4+PC90ZXh0PjwvZz48L2c+PC9nPjwvZz48ZyBvcGFjaXR5PSIxIiB0cmFuc2Zvcm09Im1hdHJpeCgxLDAsMCwxLDM3My45LDQzNC4zNzUpIiBpZD0idG9waWMtZDE3OTViODUtMDY1OS00NGY1LThlNWYtYjY0N2EyY2FiODdiIiBjbGFzcz0icG8tbWluZC10b3BpYyI+PHBhdGggZmlsbD0iI2YyZjJmMiIgdHJhbnNmb3JtPSJtYXRyaXgoMSwwLDAsMSwwLjUsMC41KSIgY2xhc3M9InBvLW1pbmQtdG9waWMtc2hhcGUtZmlsbCIgZD0iTTYsMCBMMzI0LjIsMCBDMzI0LjIsMCAzMzAuMiwwIDMzMC4yLDYgTDMzMC4yLDE5IEMzMzAuMiwxOSAzMzAuMiwyNSAzMjQuMiwyNSYjMTA7ICAgICAgTDYsMjUgQzYsMjUgMCwyNSAwLDE5IEwwLDYgQzAsNiAwLDAgNiwwWiIvPjxwYXRoIHN0cm9rZT0iIzYxNjE2MSIgc3Ryb2tlLXdpZHRoPSIxIiBmaWxsPSJub25lIiB0cmFuc2Zvcm09Im1hdHJpeCgxLDAsMCwxLDAuNSwwLjUpIiBjbGFzcz0icG8tbWluZC10b3BpYy1zaGFwZSIgZD0iTTYsMCBMMzI0LjIsMCBDMzI0LjIsMCAzMzAuMiwwIDMzMC4yLDYgTDMzMC4yLDE5IEMzMzAuMiwxOSAzMzAuMiwyNSAzMjQuMiwyNSYjMTA7ICAgICAgTDYsMjUgQzYsMjUgMCwyNSAwLDE5IEwwLDYgQzAsNiAwLDAgNiwwWiIvPjxnIHRyYW5zZm9ybT0ibWF0cml4KDEsMCwwLDEsNTAuNSw0LjUpIj48ZyB0cmFuc2Zvcm09Im1hdHJpeCgxLDAsMCwxLDAsMCkiIGRhdGEtb2Zmc2V0eD0iMCIgZGF0YS1oZWlnaHQ9IjE3IiBkYXRhLXdpZHRoPSIyMzAuMiI+PGc+PHRleHQgc3R5bGU9ImZvbnQtZmFtaWx5OiDlvq7ova/pm4Xpu5E7Zm9udC1zaXplOiAxMnB4O2ZvbnQtd2VpZ2h0OiBub3JtYWw7Zm9udC1zdHlsZTogbm9ybWFsO2xpbmUtaGVpZ2h0OiAxNDAlO21heC13aWR0aDogOTAwcHg7b3ZlcmZsb3ctd3JhcDogYnJlYWstd29yZDt3b3JkLWJyZWFrOiBicmVhay13b3JkO3RleHQtc2l6ZS1hZGp1c3Q6IDEwMCU7Y29sb3I6IHJnYigwLCAwLCAwKTsiIGZpbGw9InJnYigwLCAwLCAwKSIgZm9udC13ZWlnaHQ9Im5vcm1hbCIgZm9udC1zaXplPSIxMnB4IiBhbGlnbj0idG9wIiB0ZXh0LWFuY2hvcj0ic3RhcnQiPjx0c3BhbiB5PSIxMS4xNTk5OTk5OTk5OTk5OTciIHg9IjAiPjx0c3BhbiBkeD0iMCI+5p2D6ZmQ77yabWVudTpzeXN0ZW06b3JnOmludGVyY29ubmVjdGlvbjwvdHNwYW4+PC90c3Bhbj48L3RleHQ+PC9nPjwvZz48L2c+PC9nPjxnIG9wYWNpdHk9IjEiIHRyYW5zZm9ybT0ibWF0cml4KDEsMCwwLDEsMzczLjksNDg5LjM3NSkiIGlkPSJ0b3BpYy0zODVhODFhZC1jZjQxLTRhMTctOGIxYi01NGM2ZDExMjcwODQiIGNsYXNzPSJwby1taW5kLXRvcGljIj48cGF0aCBmaWxsPSIjZjJmMmYyIiB0cmFuc2Zvcm09Im1hdHJpeCgxLDAsMCwxLDAuNSwwLjUpIiBjbGFzcz0icG8tbWluZC10b3BpYy1zaGFwZS1maWxsIiBkPSJNNiwwIEwxNDQuMiwwIEMxNDQuMiwwIDE1MC4yLDAgMTUwLjIsNiBMMTUwLjIsMTkgQzE1MC4yLDE5IDE1MC4yLDI1IDE0NC4yLDI1JiMxMDsgICAgICBMNiwyNSBDNiwyNSAwLDI1IDAsMTkgTDAsNiBDMCw2IDAsMCA2LDBaIi8+PHBhdGggc3Ryb2tlPSIjNjE2MTYxIiBzdHJva2Utd2lkdGg9IjEiIGZpbGw9Im5vbmUiIHRyYW5zZm9ybT0ibWF0cml4KDEsMCwwLDEsMC41LDAuNSkiIGNsYXNzPSJwby1taW5kLXRvcGljLXNoYXBlIiBkPSJNNiwwIEwxNDQuMiwwIEMxNDQuMiwwIDE1MC4yLDAgMTUwLjIsNiBMMTUwLjIsMTkgQzE1MC4yLDE5IDE1MC4yLDI1IDE0NC4yLDI1JiMxMDsgICAgICBMNiwyNSBDNiwyNSAwLDI1IDAsMTkgTDAsNiBDMCw2IDAsMCA2LDBaIi8+PGcgdHJhbnNmb3JtPSJtYXRyaXgoMSwwLDAsMSw1MC41LDQuNSkiPjxnIHRyYW5zZm9ybT0ibWF0cml4KDEsMCwwLDEsMCwwKSIgZGF0YS1vZmZzZXR4PSIwIiBkYXRhLWhlaWdodD0iMTciIGRhdGEtd2lkdGg9IjUwLjIiPjxnPjx0ZXh0IHN0eWxlPSJmb250LWZhbWlseTog5b6u6L2v6ZuF6buRO2ZvbnQtc2l6ZTogMTJweDtmb250LXdlaWdodDogbm9ybWFsO2ZvbnQtc3R5bGU6IG5vcm1hbDtsaW5lLWhlaWdodDogMTQwJTttYXgtd2lkdGg6IDkwMHB4O292ZXJmbG93LXdyYXA6IGJyZWFrLXdvcmQ7d29yZC1icmVhazogYnJlYWstd29yZDt0ZXh0LXNpemUtYWRqdXN0OiAxMDAlO2NvbG9yOiByZ2IoMCwgMCwgMCk7IiBmaWxsPSJyZ2IoMCwgMCwgMCkiIGZvbnQtd2VpZ2h0PSJub3JtYWwiIGZvbnQtc2l6ZT0iMTJweCIgYWxpZ249InRvcCIgdGV4dC1hbmNob3I9InN0YXJ0Ij48dHNwYW4geT0iMTEuMTU5OTk5OTk5OTk5OTk3IiB4PSIwIj48dHNwYW4gZHg9IjAiPuiOt+WPluS8geS4mjwvdHNwYW4+PC90c3Bhbj48L3RleHQ+PC9nPjwvZz48L2c+PC9nPjxnIG9wYWNpdHk9IjEiIHRyYW5zZm9ybT0ibWF0cml4KDEsMCwwLDEsNTYzLjA5OTk5OTk5OTk5OTksNDg5LjM3NSkiIGlkPSJ0b3BpYy02OTQxYmNjNC04N2ZhLTRkMmItOTkwOC1lZTgxY2VjZDY4YTUiIGNsYXNzPSJwby1taW5kLXRvcGljIj48cGF0aCBmaWxsPSIjZjJmMmYyIiB0cmFuc2Zvcm09Im1hdHJpeCgxLDAsMCwxLDAuNSwwLjUpIiBjbGFzcz0icG8tbWluZC10b3BpYy1zaGFwZS1maWxsIiBkPSJNNiwwIEwyNTUuMiwwIEMyNTUuMiwwIDI2MS4yLDAgMjYxLjIsNiBMMjYxLjIsMTkgQzI2MS4yLDE5IDI2MS4yLDI1IDI1NS4yLDI1JiMxMDsgICAgICBMNiwyNSBDNiwyNSAwLDI1IDAsMTkgTDAsNiBDMCw2IDAsMCA2LDBaIi8+PHBhdGggc3Ryb2tlPSIjNjE2MTYxIiBzdHJva2Utd2lkdGg9IjEiIGZpbGw9Im5vbmUiIHRyYW5zZm9ybT0ibWF0cml4KDEsMCwwLDEsMC41LDAuNSkiIGNsYXNzPSJwby1taW5kLXRvcGljLXNoYXBlIiBkPSJNNiwwIEwyNTUuMiwwIEMyNTUuMiwwIDI2MS4yLDAgMjYxLjIsNiBMMjYxLjIsMTkgQzI2MS4yLDE5IDI2MS4yLDI1IDI1NS4yLDI1JiMxMDsgICAgICBMNiwyNSBDNiwyNSAwLDI1IDAsMTkgTDAsNiBDMCw2IDAsMCA2LDBaIi8+PGcgdHJhbnNmb3JtPSJtYXRyaXgoMSwwLDAsMSw1MC41LDQuNSkiPjxnIHRyYW5zZm9ybT0ibWF0cml4KDEsMCwwLDEsMCwwKSIgZGF0YS1vZmZzZXR4PSIwIiBkYXRhLWhlaWdodD0iMTciIGRhdGEtd2lkdGg9IjE2MS4yIj48Zz48dGV4dCBzdHlsZT0iZm9udC1mYW1pbHk6IOW+rui9r+mbhem7kTtmb250LXNpemU6IDEycHg7Zm9udC13ZWlnaHQ6IG5vcm1hbDtmb250LXN0eWxlOiBub3JtYWw7bGluZS1oZWlnaHQ6IDE0MCU7bWF4LXdpZHRoOiA5MDBweDtvdmVyZmxvdy13cmFwOiBicmVhay13b3JkO3dvcmQtYnJlYWs6IGJyZWFrLXdvcmQ7dGV4dC1zaXplLWFkanVzdDogMTAwJTtjb2xvcjogcmdiKDAsIDAsIDApOyIgZmlsbD0icmdiKDAsIDAsIDApIiBmb250LXdlaWdodD0ibm9ybWFsIiBmb250LXNpemU9IjEycHgiIGFsaWduPSJ0b3AiIHRleHQtYW5jaG9yPSJzdGFydCI+PHRzcGFuIHk9IjExLjE1OTk5OTk5OTk5OTk5NyIgeD0iMCI+PHRzcGFuIGR4PSIwIj7mjqXlj6PvvJovaW50ZXJjb25uZWN0aW9uL3RyZWU8L3RzcGFuPjwvdHNwYW4+PC90ZXh0PjwvZz48L2c+PC9nPjwvZz48ZyBvcGFjaXR5PSIxIiB0cmFuc2Zvcm09Im1hdHJpeCgxLDAsMCwxLDM3My45LDU3MS44NzUpIiBpZD0idG9waWMtOTA1OWI1OWEtMDhmNy00OTk1LWJiMzItNjgxNjI3MjRiZDg2IiBjbGFzcz0icG8tbWluZC10b3BpYyI+PHBhdGggZmlsbD0iI2YyZjJmMiIgdHJhbnNmb3JtPSJtYXRyaXgoMSwwLDAsMSwwLjUsMC41KSIgY2xhc3M9InBvLW1pbmQtdG9waWMtc2hhcGUtZmlsbCIgZD0iTTYsMCBMMjE2LjIsMCBDMjE2LjIsMCAyMjIuMiwwIDIyMi4yLDYgTDIyMi4yLDE5IEMyMjIuMiwxOSAyMjIuMiwyNSAyMTYuMiwyNSYjMTA7ICAgICAgTDYsMjUgQzYsMjUgMCwyNSAwLDE5IEwwLDYgQzAsNiAwLDAgNiwwWiIvPjxwYXRoIHN0cm9rZT0iIzYxNjE2MSIgc3Ryb2tlLXdpZHRoPSIxIiBmaWxsPSJub25lIiB0cmFuc2Zvcm09Im1hdHJpeCgxLDAsMCwxLDAuNSwwLjUpIiBjbGFzcz0icG8tbWluZC10b3BpYy1zaGFwZSIgZD0iTTYsMCBMMjE2LjIsMCBDMjE2LjIsMCAyMjIuMiwwIDIyMi4yLDYgTDIyMi4yLDE5IEMyMjIuMiwxOSAyMjIuMiwyNSAyMTYuMiwyNSYjMTA7ICAgICAgTDYsMjUgQzYsMjUgMCwyNSAwLDE5IEwwLDYgQzAsNiAwLDAgNiwwWiIvPjxnIHRyYW5zZm9ybT0ibWF0cml4KDEsMCwwLDEsNTAuNSw0LjUpIj48ZyB0cmFuc2Zvcm09Im1hdHJpeCgxLDAsMCwxLDAsMCkiIGRhdGEtb2Zmc2V0eD0iMCIgZGF0YS1oZWlnaHQ9IjE3IiBkYXRhLXdpZHRoPSIxMjIuMiI+PGc+PHRleHQgc3R5bGU9ImZvbnQtZmFtaWx5OiDlvq7ova/pm4Xpu5E7Zm9udC1zaXplOiAxMnB4O2ZvbnQtd2VpZ2h0OiBub3JtYWw7Zm9udC1zdHlsZTogbm9ybWFsO2xpbmUtaGVpZ2h0OiAxNDAlO21heC13aWR0aDogOTAwcHg7b3ZlcmZsb3ctd3JhcDogYnJlYWstd29yZDt3b3JkLWJyZWFrOiBicmVhay13b3JkO3RleHQtc2l6ZS1hZGp1c3Q6IDEwMCU7Y29sb3I6IHJnYigwLCAwLCAwKTsiIGZpbGw9InJnYigwLCAwLCAwKSIgZm9udC13ZWlnaHQ9Im5vcm1hbCIgZm9udC1zaXplPSIxMnB4IiBhbGlnbj0idG9wIiB0ZXh0LWFuY2hvcj0ic3RhcnQiPjx0c3BhbiB5PSIxMS4xNTk5OTk5OTk5OTk5OTciIHg9IjAiPjx0c3BhbiBkeD0iMCI+5qC55o2u5LyB5Lia6I635Y+W6YOo6Zeo5oiQ5ZGYPC90c3Bhbj48L3RzcGFuPjwvdGV4dD48L2c+PC9nPjwvZz48L2c+PGcgb3BhY2l0eT0iMSIgdHJhbnNmb3JtPSJtYXRyaXgoMSwwLDAsMSw2MzUuMDk5OTk5OTk5OTk5OSw1NDQuMzc1KSIgaWQ9InRvcGljLTNjYjk5YTE2LWVjMmMtNDVkZi1hMDgxLTUzYzAzODlhNDM5ZCIgY2xhc3M9InBvLW1pbmQtdG9waWMiPjxwYXRoIGZpbGw9IiNmMmYyZjIiIHRyYW5zZm9ybT0ibWF0cml4KDEsMCwwLDEsMC41LDAuNSkiIGNsYXNzPSJwby1taW5kLXRvcGljLXNoYXBlLWZpbGwiIGQ9Ik02LDAgTDM0OC4yLDAgQzM0OC4yLDAgMzU0LjIsMCAzNTQuMiw2IEwzNTQuMiwxOSBDMzU0LjIsMTkgMzU0LjIsMjUgMzQ4LjIsMjUmIzEwOyAgICAgIEw2LDI1IEM2LDI1IDAsMjUgMCwxOSBMMCw2IEMwLDYgMCwwIDYsMFoiLz48cGF0aCBzdHJva2U9IiM2MTYxNjEiIHN0cm9rZS13aWR0aD0iMSIgZmlsbD0ibm9uZSIgdHJhbnNmb3JtPSJtYXRyaXgoMSwwLDAsMSwwLjUsMC41KSIgY2xhc3M9InBvLW1pbmQtdG9waWMtc2hhcGUiIGQ9Ik02LDAgTDM0OC4yLDAgQzM0OC4yLDAgMzU0LjIsMCAzNTQuMiw2IEwzNTQuMiwxOSBDMzU0LjIsMTkgMzU0LjIsMjUgMzQ4LjIsMjUmIzEwOyAgICAgIEw2LDI1IEM2LDI1IDAsMjUgMCwxOSBMMCw2IEMwLDYgMCwwIDYsMFoiLz48ZyB0cmFuc2Zvcm09Im1hdHJpeCgxLDAsMCwxLDUwLjUsNC41KSI+PGcgdHJhbnNmb3JtPSJtYXRyaXgoMSwwLDAsMSwwLDApIiBkYXRhLW9mZnNldHg9IjAiIGRhdGEtaGVpZ2h0PSIxNyIgZGF0YS13aWR0aD0iMjU0LjIiPjxnPjx0ZXh0IHN0eWxlPSJmb250LWZhbWlseTog5b6u6L2v6ZuF6buRO2ZvbnQtc2l6ZTogMTJweDtmb250LXdlaWdodDogbm9ybWFsO2ZvbnQtc3R5bGU6IG5vcm1hbDtsaW5lLWhlaWdodDogMTQwJTttYXgtd2lkdGg6IDkwMHB4O292ZXJmbG93LXdyYXA6IGJyZWFrLXdvcmQ7d29yZC1icmVhazogYnJlYWstd29yZDt0ZXh0LXNpemUtYWRqdXN0OiAxMDAlO2NvbG9yOiByZ2IoMCwgMCwgMCk7IiBmaWxsPSJyZ2IoMCwgMCwgMCkiIGZvbnQtd2VpZ2h0PSJub3JtYWwiIGZvbnQtc2l6ZT0iMTJweCIgYWxpZ249InRvcCIgdGV4dC1hbmNob3I9InN0YXJ0Ij48dHNwYW4geT0iMTEuMTU5OTk5OTk5OTk5OTk3IiB4PSIwIj48dHNwYW4gZHg9IjAiPuaOpeWPo++8mi9pbnRlcmNvbm5lY3Rpb24vdXNlckxpc3QvJHtsaW5rZWRfaWR9PC90c3Bhbj48L3RzcGFuPjwvdGV4dD48L2c+PC9nPjwvZz48L2c+PGcgb3BhY2l0eT0iMSIgdHJhbnNmb3JtPSJtYXRyaXgoMSwwLDAsMSw2MzUuMDk5OTk5OTk5OTk5OSw1OTkuMzc1KSIgaWQ9InRvcGljLTQ4ZmY4ZWMxLWJjMzYtNGY2My1iODlhLWIwYzNmYWU0ZWY0MCIgY2xhc3M9InBvLW1pbmQtdG9waWMiPjxwYXRoIGZpbGw9IiNmMmYyZjIiIHRyYW5zZm9ybT0ibWF0cml4KDEsMCwwLDEsMC41LDAuNSkiIGNsYXNzPSJwby1taW5kLXRvcGljLXNoYXBlLWZpbGwiIGQ9Ik02LDAgTDEyMC4yLDAgQzEyMC4yLDAgMTI2LjIsMCAxMjYuMiw2IEwxMjYuMiwxOSBDMTI2LjIsMTkgMTI2LjIsMjUgMTIwLjIsMjUmIzEwOyAgICAgIEw2LDI1IEM2LDI1IDAsMjUgMCwxOSBMMCw2IEMwLDYgMCwwIDYsMFoiLz48cGF0aCBzdHJva2U9IiM2MTYxNjEiIHN0cm9rZS13aWR0aD0iMSIgZmlsbD0ibm9uZSIgdHJhbnNmb3JtPSJtYXRyaXgoMSwwLDAsMSwwLjUsMC41KSIgY2xhc3M9InBvLW1pbmQtdG9waWMtc2hhcGUiIGQ9Ik02LDAgTDEyMC4yLDAgQzEyMC4yLDAgMTI2LjIsMCAxMjYuMiw2IEwxMjYuMiwxOSBDMTI2LjIsMTkgMTI2LjIsMjUgMTIwLjIsMjUmIzEwOyAgICAgIEw2LDI1IEM2LDI1IDAsMjUgMCwxOSBMMCw2IEMwLDYgMCwwIDYsMFoiLz48ZyB0cmFuc2Zvcm09Im1hdHJpeCgxLDAsMCwxLDUwLjUsNC41KSI+PGcgdHJhbnNmb3JtPSJtYXRyaXgoMSwwLDAsMSwwLDApIiBkYXRhLW9mZnNldHg9IjAiIGRhdGEtaGVpZ2h0PSIxNyIgZGF0YS13aWR0aD0iMjYuMiI+PGc+PHRleHQgc3R5bGU9ImZvbnQtZmFtaWx5OiDlvq7ova/pm4Xpu5E7Zm9udC1zaXplOiAxMnB4O2ZvbnQtd2VpZ2h0OiBub3JtYWw7Zm9udC1zdHlsZTogbm9ybWFsO2xpbmUtaGVpZ2h0OiAxNDAlO21heC13aWR0aDogOTAwcHg7b3ZlcmZsb3ctd3JhcDogYnJlYWstd29yZDt3b3JkLWJyZWFrOiBicmVhay13b3JkO3RleHQtc2l6ZS1hZGp1c3Q6IDEwMCU7Y29sb3I6IHJnYigwLCAwLCAwKTsiIGZpbGw9InJnYigwLCAwLCAwKSIgZm9udC13ZWlnaHQ9Im5vcm1hbCIgZm9udC1zaXplPSIxMnB4IiBhbGlnbj0idG9wIiB0ZXh0LWFuY2hvcj0ic3RhcnQiPjx0c3BhbiB5PSIxMS4xNTk5OTk5OTk5OTk5OTciIHg9IjAiPjx0c3BhbiBkeD0iMCI+5ZCM5q2lPC90c3Bhbj48L3RzcGFuPjwvdGV4dD48L2c+PC9nPjwvZz48L2c+PGcgb3BhY2l0eT0iMSIgdHJhbnNmb3JtPSJtYXRyaXgoMSwwLDAsMSw4MDAuMyw1OTkuMzc1KSIgaWQ9InRvcGljLTQ3NTAwZTY4LTk2MTQtNDczMC04MTJlLTBhZWI2ZjY0OTJkYiIgY2xhc3M9InBvLW1pbmQtdG9waWMiPjxwYXRoIGZpbGw9IiNmMmYyZjIiIHRyYW5zZm9ybT0ibWF0cml4KDEsMCwwLDEsMC41LDAuNSkiIGNsYXNzPSJwby1taW5kLXRvcGljLXNoYXBlLWZpbGwiIGQ9Ik02LDAgTDM4Mi4yLDAgQzM4Mi4yLDAgMzg4LjIsMCAzODguMiw2IEwzODguMiwxOSBDMzg4LjIsMTkgMzg4LjIsMjUgMzgyLjIsMjUmIzEwOyAgICAgIEw2LDI1IEM2LDI1IDAsMjUgMCwxOSBMMCw2IEMwLDYgMCwwIDYsMFoiLz48cGF0aCBzdHJva2U9IiM2MTYxNjEiIHN0cm9rZS13aWR0aD0iMSIgZmlsbD0ibm9uZSIgdHJhbnNmb3JtPSJtYXRyaXgoMSwwLDAsMSwwLjUsMC41KSIgY2xhc3M9InBvLW1pbmQtdG9waWMtc2hhcGUiIGQ9Ik02LDAgTDM4Mi4yLDAgQzM4Mi4yLDAgMzg4LjIsMCAzODguMiw2IEwzODguMiwxOSBDMzg4LjIsMTkgMzg4LjIsMjUgMzgyLjIsMjUmIzEwOyAgICAgIEw2LDI1IEM2LDI1IDAsMjUgMCwxOSBMMCw2IEMwLDYgMCwwIDYsMFoiLz48ZyB0cmFuc2Zvcm09Im1hdHJpeCgxLDAsMCwxLDUwLjUsNC41KSI+PGcgdHJhbnNmb3JtPSJtYXRyaXgoMSwwLDAsMSwwLDApIiBkYXRhLW9mZnNldHg9IjAiIGRhdGEtaGVpZ2h0PSIxNyIgZGF0YS13aWR0aD0iMjg4LjIiPjxnPjx0ZXh0IHN0eWxlPSJmb250LWZhbWlseTog5b6u6L2v6ZuF6buRO2ZvbnQtc2l6ZTogMTJweDtmb250LXdlaWdodDogbm9ybWFsO2ZvbnQtc3R5bGU6IG5vcm1hbDtsaW5lLWhlaWdodDogMTQwJTttYXgtd2lkdGg6IDkwMHB4O292ZXJmbG93LXdyYXA6IGJyZWFrLXdvcmQ7d29yZC1icmVhazogYnJlYWstd29yZDt0ZXh0LXNpemUtYWRqdXN0OiAxMDAlO2NvbG9yOiByZ2IoMCwgMCwgMCk7IiBmaWxsPSJyZ2IoMCwgMCwgMCkiIGZvbnQtd2VpZ2h0PSJub3JtYWwiIGZvbnQtc2l6ZT0iMTJweCIgYWxpZ249InRvcCIgdGV4dC1hbmNob3I9InN0YXJ0Ij48dHNwYW4geT0iMTEuMTU5OTk5OTk5OTk5OTk3IiB4PSIwIj48dHNwYW4gZHg9IjAiPuaOpeWPo++8mi9hc3luY1Rhc2svc3luYy9JTlRFUkNPTk5FQ1RJT05fU1lOQzwvdHNwYW4+PC90c3Bhbj48L3RleHQ+PC9nPjwvZz48L2c+PC9nPjxnIHRyYW5zZm9ybT0ibWF0cml4KDEsMCwwLDEsOTMzLjA0NzYxOTA0NzYxOSwtNTk3LjkyODU3MTQyODU3MTMpIiBpZD0idG9waWMtZmFhYjhlMTEtMGM2Mi00ZDAyLWE0OTMtZjFjOGIzNDI3NzI2IiBjbGFzcz0icG8tbWluZC10b3BpYyI+PHBhdGggZmlsbD0iI2ZmZmZmZiIgdHJhbnNmb3JtPSJtYXRyaXgoMSwwLDAsMSwwLjUsMC41KSIgY2xhc3M9InBvLW1pbmQtdG9waWMtc2hhcGUtZmlsbCIgZD0iTTIxLDAgTDE0Ny40LDAgQzE0Ny40LDAgMTY4LjQsMCAxNjguNCwyMSBMMTY4LjQsMjEgQzE2OC40LDIxIDE2OC40LDQyIDE0Ny40LDQyJiMxMDsgICAgICBMMjEsNDIgQzIxLDQyIDAsNDIgMCwyMSBMMCwyMSBDMCwyMSAwLDAgMjEsMFoiLz48cGF0aCBzdHJva2U9IiMwMDAwMDAiIHN0cm9rZS13aWR0aD0iMSIgZmlsbD0ibm9uZSIgdHJhbnNmb3JtPSJtYXRyaXgoMSwwLDAsMSwwLjUsMC41KSIgY2xhc3M9InBvLW1pbmQtdG9waWMtc2hhcGUiIGQ9Ik0yMSwwIEwxNDcuNCwwIEMxNDcuNCwwIDE2OC40LDAgMTY4LjQsMjEgTDE2OC40LDIxIEMxNjguNCwyMSAxNjguNCw0MiAxNDcuNCw0MiYjMTA7ICAgICAgTDIxLDQyIEMyMSw0MiAwLDQyIDAsMjEgTDAsMjEgQzAsMjEgMCwwIDIxLDBaIi8+PGcgdHJhbnNmb3JtPSJtYXRyaXgoMSwwLDAsMSw1NS41LDExLjUpIj48ZyB0cmFuc2Zvcm09Im1hdHJpeCgxLDAsMCwxLDAsMCkiIGRhdGEtb2Zmc2V0eD0iMCIgZGF0YS1oZWlnaHQ9IjIwIiBkYXRhLXdpZHRoPSI1OC40Ij48Zz48dGV4dCBzdHlsZT0iZm9udC1mYW1pbHk6IOW+rui9r+mbhem7kTtmb250LXNpemU6IDE0cHg7Zm9udC13ZWlnaHQ6IG5vcm1hbDtmb250LXN0eWxlOiBub3JtYWw7bGluZS1oZWlnaHQ6IDE0MCU7bWF4LXdpZHRoOiA4OTZweDtvdmVyZmxvdy13cmFwOiBicmVhay13b3JkO3dvcmQtYnJlYWs6IGJyZWFrLXdvcmQ7dGV4dC1zaXplLWFkanVzdDogMTAwJTtjb2xvcjogcmdiKDAsIDAsIDApOyIgZmlsbD0icmdiKDAsIDAsIDApIiBmb250LXdlaWdodD0ibm9ybWFsIiBmb250LXNpemU9IjE0cHgiIGFsaWduPSJ0b3AiIHRleHQtYW5jaG9yPSJzdGFydCI+PHRzcGFuIHk9IjEzLjk5OTk5OTk5OTk5OTk5NiIgeD0iMCI+PHRzcGFuIGR4PSIwIj7oh6rnlLHkuLvpopg8L3RzcGFuPjwvdHNwYW4+PC90ZXh0PjwvZz48L2c+PC9nPjwvZz48L2c+PGcgY2xhc3M9InBvLW1pbmQtYXNzb2NpYXRpdmUtbGluZS1sYWJlbC1jb250YWluZXIiLz48L2c+PHN0eWxlPiYjeGE7ICAgIC5jb25uZWN0aW9uLXN2Z3smI3hhOyAgICAgICAgb3V0bGluZTogbm9uZTsmI3hhOyAgICAgICAgYm94LXNoYWRvdzogbm9uZTsmI3hhOyAgICAgICAgLXdlYmtpdC10YXAtaGlnaGxpZ2h0LWNvbG9yOiB0cmFuc3BhcmVudDsmI3hhOyAgICB9JiN4YTsgICAgLmNvbm5lY3Rpb24tbGluZSB7JiN4YTsgICAgICAgIGN1cnNvcjogcG9pbnRlcjsmI3hhOyAgICB9JiN4YTsmI3hhOyAgICAuY29ubmVjdGlvbi1saW5lLWJnIHsmI3hhOyAgICAgICAgY3Vyc29yOiBwb2ludGVyOyYjeGE7ICAgIH0mI3hhOyYjeGE7ICAgIC5ub2RlLWFkZC1idG4geyYjeGE7ICAgICAgICBjdXJzb3I6IHBvaW50ZXI7JiN4YTsgICAgfSYjeGE7JiN4YTsgICAgLnBvLXJpY2h0ZXh0LW5vZGUtd3JhcCBvbCwmI3hhOyAgICAuYXJlYV9ib3ggb2wsJiN4YTsgICAgLnBvLW1lYXN1cmVDdXN0b21Ob2RlIG9sIHsmI3hhOyAgICAgICAgcGFkZGluZy1sZWZ0OiAyMHB4OyYjeGE7ICAgICAgICBtYXJnaW46IDA7JiN4YTsgICAgfSYjeGE7ICAgIC5wby1yaWNodGV4dC1ub2RlLXdyYXAgb2wgbGksJiN4YTsgICAgLmFyZWFfYm94IG9sIGxpLCYjeGE7ICAgIC5wby1tZWFzdXJlQ3VzdG9tTm9kZSBvbCBsaSB7JiN4YTsgICAgICAgIGxpc3Qtc3R5bGU6IGRlY2ltYWw7JiN4YTsgICAgfSYjeGE7ICAgIC5wby1yaWNodGV4dC1ub2RlLXdyYXAgdWwsJiN4YTsgICAgLmFyZWFfYm94IHVsLCYjeGE7ICAgIC5wby1tZWFzdXJlQ3VzdG9tTm9kZSB1bCB7JiN4YTsgICAgICAgIHBhZGRpbmctbGVmdDogY2FsYygxNXB4ICsgMC41ZW0pOyYjeGE7ICAgICAgICBsaXN0LXN0eWxlOiBub25lOyYjeGE7ICAgICAgICBtYXJnaW46IDA7JiN4YTsgICAgfSYjeGE7ICAgIC5wby1yaWNodGV4dC1ub2RlLXdyYXAgdWwgbGksJiN4YTsgICAgLmFyZWFfYm94IHVsIGxpLCYjeGE7ICAgIC5wby1tZWFzdXJlQ3VzdG9tTm9kZSB1bCBsaSB7JiN4YTsgICAgICAgIGxpc3Qtc3R5bGU6IGRpc2M7JiN4YTsgICAgfSYjeGE7ICAgIC5wby1yaWNodGV4dC1ub2RlLXdyYXAgcCwmI3hhOyAgICAucG8tcmljaHRleHQtbm9kZS13cmFwIGgxLCYjeGE7ICAgIC5wby1yaWNodGV4dC1ub2RlLXdyYXAgaDIsJiN4YTsgICAgLnBvLXJpY2h0ZXh0LW5vZGUtd3JhcCBoMywmI3hhOyAgICAucG8tcmljaHRleHQtbm9kZS13cmFwIGg0LCYjeGE7ICAgIC5wby1yaWNodGV4dC1ub2RlLXdyYXAgaDUsJiN4YTsgICAgLnBvLXJpY2h0ZXh0LW5vZGUtd3JhcCBoNiwmI3hhOyAgICAuYXJlYV9ib3ggcCwmI3hhOyAgICAuYXJlYV9ib3ggaDEsJiN4YTsgICAgLmFyZWFfYm94IGgyLCYjeGE7ICAgIC5hcmVhX2JveCBoMywmI3hhOyAgICAuYXJlYV9ib3ggaDQsJiN4YTsgICAgLmFyZWFfYm94IGg1LCYjeGE7ICAgIC5hcmVhX2JveCBoNiwmI3hhOyAgICAucG8tbWVhc3VyZUN1c3RvbU5vZGUgcCwmI3hhOyAgICAucG8tbWVhc3VyZUN1c3RvbU5vZGUgaDEsJiN4YTsgICAgLnBvLW1lYXN1cmVDdXN0b21Ob2RlIGgyLCYjeGE7ICAgIC5wby1tZWFzdXJlQ3VzdG9tTm9kZSBoMywmI3hhOyAgICAucG8tbWVhc3VyZUN1c3RvbU5vZGUgaDQsJiN4YTsgICAgLnBvLW1lYXN1cmVDdXN0b21Ob2RlIGg1LCYjeGE7ICAgIC5wby1tZWFzdXJlQ3VzdG9tTm9kZSBoNiB7JiN4YTsgICAgICAgIG1hcmdpbjogMDsmI3hhOyAgICB9JiN4YTsgICAgLnBvLXNhZmFyaS1maXhlZCB7JiN4YTsgICAgICAgIHBvc2l0aW9uOiBmaXhlZDsmI3hhOyAgICB9JiN4YTs8L3N0eWxlPjwvc3ZnPg==;" vertex="1" parent="WIyWlLk6GJQsqaUBKTNV-1">
          <mxGeometry width="1200" height="1153" as="geometry" />
        </mxCell>
      </root>
    </mxGraphModel>
  </diagram>
</mxfile>
